<svg width="734" height="551" viewBox="0 0 734 551" fill="none" xmlns="http://www.w3.org/2000/svg">
<path fill-rule="evenodd" clip-rule="evenodd" d="M127.06 520.714L122.335 520.527L119.832 520.426L112.734 520.143C112.734 520.143 47.1418 408.47 88.2328 372.053C100.883 360.84 122.998 370.136 118.11 421.662C113.578 469.43 127.06 520.714 127.06 520.714Z" fill="#136AE8"/>
<path fill-rule="evenodd" clip-rule="evenodd" d="M122.173 520.714L119.634 520.615C108.026 493.642 102.166 464.667 99.2581 444.33C95.8045 420.181 95.6423 402.645 95.6441 402.474C95.6379 401.846 96.1492 401.336 96.7839 401.334C97.4185 401.328 97.9377 401.832 97.9412 402.455C97.9421 402.63 98.1017 420.042 101.539 444.05C104.464 464.486 110.388 493.7 122.173 520.714Z" fill="#3323A9"/>
<path fill-rule="evenodd" clip-rule="evenodd" d="M139.626 542.806L133.214 545.192L129.812 546.456L120.174 550.036C120.174 550.036 -29.4493 437.6 5.2096 366.061C15.8781 344.036 50.5793 344.099 72.663 415.601C93.1398 481.882 139.626 542.806 139.626 542.806Z" fill="#5997F2"/>
<path fill-rule="evenodd" clip-rule="evenodd" d="M184.287 164.962C184.287 164.962 185.372 141.913 171.425 137.486C149.705 130.592 143.662 141.913 140.31 149.392C136.014 158.979 137.845 177.785 150.804 179.601C170.148 182.313 183.091 171.402 184.287 164.962Z" fill="#111212"/>
<path fill-rule="evenodd" clip-rule="evenodd" d="M197.962 241.462C209.262 241.462 219.022 233.573 221.336 222.554C223.002 214.621 224.63 207.594 224.63 203.646V203.545C224.732 202.298 224.788 201.05 224.798 199.822C224.947 181.776 213.779 148.816 174.497 154.055C174.497 154.055 141.902 157.759 138.192 189.491C138.192 189.491 136.647 204.128 135.62 214.73L135.563 215.289C134.13 229.299 145.19 241.462 159.325 241.462H197.962Z" fill="#111212"/>
<path fill-rule="evenodd" clip-rule="evenodd" d="M244.904 279.161C244.904 279.161 251.817 334.077 259.715 362.269C259.715 362.269 270.933 357.03 285.619 349.915C301.54 342.202 324.433 328.13 324.433 328.13L330.216 342.104C330.216 342.104 271.086 398.062 251.501 401.23C231.915 404.398 219.911 334.077 219.911 334.077L244.904 279.161Z" fill="#136AE8"/>
<path fill-rule="evenodd" clip-rule="evenodd" d="M322.919 329.738C322.919 329.738 321.28 321.986 324.792 316.742C328.306 311.497 333.652 301.675 339.932 299.625C345.186 297.91 337.433 306.668 337.203 312.221C337.203 312.221 345.016 311.255 350.653 309.446C355.611 307.857 365.418 305.873 369.967 304.99C371.212 304.746 372.014 306.298 371.054 307.12C369.504 308.447 366.261 310.116 359.558 311.711C359.558 311.711 375.895 308.657 377.59 311.128C379.285 313.598 358.788 317.046 358.788 317.046C358.788 317.046 374.693 316.118 375.107 318.58C375.359 320.082 358.882 323.517 358.882 323.517C358.882 323.517 373.917 323.916 370.282 326.258C369.221 326.94 340.112 330.175 329.978 341.993C329.978 341.993 323.161 335.035 322.919 329.738Z" fill="white"/>
<path fill-rule="evenodd" clip-rule="evenodd" d="M144.513 267.975C144.513 267.975 111.274 277.781 82.649 284.241C82.649 284.241 81.9059 271.823 81.1566 255.447C80.3439 237.692 81.8063 210.744 81.8063 210.744L66.7242 212.293C66.7242 212.293 45.6647 291.256 52.2326 310.082C58.8023 328.911 142.225 302.537 142.225 302.537L144.513 267.974V267.975Z" fill="#136AE8"/>
<path fill-rule="evenodd" clip-rule="evenodd" d="M81.4513 213.27C81.4513 213.27 89.0894 210.981 92.0732 205.372C95.057 199.763 103.3 188.468 98.2127 184.287C96.3545 182.76 95.0164 189.423 90.2062 192.297C90.2062 192.297 87.3687 184.967 86.3039 179.147C85.3686 174.028 82.4871 164.458 81.119 160.037C80.7426 158.826 78.9911 158.87 78.717 160.107C78.2763 162.108 78.33 165.76 80.0886 172.415C80.0886 172.415 75.0677 156.595 72.0768 156.292C69.0886 155.993 75.7261 175.658 75.7261 175.658C75.7261 175.658 69.0287 161.242 66.6522 162.063C65.2048 162.562 69.9551 178.688 69.9551 178.688C69.9551 178.688 62.4916 165.673 62.1355 169.994C62.0324 171.253 72.9336 198.378 67.2631 212.966C67.2631 212.966 76.6473 215.606 81.4513 213.27Z" fill="white"/>
<path fill-rule="evenodd" clip-rule="evenodd" d="M243.803 491.863L244.068 493.036C218.205 510.526 121.475 498.582 121.475 498.582C121.64 496.557 121.857 494.437 122.14 492.244C122.439 489.799 122.815 487.268 123.246 484.65C124.415 477.617 125.984 470.011 127.742 462.185C128.307 459.721 128.873 457.221 129.469 454.709C131.217 447.24 133.074 439.664 134.832 432.287C135.442 429.75 136.038 427.25 136.615 424.761C137.422 421.309 138.184 417.912 138.916 414.62C139.87 410.239 140.718 406.031 141.431 402.068C141.911 399.403 142.328 396.847 142.649 394.42C143.018 391.852 143.27 389.425 143.425 387.177C141.887 381.502 140.453 375.941 139.118 370.547C138.455 367.802 137.803 365.117 137.164 362.464C135.178 353.969 133.43 345.884 131.905 338.31C131.365 335.557 130.829 332.88 130.343 330.268C128.652 321.336 127.286 313.252 126.186 306.198C125.761 303.386 125.362 300.762 125.011 298.287C124.623 295.578 124.292 293.072 124.002 290.797C122.705 280.797 122.257 275.127 122.257 275.127C122.484 274.942 122.723 274.776 122.969 274.598C125.903 272.516 130.49 270.556 135.588 268.818C140.97 266.974 146.924 265.371 152.169 264.106C152.962 263.915 153.743 263.732 154.506 263.553C161.4 261.944 166.553 261.01 166.553 261.01C190.009 265.919 196.7 262.762 196.7 262.762L208.626 266.275L210.028 266.766L218.716 269.813L219.068 269.942L234.653 275.422L245.044 279.064L241.011 297.648L239.252 305.763L233.937 330.224L232.191 338.31L226.903 362.685L225.162 370.69L220.783 390.888L221.657 394.745L223.366 402.235L226.078 414.139L228.544 424.909L230.242 432.373L235.345 454.826L237.05 462.248L242.111 484.443L243.803 491.863Z" fill="#5997F2"/>
<path fill-rule="evenodd" clip-rule="evenodd" d="M209.439 266.744C206.959 281.474 199.898 296.291 185.218 297.892C167.482 299.833 158.289 277.334 154.287 263.512C161.135 261.894 168.232 260.311 168.232 260.311C191.533 265.248 196.028 262.241 196.028 262.241L208.046 266.25L209.439 266.743V266.744Z" fill="white"/>
<path fill-rule="evenodd" clip-rule="evenodd" d="M183.609 285.444C165.063 285.444 160.629 262.336 160.585 262.098C160.495 261.597 160.823 261.116 161.318 261.024C161.817 260.934 162.292 261.262 162.384 261.764C162.554 262.691 166.76 284.496 184.686 283.57C200.374 282.77 201.296 265.204 201.329 264.457C201.349 263.948 201.77 263.55 202.281 263.575C202.785 263.595 203.178 264.025 203.156 264.534C203.148 264.733 202.141 284.529 184.778 285.413C184.382 285.434 183.993 285.444 183.609 285.444Z" fill="white"/>
<path fill-rule="evenodd" clip-rule="evenodd" d="M150.098 278.812C150.098 281.318 148.066 283.35 145.56 283.35C143.054 283.35 141.022 281.318 141.022 278.812C141.022 276.306 143.054 274.274 145.56 274.274C148.066 274.274 150.098 276.306 150.098 278.812ZM141.022 301.152C141.022 303.658 138.991 305.69 136.485 305.69C133.979 305.69 131.947 303.658 131.947 301.152C131.947 298.646 133.979 296.614 136.485 296.614C138.991 296.614 141.022 298.646 141.022 301.152ZM169.646 311.625C169.646 314.128 167.614 316.162 165.108 316.162C162.602 316.162 160.57 314.129 160.57 311.625C160.57 309.119 162.602 307.086 165.108 307.086C167.614 307.086 169.646 309.119 169.646 311.625ZM149.773 324.602C150.702 326.928 149.57 329.568 147.243 330.497C144.916 331.426 142.276 330.295 141.347 327.968C140.418 325.641 141.551 323.001 143.878 322.071C146.205 321.143 148.845 322.275 149.773 324.601V324.602ZM189.194 332.569C189.194 335.072 187.162 337.106 184.656 337.106C182.15 337.106 180.118 335.073 180.118 332.569C180.118 330.063 182.15 328.03 184.656 328.03C187.162 328.03 189.194 330.063 189.194 332.569ZM218.515 342.341C218.515 344.847 216.483 346.88 213.977 346.88C211.471 346.88 209.439 344.847 209.439 342.341C209.439 339.837 211.471 337.804 213.977 337.804C216.483 337.804 218.515 339.837 218.515 342.341ZM224.1 283.699C224.1 286.205 222.07 288.237 219.561 288.237C217.054 288.237 215.024 286.205 215.024 283.699C215.024 281.193 217.054 279.161 219.561 279.161C222.07 279.161 224.1 281.193 224.1 283.699ZM191.288 361.89C191.288 364.394 189.256 366.427 186.75 366.427C184.244 366.427 182.212 364.395 182.212 361.89C182.212 359.384 184.244 357.352 186.75 357.352C189.256 357.352 191.288 359.384 191.288 361.89ZM162.665 375.852C162.665 378.358 160.635 380.39 158.126 380.39C155.621 380.39 153.589 378.358 153.589 375.852C153.589 373.346 155.621 371.314 158.126 371.314C160.635 371.314 162.665 373.346 162.665 375.852ZM159.872 350.021C159.872 352.527 157.84 354.559 155.334 354.559C152.828 354.559 150.796 352.527 150.796 350.021C150.796 347.515 152.828 345.483 155.334 345.483C157.84 345.483 159.872 347.515 159.872 350.021ZM204.552 313.019C204.552 315.525 202.521 317.558 200.015 317.558C197.509 317.558 195.477 315.525 195.477 313.019C195.477 310.516 197.509 308.482 200.015 308.482C202.521 308.482 204.552 310.515 204.552 313.019ZM229.685 307.434C229.685 309.94 227.655 311.973 225.146 311.973C222.639 311.973 220.609 309.94 220.609 307.434C220.609 304.928 222.639 302.897 225.146 302.897C227.655 302.897 229.685 304.928 229.685 307.434ZM213.628 369.569C213.628 372.074 211.596 374.107 209.09 374.107C206.584 374.107 204.552 372.074 204.552 369.57C204.552 367.064 206.584 365.031 209.09 365.031C211.596 365.031 213.628 367.064 213.628 369.57V369.569ZM215.024 405.173C215.024 407.679 212.993 409.711 210.487 409.711C207.981 409.711 205.949 407.679 205.949 405.173C205.949 402.667 207.981 400.636 210.487 400.636C212.993 400.636 215.024 402.667 215.024 405.173ZM191.662 390.226C192.59 392.553 191.459 395.193 189.131 396.122C186.804 397.052 184.164 395.921 183.235 393.592C182.306 391.266 183.439 388.626 185.765 387.696C188.093 386.767 190.731 387.899 191.662 390.226ZM160.944 403.49C161.873 405.818 160.739 408.457 158.413 409.386C156.086 410.317 153.446 409.183 152.517 406.856C151.588 404.53 152.721 401.89 155.048 400.961C157.375 400.032 160.013 401.164 160.944 403.49Z" fill="#136AE8"/>
<path fill-rule="evenodd" clip-rule="evenodd" d="M253.422 549.338L252.476 543.635L248.792 521.513L247.528 513.934L244.01 492.789L237.616 493.079L152.837 496.933L121.452 498.354L119.434 514.799L118.49 522.46L115.704 545.175L115.192 549.338H253.422Z" fill="#5997F2"/>
<path fill-rule="evenodd" clip-rule="evenodd" d="M253.422 549.338L252.555 544.193L252.484 543.656L251.872 540.021L251.261 536.421L248.779 521.56L248.061 517.172L247.52 514.004L247.449 513.537L244.247 494.286L244.031 492.919L243.743 491.731L243.492 490.688L242.053 484.319L239.211 471.87L238.383 468.307L236.981 462.082L235.29 454.633L234.139 449.524L233.313 445.962L230.182 432.181L229.032 427.142L228.493 424.696L228.241 423.581L226.046 413.9C191.588 424.084 155.078 418.04 138.89 414.406C138.172 417.679 137.38 421.097 136.59 424.552C136.409 425.308 136.228 426.064 136.049 426.818C135.762 428.007 135.474 429.195 135.186 430.381C135.079 430.957 134.934 431.497 134.789 432.073C133.459 437.723 132.057 443.478 130.69 449.201C130.402 450.388 130.15 451.575 129.861 452.728C129.719 453.337 129.574 453.913 129.431 454.526C128.856 457.045 128.28 459.563 127.704 462.011C126.985 465.284 126.3 468.487 125.653 471.653C125.401 472.841 125.151 473.992 124.935 475.144C124.287 478.348 123.711 481.476 123.207 484.5C122.777 487.125 122.417 489.644 122.129 492.128C122.021 492.884 121.949 493.639 121.842 494.358C121.732 495.582 121.59 496.771 121.482 497.956C121.482 498.137 121.445 498.28 121.445 498.46L119.432 514.87L119.108 517.422L118.676 520.985L118.497 522.496L116.266 540.451L115.834 544.051L115.692 545.203L115.192 549.338H253.422Z" fill="#111212"/>
<path fill-rule="evenodd" clip-rule="evenodd" d="M211.594 205.869C211.594 205.869 217.192 198.872 221.356 204.658C225.516 210.443 219.632 227.531 209.44 223.36L211.593 205.869H211.594Z" fill="#CFCFCF"/>
<path fill-rule="evenodd" clip-rule="evenodd" d="M211.702 217.725C212.081 217.725 212.429 217.487 212.537 217.123C214.126 211.746 219.991 209.566 220.05 209.545C220.496 209.382 220.723 208.907 220.553 208.482C220.383 208.059 219.883 207.845 219.438 208.004C219.162 208.103 212.698 210.488 210.867 216.68C210.739 217.117 211.006 217.57 211.467 217.694C211.547 217.716 211.626 217.725 211.702 217.725Z" fill="#136AE8"/>
<path fill-rule="evenodd" clip-rule="evenodd" d="M217.598 214.933C217.769 214.933 217.942 214.894 218.094 214.813C218.521 214.588 218.645 214.125 218.369 213.776C218.325 213.718 217.224 212.348 214.922 211.508C214.462 211.338 213.917 211.508 213.709 211.885C213.502 212.263 213.709 212.709 214.174 212.876C215.952 213.527 216.816 214.577 216.824 214.588C217.001 214.812 217.297 214.933 217.598 214.933Z" fill="#136AE8"/>
<path fill-rule="evenodd" clip-rule="evenodd" d="M208.707 222.93C207.732 224.029 207.133 225.477 207.133 227.064C207.133 230.493 209.89 233.283 213.28 233.283C216.669 233.283 219.426 230.493 219.426 227.064C219.426 225.088 218.512 223.328 217.088 222.191C216.373 221.62 215.532 221.206 214.612 220.997C214.457 220.576 214.534 220.183 214.835 219.82C216.009 220.079 217.078 220.622 217.97 221.376C219.583 222.733 220.61 224.783 220.61 227.064C220.61 231.157 217.323 234.481 213.28 234.481C209.239 234.481 205.949 231.157 205.949 227.064C205.949 225.301 206.568 223.69 207.588 222.418C207.959 222.589 208.333 222.761 208.707 222.93Z" fill="white"/>
<path fill-rule="evenodd" clip-rule="evenodd" d="M168.25 241.462V262.533C168.25 262.533 178.121 270.091 185.822 270.749C193.516 271.413 196.175 262.406 196.175 262.406V242.794L168.25 241.462Z" fill="white"/>
<path fill-rule="evenodd" clip-rule="evenodd" d="M168.25 244.254V252.543C173.417 258.152 182.591 260.141 196.173 258.179L196.175 245.567L168.25 244.254Z" fill="#CFCFCF"/>
<path fill-rule="evenodd" clip-rule="evenodd" d="M214.82 213.54C214.575 215.59 214.287 217.677 213.917 219.755C211.484 233.563 202.764 248.477 191.752 250.979C167.977 256.384 158.104 237.68 154.303 223.882C153.882 222.349 154.67 220.593 154.338 218.78C153.551 214.478 151.814 209.594 151.422 204.777C151.149 201.438 150.958 198.145 150.817 195.169C150.431 186.778 155.284 179.067 162.867 176.055C173.798 171.701 190.395 168.254 206.115 177.489C211.921 180.9 215.564 187.213 215.695 194.127C215.792 199.407 215.66 206.309 214.82 213.54Z" fill="white"/>
<path fill-rule="evenodd" clip-rule="evenodd" d="M184.327 224.008C183.881 224.008 183.489 223.687 183.412 223.233C183.329 222.727 183.668 222.247 184.175 222.162L187.363 221.624L182.97 209.907C182.791 209.425 183.031 208.888 183.512 208.709C183.992 208.53 184.528 208.771 184.707 209.253L189.892 223.085L184.481 223.996C184.43 224.004 184.377 224.008 184.327 224.008Z" fill="#CFCFCF"/>
<path fill-rule="evenodd" clip-rule="evenodd" d="M196.175 208.999C196.175 211.119 197.268 212.838 198.619 212.838C199.968 212.838 201.062 211.12 201.062 208.999C201.062 206.879 199.969 205.159 198.619 205.159C197.269 205.159 196.175 206.878 196.175 208.999ZM169.646 208.999C169.646 211.119 170.739 212.838 172.09 212.838C173.439 212.838 174.533 211.12 174.533 208.999C174.533 206.879 173.44 205.159 172.09 205.159C170.74 205.159 169.646 206.878 169.646 208.999ZM205.124 198.994C203.206 198.641 199.332 198.062 195.205 198.198C194.12 198.235 193.249 199.006 193.399 199.82L193.403 199.839C193.522 200.49 194.262 200.927 195.131 200.866C197.944 200.665 205.3 200.708 208.725 201.668C208.82 201.201 208.488 200.706 208.006 200.272C207.272 199.614 206.242 199.2 205.124 198.994ZM167.648 199.766C169.562 199.406 173.436 198.805 177.572 198.883C178.661 198.906 179.543 199.631 179.406 200.41L179.402 200.43C179.292 201.052 178.557 201.479 177.688 201.431C174.865 201.275 167.497 201.407 164.08 202.366C163.977 201.92 164.302 201.444 164.782 201.022C165.505 200.386 166.53 199.976 167.648 199.766Z" fill="#111212"/>
<path d="M175.151 230.094H194.848C194.472 231.58 193.765 233.445 192.435 235.005C190.935 236.766 188.618 238.169 184.981 238.169C181.321 238.169 179.033 236.881 177.562 235.191C176.234 233.665 175.54 231.773 175.151 230.094Z" fill="white" stroke="#D6DADF"/>
<path fill-rule="evenodd" clip-rule="evenodd" d="M185.094 244.254C187.364 244.254 189.367 243.114 189.45 243.066C189.887 242.814 190.023 242.28 189.753 241.873C189.484 241.466 188.912 241.34 188.475 241.59C188.459 241.598 186.824 242.521 185.094 242.521C183.221 242.521 181.542 241.596 181.526 241.587C181.085 241.34 180.516 241.472 180.251 241.882C179.987 242.291 180.128 242.823 180.565 243.071C180.65 243.118 182.689 244.254 185.094 244.254Z" fill="#CFCFCF"/>
<path fill-rule="evenodd" clip-rule="evenodd" d="M215.468 211.52C215.246 211.705 215.033 211.641 214.831 211.278C211.692 205.737 214.642 194.685 205.353 190.446C198.278 187.215 195.738 180.586 195.738 180.586C194.121 183.358 189.905 185.901 189.905 185.901C189.905 185.901 179.219 192.239 168.115 196.523C164.814 197.795 162.463 199.089 160.817 200.197L161.014 200.254C161.014 200.254 157.94 205.254 160.19 213.027C162.44 220.796 159.545 233.618 154.551 236.575C154.639 236.358 158.385 227.493 156.27 220.259C155.05 216.114 155.06 209.516 153.903 205.562C152.625 204.68 149.665 203.191 148.663 202.596C148.377 199.195 148.171 195.843 148.027 192.811C147.619 184.264 152.732 176.411 160.725 173.341C172.24 168.909 189.729 165.399 206.296 174.804C212.412 178.277 216.252 184.708 216.393 191.746C216.494 197.123 216.353 204.154 215.467 211.521" fill="#111212"/>
<path fill-rule="evenodd" clip-rule="evenodd" d="M154.093 205.22C154.093 205.22 147.523 197.353 143.646 203.025C139.769 208.698 145.494 226.084 154.985 221.996L154.093 205.22Z" fill="white"/>
<path fill-rule="evenodd" clip-rule="evenodd" d="M154.479 222.198C155.163 223.489 155.398 225.022 155.017 226.544C154.193 229.833 150.848 231.84 147.56 231.017C144.274 230.195 142.267 226.85 143.091 223.561C143.564 221.666 144.873 220.2 146.528 219.454C147.359 219.081 148.274 218.886 149.214 218.911C149.378 218.56 149.461 218.179 149.282 217.73C148.08 217.691 146.911 217.953 145.866 218.459C143.976 219.369 142.489 221.084 141.941 223.275C140.96 227.198 143.352 231.184 147.274 232.166C151.193 233.145 155.184 230.756 156.164 226.834C156.587 225.142 156.374 223.445 155.691 221.979C155.288 222.053 154.883 222.127 154.479 222.198Z" fill="white"/>
<path fill-rule="evenodd" clip-rule="evenodd" d="M152.783 216.329C152.431 216.329 152.109 216.091 152.009 215.727C150.534 210.35 145.086 208.169 145.032 208.148C144.618 207.985 144.408 207.512 144.565 207.086C144.723 206.663 145.187 206.448 145.602 206.608C145.857 206.708 151.86 209.089 153.559 215.283C153.679 215.721 153.43 216.175 153 216.298C152.928 216.319 152.856 216.329 152.783 216.329Z" fill="#CFCFCF"/>
<path fill-rule="evenodd" clip-rule="evenodd" d="M147.394 213.536C147.248 213.536 147.102 213.499 146.969 213.417C146.603 213.192 146.498 212.729 146.734 212.38C146.772 212.323 147.716 210.954 149.687 210.112C150.084 209.942 150.55 210.112 150.728 210.49C150.905 210.869 150.728 211.311 150.331 211.481C148.806 212.131 148.063 213.182 148.057 213.192C147.907 213.415 147.653 213.536 147.394 213.536Z" fill="#CFCFCF"/>
<path fill-rule="evenodd" clip-rule="evenodd" d="M499.164 376.926C483.983 387.805 460.23 395.269 460.23 395.269L455.367 377.805L451.573 364.182L448.896 354.578L421.671 354.559C423.146 359.653 424.669 364.855 426.199 369.98C428.163 376.59 430.123 383.063 431.984 389.03C434.612 397.429 437.035 404.815 438.988 410.091C439.444 411.322 439.975 412.662 440.569 414.092C444.206 423.907 447.144 434.549 461.034 427.872C473.257 421.992 489.839 413.844 498.122 408.434L499.164 376.926Z" fill="white"/>
<path fill-rule="evenodd" clip-rule="evenodd" d="M425.86 370.197C427.835 376.882 429.804 383.431 431.676 389.466C442.848 388.277 450.581 382.715 455.182 378.113L451.369 364.333L425.86 370.197Z" fill="#CFCFCF"/>
<path fill-rule="evenodd" clip-rule="evenodd" d="M420.084 274.274C420.084 274.274 448.532 342.065 460.767 364.029C460.767 364.029 443.62 378.596 426.918 378.994C426.918 378.994 417.295 304.565 420.084 274.274Z" fill="#0D479A"/>
<path fill-rule="evenodd" clip-rule="evenodd" d="M353.614 549.338C353.899 544.598 354.164 540.089 354.408 535.907C355.407 518.816 356.048 507.148 356.048 507.148L349.404 506.849L345.661 506.679L300.502 504.657C300.502 504.657 299.681 517.705 298.712 536.865C298.512 540.787 298.308 544.964 298.103 549.338H353.614Z" fill="#5997F2"/>
<path fill-rule="evenodd" clip-rule="evenodd" d="M350.033 506.852L356.746 507.152C356.746 507.152 356.098 518.834 355.09 535.946C337.555 537.407 318.412 538 298.801 536.905C299.779 517.721 300.61 504.657 300.61 504.657L346.248 506.682L350.033 506.852Z" fill="#136AE8"/>
<path fill-rule="evenodd" clip-rule="evenodd" d="M347.329 549.338C348.403 531.109 349.286 515.495 349.764 506.921L345.924 506.752C345.444 515.365 344.558 531.049 343.481 549.338H347.329Z" fill="#136AE8"/>
<path fill-rule="evenodd" clip-rule="evenodd" d="M368.953 549.338H424.464C424.26 544.964 424.055 540.787 423.857 536.865C422.888 517.705 422.066 504.657 422.066 504.657L376.905 506.679L373.163 506.849L366.519 507.149C366.519 507.149 367.16 518.815 368.157 535.907C368.403 540.089 368.668 544.599 368.953 549.338Z" fill="#5997F2"/>
<path fill-rule="evenodd" clip-rule="evenodd" d="M372.534 506.852L365.821 507.152C365.821 507.152 366.469 518.834 367.478 535.946C385.011 537.407 404.155 538 423.766 536.905C422.787 517.721 421.954 504.657 421.954 504.657L376.317 506.682L372.535 506.852H372.534Z" fill="#136AE8"/>
<path fill-rule="evenodd" clip-rule="evenodd" d="M379.086 549.338C378.009 531.049 377.124 515.365 376.644 506.752L372.803 506.921C373.281 515.495 374.164 531.109 375.236 549.338H379.086Z" fill="#136AE8"/>
<path fill-rule="evenodd" clip-rule="evenodd" d="M291.125 472.812C291.118 473.75 291.125 474.672 291.125 475.583C291.145 492.212 291.227 505.099 291.31 511.425C307.322 515.776 323.336 518.589 339.356 519.887L341.534 520.051C341.922 520.08 342.309 520.106 342.697 520.127C343.558 520.189 344.424 520.243 345.277 520.285C346.231 520.347 347.18 520.393 348.142 520.442C359.041 520.947 369.938 520.749 380.844 519.854C383.046 519.669 385.236 519.457 387.438 519.217C387.583 519.203 387.72 519.189 387.862 519.177C388.422 519.115 388.981 519.046 389.548 518.978C389.888 518.936 390.229 518.896 390.562 518.854C403.242 517.336 415.921 514.852 428.607 511.425C428.64 508.554 428.653 504.291 428.653 498.921C428.653 497.924 428.653 496.896 428.648 495.823V495.817C428.64 488.135 428.592 478.572 428.512 467.764L428.49 464.967C428.43 457.771 428.353 450.061 428.259 442.024C428.245 441.093 428.239 440.164 428.224 439.227C428.122 430.983 428 422.42 427.856 413.726C427.768 408.416 427.673 403.061 427.562 397.699C427.454 392.27 427.338 386.831 427.209 381.426C427.181 380.249 427.154 379.073 427.119 377.895C425.878 326.791 423.73 279.818 420.177 274.579C417.715 270.954 412.074 266.692 405.431 262.397C404.62 261.878 403.794 261.351 402.955 260.824C400.126 259.051 377.038 251.186 374.104 249.454L349.704 247.745C349.553 247.833 326.221 255.728 326.071 255.81C325.068 256.385 324.051 256.967 323.049 257.546C314.409 262.547 305.884 267.813 300.973 272.35C300.257 273.006 299.616 273.649 299.07 274.277C298.633 274.778 298.245 275.264 297.93 275.742C297.637 276.174 297.352 276.899 297.079 277.89C294.126 288.65 292.578 330.937 291.805 376.944C291.751 380.243 291.705 383.559 291.656 386.885L291.594 391.268C291.574 392.275 291.56 393.287 291.554 394.292C291.546 394.798 291.54 395.297 291.534 395.803C291.5 398.307 291.472 400.805 291.452 403.287L291.39 408.794C291.172 431.968 291.104 454.473 291.125 472.812Z" fill="#136AE8"/>
<path fill-rule="evenodd" clip-rule="evenodd" d="M247.332 537.773C246.733 544.301 254.658 540.761 252.415 527.53C250.181 514.301 256.532 502.322 259.269 502.707C262.015 503.094 257.001 517.152 259.44 522.218C261.873 527.285 265.02 517.441 268.154 511.471C271.405 505.271 271.213 491.74 269.734 482.087C268.256 472.426 285.698 413.772 285.787 396.776L287.913 389.571L295.693 363.187L307.876 321.872C307.876 321.872 300.577 290.601 288.274 293.287C288.274 293.287 281.76 315.071 274.797 339.633C273.619 343.805 272.426 348.057 271.249 352.295C266.287 370.106 261.628 387.691 259.46 398.124C253.736 425.669 253.295 482.928 253.295 482.928C253.295 482.928 243.197 503.965 242.959 513.323C242.706 523.305 247.927 531.244 247.332 537.772" fill="white"/>
<path fill-rule="evenodd" clip-rule="evenodd" d="M270.875 352.645L287.531 390.164L295.31 363.607L274.423 339.898C273.244 344.098 272.052 348.378 270.875 352.645Z" fill="#CFCFCF"/>
<path fill-rule="evenodd" clip-rule="evenodd" d="M270.177 341.355C277.571 353.94 285.089 366.457 292.578 378.994C295.046 370.793 297.602 362.92 300 355.684C300.008 355.665 300.014 355.65 300.02 355.63C300.979 352.737 301.916 349.946 302.811 347.279C302.825 347.231 302.839 347.182 302.859 347.142C303.17 346.205 303.474 345.282 303.782 344.378V344.372C307.36 333.641 310.129 325.112 310.922 320.14C313.058 306.756 307.235 280.533 299.035 275.361C298.821 275.834 298.175 274.376 297.79 275.267C296.35 278.57 289.954 286.728 286.791 294.677C286.384 295.689 285.971 296.742 285.544 297.815C280.962 309.504 275.359 324.709 270.177 341.355Z" fill="#136AE8"/>
<path fill-rule="evenodd" clip-rule="evenodd" d="M360.609 272.179C371.097 272.179 378.491 262.282 378.8 261.862C379.243 261.26 379.161 260.378 378.618 259.891C378.075 259.403 377.278 259.494 376.837 260.094C376.742 260.224 369.857 269.379 360.609 269.379C351.468 269.379 345.895 259.016 345.842 258.911C345.489 258.244 344.713 258.019 344.111 258.407C343.507 258.795 343.301 259.65 343.653 260.319C343.905 260.804 349.995 272.179 360.609 272.179ZM405.064 364.333C405.253 364.333 405.446 364.284 405.628 364.183C406.242 363.838 406.49 363.005 406.178 362.323L401.698 352.527C401.387 351.843 400.633 351.57 400.017 351.916C399.402 352.262 399.154 353.095 399.466 353.775L403.948 363.575C404.166 364.055 404.606 364.333 405.064 364.333ZM414.602 356.441C414.767 356.554 414.96 356.627 415.169 356.648C415.879 356.716 416.509 356.144 416.571 355.366L417.478 344.225C417.541 343.45 417.017 342.763 416.306 342.697C415.596 342.626 414.966 343.2 414.905 343.975L413.997 355.119C413.953 355.667 414.201 356.168 414.602 356.441ZM390.132 339.2C390.742 339.2 391.282 338.731 391.384 338.072L393.032 327.504C393.145 326.77 392.675 326.076 391.984 325.953C391.288 325.833 390.637 326.33 390.521 327.064L388.877 337.631C388.763 338.366 389.231 339.06 389.924 339.182C389.995 339.194 390.064 339.2 390.132 339.2ZM348.495 343.389C348.715 343.389 348.938 343.33 349.14 343.201C349.744 342.824 349.945 341.999 349.586 341.361L344.45 332.18C344.093 331.542 343.313 331.329 342.709 331.708C342.105 332.087 341.904 332.911 342.263 333.551L347.401 342.73C347.636 343.154 348.059 343.389 348.495 343.389ZM399.226 301.501C399.465 301.501 399.709 301.434 399.923 301.289L408.516 295.567C409.113 295.168 409.286 294.346 408.898 293.731C408.511 293.115 407.713 292.938 407.115 293.335L398.525 299.058C397.926 299.459 397.755 300.279 398.141 300.895C398.388 301.287 398.803 301.501 399.226 301.501ZM361.081 389.466C361.272 389.466 361.465 389.419 361.646 389.316C362.261 388.972 362.507 388.137 362.196 387.458L357.716 377.659C357.403 376.977 356.651 376.703 356.034 377.048C355.419 377.394 355.173 378.227 355.484 378.907L359.965 388.707C360.184 389.188 360.625 389.466 361.081 389.466ZM381.295 308.482C381.721 308.482 382.138 308.258 382.381 307.849C382.755 307.218 382.575 306.385 381.974 305.989L373.365 300.31C372.767 299.916 371.976 300.105 371.602 300.738C371.226 301.369 371.408 302.203 372.006 302.598L380.618 308.277C380.827 308.415 381.064 308.482 381.295 308.482ZM402.127 267.924C402.109 268.189 402.158 268.447 402.266 268.664C402.451 269.065 402.816 269.351 403.247 269.383C403.911 269.439 404.485 268.868 404.532 268.115L404.916 261.872C404.157 261.357 403.384 260.835 402.594 260.311L402.127 267.924ZM413.409 328.03C413.835 328.03 414.252 327.806 414.495 327.397C414.87 326.766 414.689 325.932 414.089 325.537L405.479 319.858C404.881 319.464 404.091 319.653 403.716 320.285C403.34 320.916 403.522 321.749 404.12 322.145L412.732 327.825C412.941 327.963 413.178 328.03 413.41 328.03H413.409ZM344.959 280.557C345.207 280.557 345.46 280.487 345.682 280.337C346.288 279.929 346.456 279.098 346.057 278.481L341.008 270.688C340.61 270.071 339.793 269.898 339.186 270.307C338.578 270.713 338.412 271.544 338.811 272.161L343.859 279.955C344.112 280.345 344.531 280.557 344.959 280.557ZM339.898 418.787C340.241 418.787 340.582 418.648 340.838 418.371L348.005 410.61C348.504 410.07 348.486 409.211 347.967 408.692C347.448 408.175 346.622 408.192 346.124 408.733L338.958 416.494C338.457 417.034 338.477 417.891 338.995 418.41C339.249 418.664 339.572 418.787 339.898 418.787ZM366.426 417.391C366.77 417.391 367.111 417.252 367.367 416.975L374.534 409.212C375.033 408.673 375.014 407.814 374.496 407.295C373.976 406.779 373.151 406.795 372.653 407.337L365.484 415.097C364.987 415.638 365.005 416.495 365.524 417.014C365.777 417.267 366.101 417.391 366.427 417.391H366.426ZM384.59 470.954C384.707 470.616 384.701 470.229 384.545 469.88L380.134 460.058C379.826 459.376 379.058 459.086 378.42 459.414C377.778 459.742 377.51 460.56 377.815 461.245L382.226 471.065C382.533 471.751 383.302 472.037 383.942 471.708C384.253 471.551 384.476 471.275 384.59 470.954ZM310.588 503.069C310.705 502.731 310.699 502.344 310.543 501.993L306.132 492.172C305.824 491.488 305.056 491.201 304.418 491.528C303.776 491.856 303.508 492.674 303.813 493.359L308.224 503.179C308.531 503.864 309.3 504.151 309.94 503.823C310.251 503.665 310.474 503.389 310.588 503.068V503.069ZM342.085 519.861C342.945 519.92 343.806 519.975 344.66 520.016L345.559 513.913C345.669 513.168 345.189 512.468 344.488 512.353C343.788 512.238 343.131 512.747 343.022 513.493L342.085 519.86V519.861ZM332.257 500.923C332.537 500.721 332.739 500.405 332.796 500.026L334.389 489.46C334.501 488.724 334.016 488.035 333.31 487.918C332.6 487.804 331.938 488.306 331.827 489.043L330.232 499.61C330.121 500.345 330.606 501.033 331.314 501.15C331.658 501.207 331.993 501.116 332.257 500.923ZM394.556 411.108C394.775 411.108 394.997 411.046 395.2 410.917C395.815 410.526 396.022 409.658 395.667 408.981L390.559 399.247C390.203 398.569 389.418 398.341 388.803 398.733C388.19 399.122 387.979 399.99 388.334 400.667L393.444 410.402C393.682 410.856 394.114 411.108 394.556 411.108ZM378.926 387.371C379.376 387.371 379.808 387.098 380.027 386.62L384.532 376.83C384.846 376.149 384.609 375.312 383.999 374.96C383.394 374.607 382.646 374.877 382.331 375.558L377.827 385.347C377.514 386.028 377.753 386.865 378.359 387.216C378.541 387.323 378.736 387.371 378.926 387.371ZM419.894 385.5C420.032 385.665 420.211 385.792 420.397 385.873C420.849 386.059 421.381 385.993 421.777 385.658L427.257 381.039C427.229 379.892 427.202 378.745 427.169 377.597L420.053 383.6C419.488 384.079 419.415 384.926 419.894 385.5ZM379.624 284.048C380.074 284.048 380.506 283.774 380.726 283.297L385.23 273.506C385.544 272.825 385.305 271.987 384.696 271.637C384.092 271.285 383.343 271.552 383.03 272.233L378.526 282.024C378.211 282.704 378.45 283.542 379.058 283.893C379.239 283.998 379.433 284.048 379.624 284.048ZM349.265 319.652C349.34 319.652 349.417 319.644 349.493 319.628C350.142 319.487 350.565 318.775 350.44 318.041L348.642 307.486C348.518 306.751 347.889 306.272 347.242 306.413C346.593 306.554 346.171 307.267 346.295 307.999L348.094 318.554C348.203 319.203 348.705 319.652 349.266 319.652H349.265ZM366.02 328.728C366.097 328.728 366.172 328.72 366.249 328.703C366.897 328.562 367.321 327.853 367.195 327.117L365.397 316.562C365.273 315.827 364.644 315.349 363.998 315.487C363.349 315.631 362.926 316.342 363.05 317.074L364.851 327.632C364.96 328.279 365.46 328.728 366.02 328.728ZM353.896 293.822C354.338 293.822 354.774 293.597 355.028 293.188L360.725 284.049C361.122 283.413 360.937 282.569 360.312 282.165C359.685 281.762 358.859 281.952 358.463 282.585L352.766 291.726C352.369 292.361 352.553 293.206 353.178 293.609C353.401 293.754 353.651 293.822 353.896 293.822ZM403.869 389.032C404.222 388.632 404.328 388.029 404.093 387.504L399.689 377.679C399.382 376.998 398.613 376.707 397.97 377.033C397.328 377.359 397.056 378.177 397.364 378.861L401.765 388.685C402.074 389.368 402.842 389.659 403.484 389.331C403.634 389.257 403.764 389.153 403.869 389.032ZM371.293 360.144C371.806 360.144 372.293 359.803 372.49 359.245L376.204 348.807C376.463 348.081 376.138 347.26 375.476 346.976C374.815 346.694 374.071 347.051 373.813 347.777L370.099 358.216C369.841 358.943 370.164 359.761 370.825 360.045C370.98 360.112 371.137 360.144 371.293 360.144ZM330.365 422.976C330.552 422.976 330.745 422.929 330.928 422.826C331.543 422.482 331.789 421.649 331.478 420.967L326.998 411.168C326.687 410.486 325.933 410.213 325.316 410.56C324.701 410.904 324.455 411.736 324.766 412.418L329.246 422.218C329.466 422.7 329.907 422.976 330.364 422.976H330.365ZM397.935 493.538C397.939 493.745 397.985 493.953 398.084 494.149C398.416 494.816 399.209 495.076 399.852 494.731L409.094 489.769C409.737 489.425 409.989 488.605 409.656 487.938C409.321 487.272 408.53 487.011 407.887 487.356L398.644 492.318C398.188 492.56 397.93 493.043 397.935 493.538ZM423.068 499.765C423.068 499.984 423.109 500.2 423.204 500.404C423.515 501.099 424.263 501.367 424.87 501.007L428.653 498.761C428.653 497.737 428.653 496.683 428.647 495.582L423.735 498.495C423.307 498.747 423.062 499.253 423.068 499.765ZM384.104 511.513L387.389 518.62C387.985 518.558 388.58 518.489 389.182 518.422L390.256 518.297L386.572 510.342C386.255 509.651 385.443 509.348 384.759 509.677C384.076 510 383.78 510.821 384.104 511.513ZM313.338 397.843C313.95 397.843 314.487 397.374 314.59 396.715L316.237 386.147C316.35 385.412 315.883 384.719 315.19 384.596C314.493 384.476 313.842 384.973 313.727 385.707L312.083 396.274C311.968 397.009 312.436 397.703 313.13 397.826C313.2 397.837 313.271 397.843 313.338 397.843ZM312.192 318.256C312.412 318.256 312.634 318.195 312.837 318.068C313.443 317.691 313.642 316.866 313.283 316.226L308.147 307.047C307.789 306.409 307.01 306.197 306.405 306.576C305.801 306.954 305.602 307.778 305.959 308.418L311.097 317.595C311.333 318.021 311.757 318.256 312.192 318.256ZM328.714 356.653C328.954 356.653 329.197 356.585 329.414 356.439L338.005 350.718C338.603 350.32 338.774 349.498 338.388 348.883C338 348.266 337.201 348.091 336.604 348.489L328.014 354.21C327.416 354.61 327.243 355.43 327.631 356.047C327.878 356.437 328.292 356.653 328.715 356.653H328.714ZM419.724 420.881C419.914 420.881 420.107 420.835 420.288 420.732C420.903 420.388 421.151 419.555 420.839 418.873L416.358 409.076C416.047 408.392 415.295 408.118 414.678 408.465C414.061 408.81 413.815 409.642 414.128 410.324L418.608 420.124C418.826 420.606 419.267 420.881 419.724 420.881ZM314.274 371.314C314.7 371.314 315.117 371.09 315.361 370.681C315.736 370.048 315.554 369.217 314.955 368.821L306.344 363.142C305.745 362.748 304.955 362.937 304.58 363.569C304.207 364.201 304.386 365.033 304.986 365.429L313.596 371.107C313.808 371.248 314.042 371.314 314.274 371.314ZM334.9 385.609C335.235 385.919 335.716 386.055 336.188 385.926C336.917 385.727 337.347 384.973 337.15 384.24L334.301 373.724C334.101 372.994 333.352 372.561 332.623 372.758C331.891 372.958 331.463 373.713 331.661 374.445L334.508 384.961C334.579 385.219 334.718 385.441 334.9 385.609ZM298.801 274.14L301.179 277.837C301.444 278.24 301.878 278.463 302.325 278.463C302.582 278.463 302.839 278.393 303.07 278.233C303.701 277.81 303.878 276.94 303.464 276.294L300.819 272.179C300.061 272.847 299.384 273.499 298.801 274.14ZM289.027 297.678L291.478 301.573C291.736 301.98 292.157 302.199 292.59 302.199C292.839 302.199 293.09 302.122 293.321 301.973C293.932 301.545 294.095 300.684 293.695 300.046L290.217 294.52C289.828 295.537 289.435 296.598 289.027 297.678ZM399.936 455.09C400.281 455.09 400.622 454.951 400.878 454.674L408.043 446.912C408.543 446.374 408.525 445.514 408.007 444.995C407.488 444.478 406.661 444.495 406.162 445.036L398.996 452.795C398.498 453.337 398.515 454.194 399.035 454.713C399.287 454.965 399.613 455.09 399.936 455.09ZM353.162 482.317C353.505 482.317 353.846 482.176 354.103 481.9L361.269 474.14C361.768 473.6 361.75 472.742 361.231 472.222C360.713 471.704 359.887 471.721 359.387 472.264L352.221 480.023C351.723 480.564 351.74 481.42 352.26 481.938C352.513 482.192 352.836 482.317 353.162 482.317ZM340.376 471.348C340.607 471.074 340.727 470.713 340.677 470.334L339.289 459.756C339.192 459.02 338.492 458.499 337.725 458.591C336.958 458.684 336.414 459.354 336.511 460.091L337.899 470.671C337.995 471.407 338.694 471.928 339.462 471.834C339.836 471.79 340.157 471.608 340.376 471.348ZM367.126 501.865C367.467 501.865 367.81 501.724 368.066 501.448L375.231 493.686C375.731 493.147 375.713 492.289 375.195 491.771C374.676 491.251 373.849 491.269 373.35 491.811L366.183 499.57C365.685 500.111 365.703 500.967 366.223 501.486C366.475 501.74 366.8 501.865 367.126 501.865ZM291.124 472.543C291.118 473.48 291.124 474.402 291.124 475.311L298.845 476.028C299.531 476.098 300.135 475.531 300.191 474.772C300.253 474.012 299.74 473.35 299.055 473.282L291.124 472.543ZM383.881 438.335C384.224 438.335 384.565 438.194 384.821 437.919L391.986 430.156C392.486 429.619 392.468 428.758 391.95 428.24C391.43 427.723 390.605 427.739 390.107 428.281L382.939 436.04C382.44 436.581 382.459 437.439 382.978 437.957C383.229 438.21 383.555 438.335 383.881 438.335ZM350.465 434.914C350.487 435.273 350.644 435.626 350.925 435.875L358.803 442.898C359.352 443.388 360.169 443.312 360.63 442.731C361.091 442.149 361.02 441.282 360.471 440.794L352.593 433.771C352.045 433.281 351.226 433.357 350.765 433.939C350.542 434.223 350.444 434.573 350.466 434.914H350.465ZM312.876 473.939C313.094 473.939 313.316 473.878 313.519 473.747C314.132 473.356 314.342 472.49 313.987 471.812L308.877 462.08C308.521 461.402 307.738 461.172 307.123 461.563C306.507 461.956 306.297 462.823 306.653 463.5L311.763 473.233C312 473.686 312.433 473.939 312.875 473.939H312.876ZM304.226 446.014C304.676 446.014 305.107 445.741 305.328 445.263L309.832 435.473C310.146 434.792 309.908 433.955 309.301 433.603C308.694 433.25 307.946 433.52 307.633 434.199L303.128 443.989C302.814 444.671 303.053 445.508 303.66 445.859C303.841 445.965 304.036 446.014 304.226 446.014ZM318.189 335.011C318.637 335.011 319.07 334.738 319.291 334.26L323.795 324.47C324.109 323.787 323.87 322.95 323.262 322.599C322.657 322.248 321.909 322.515 321.596 323.196L317.09 332.986C316.777 333.668 317.015 334.505 317.623 334.854C317.803 334.961 317.998 335.011 318.189 335.011ZM312.962 294.52C313.037 294.52 313.114 294.512 313.191 294.495C313.839 294.354 314.263 293.643 314.137 292.908L312.339 282.353C312.215 281.617 311.586 281.139 310.939 281.28C310.291 281.422 309.868 282.132 309.992 282.867L311.791 293.421C311.9 294.07 312.401 294.52 312.963 294.52H312.962ZM289.226 331.521C289.301 331.521 289.378 331.513 289.454 331.496C290.103 331.355 290.526 330.644 290.401 329.909L288.603 319.354C288.478 318.619 287.85 318.14 287.203 318.281C286.554 318.424 286.132 319.135 286.255 319.867L288.054 330.422C288.164 331.071 288.665 331.521 289.227 331.521H289.226ZM329.718 303.595C329.793 303.595 329.87 303.587 329.946 303.571C330.593 303.43 331.017 302.718 330.893 301.984L329.094 291.429C328.969 290.694 328.342 290.216 327.695 290.355C327.046 290.497 326.623 291.21 326.748 291.941L328.546 302.497C328.656 303.146 329.156 303.595 329.718 303.595ZM322.173 266.557C322.433 266.621 322.684 266.599 322.915 266.516C323.335 266.363 323.672 265.991 323.779 265.508L326.028 255.424C324.988 256.012 323.931 256.606 322.883 257.2L321.178 264.86C321.005 265.621 321.451 266.376 322.174 266.557H322.173ZM292.461 348.276C292.903 348.276 293.336 348.051 293.593 347.644L299.29 338.503C299.686 337.866 299.501 337.024 298.876 336.621C298.25 336.215 297.424 336.405 297.028 337.04L291.331 346.181C290.933 346.817 291.118 347.661 291.743 348.063C291.966 348.208 292.215 348.276 292.46 348.276H292.461ZM329.17 446.978C329.523 446.577 329.627 445.974 329.392 445.448L324.99 435.624C324.682 434.943 323.915 434.652 323.271 434.978C322.628 435.304 322.356 436.122 322.663 436.806L327.066 446.629C327.375 447.313 328.143 447.603 328.785 447.276C328.935 447.202 329.064 447.098 329.17 446.978ZM419.967 466.182L428.653 467.656C428.647 466.743 428.639 465.825 428.627 464.889L420.386 463.484C419.676 463.369 419.008 463.87 418.897 464.613C418.78 465.357 419.258 466.06 419.968 466.182H419.967ZM422.079 440.898L427.955 441.825C427.942 440.955 427.935 440.085 427.921 439.21L422.506 438.351C421.784 438.237 421.111 438.716 420.991 439.42C420.873 440.125 421.36 440.783 422.079 440.897V440.898ZM295.895 418.787C296.409 418.787 296.894 418.446 297.091 417.888L300.806 407.451C301.065 406.725 300.74 405.905 300.08 405.62C299.418 405.337 298.673 405.694 298.414 406.421L294.701 416.858C294.442 417.585 294.767 418.404 295.429 418.688C295.582 418.754 295.74 418.787 295.895 418.787ZM291.121 386.673C293.608 376.635 296.734 365.48 299.832 355.869C299.838 355.848 299.844 355.834 299.852 355.813C300.808 352.843 301.762 350.023 302.697 347.438C302.71 347.387 302.724 347.341 302.747 347.3C303.034 346.483 303.33 345.693 303.617 344.925C303.658 344.789 303.687 344.657 303.687 344.526V344.52C303.687 344.06 303.392 343.63 302.922 343.458C302.311 343.243 301.636 343.546 301.418 344.143C298.244 352.596 294.493 364.767 291.276 376.703C291.22 380.011 291.17 383.337 291.121 386.673Z" fill="#0D479A"/>
<path fill-rule="evenodd" clip-rule="evenodd" d="M328.169 193.291C328.169 193.291 319.224 183.374 322.6 171.84C325.976 160.306 335.21 160.432 335.21 160.432C335.21 160.432 340.598 148.162 349.774 147.759C358.951 147.353 367.6 130.963 375.95 135.413C384.301 139.867 375.045 149.579 375.045 149.579C375.045 149.579 389.352 134.403 394.069 138.854C398.785 143.305 387.52 155.245 387.52 155.245C387.52 155.245 399.54 146.746 403.489 149.984C407.436 153.222 394.069 167.186 394.069 167.186C394.069 167.186 402.718 182.869 394.012 189.901L328.169 193.291Z" fill="#111212"/>
<path fill-rule="evenodd" clip-rule="evenodd" d="M391.013 196.433C391.013 196.433 396.611 188.761 400.773 195.105C404.938 201.451 399.053 220.192 388.859 215.618L391.013 196.433Z" fill="#CFCFCF"/>
<path fill-rule="evenodd" clip-rule="evenodd" d="M391.122 210.046C391.501 210.046 391.85 209.791 391.956 209.402C393.546 203.64 399.411 201.303 399.471 201.28C399.918 201.106 400.142 200.597 399.973 200.143C399.802 199.688 399.302 199.458 398.856 199.631C398.582 199.735 392.117 202.289 390.288 208.925C390.158 209.395 390.429 209.881 390.889 210.013C390.965 210.035 391.044 210.046 391.122 210.046Z" fill="#136AE8"/>
<path fill-rule="evenodd" clip-rule="evenodd" d="M397.019 207.253C397.188 207.253 397.362 207.207 397.515 207.109C397.941 206.84 398.063 206.284 397.79 205.866C397.743 205.795 396.644 204.151 394.342 203.144C393.881 202.939 393.336 203.144 393.129 203.597C392.922 204.052 393.129 204.582 393.591 204.785C395.37 205.566 396.238 206.828 396.244 206.839C396.422 207.108 396.716 207.253 397.019 207.253Z" fill="#136AE8"/>
<path fill-rule="evenodd" clip-rule="evenodd" d="M331.555 196.433C331.555 196.433 325.955 188.761 321.793 195.105C317.629 201.451 323.515 220.192 333.707 215.618L331.554 196.433H331.555Z" fill="#CFCFCF"/>
<path fill-rule="evenodd" clip-rule="evenodd" d="M331.444 210.046C331.066 210.046 330.717 209.791 330.611 209.402C329.021 203.64 323.153 201.303 323.095 201.28C322.648 201.106 322.424 200.597 322.594 200.143C322.763 199.688 323.264 199.458 323.709 199.631C323.984 199.735 330.449 202.289 332.278 208.925C332.408 209.395 332.139 209.881 331.679 210.013C331.601 210.035 331.522 210.046 331.444 210.046Z" fill="#136AE8"/>
<path fill-rule="evenodd" clip-rule="evenodd" d="M325.549 207.253C325.38 207.253 325.206 207.207 325.053 207.109C324.626 206.84 324.503 206.284 324.778 205.866C324.824 205.795 325.923 204.151 328.225 203.144C328.686 202.939 329.231 203.144 329.438 203.597C329.645 204.052 329.438 204.582 328.976 204.785C327.195 205.566 326.331 206.828 326.322 206.839C326.146 207.108 325.852 207.253 325.549 207.253Z" fill="#136AE8"/>
<path fill-rule="evenodd" clip-rule="evenodd" d="M346.972 231.688V250.205C346.972 250.205 352.525 259.635 360.031 260.277C367.532 260.929 374.199 252.159 374.199 252.159V232.989L346.972 231.688Z" fill="white"/>
<path fill-rule="evenodd" clip-rule="evenodd" d="M346.972 231.688V239.851C352.01 245.376 360.957 246.757 374.199 244.826V232.98L346.972 231.688Z" fill="#CFCFCF"/>
<path fill-rule="evenodd" clip-rule="evenodd" d="M327.447 183.861C327.789 191.095 328.478 200.144 329.865 207.371V207.392C329.865 207.412 329.871 207.434 329.879 207.462C329.879 207.468 329.885 207.468 329.885 207.476C330.227 209.24 330.609 210.902 331.028 212.397C331.279 213.271 331.551 214.19 331.858 215.128C336.283 228.971 346.532 249.007 372.295 239.841C383.144 235.984 388.795 224.808 391.672 212.688C391.84 211.965 392 211.249 392.139 210.561C392.236 210.102 392.328 209.658 392.411 209.221L392.535 208.574C392.557 208.462 392.571 208.385 392.577 208.338C392.586 208.309 392.586 208.295 392.586 208.295C394.286 198.976 394.543 189.553 394.417 182.819C394.285 175.952 390.521 169.67 384.529 166.285C368.301 157.104 351.165 160.531 339.884 164.853C332.053 167.849 327.042 175.515 327.447 183.861Z" fill="white"/>
<path fill-rule="evenodd" clip-rule="evenodd" d="M361.938 218.481C380.153 216.018 377.289 225.848 377.289 225.848C375.267 227.696 373.418 229.045 372.176 229.744C368.2 231.964 364.286 232.808 361.45 232.671C358.654 232.553 357.889 233.127 350.819 229.295C349.57 228.622 348.308 227.627 347.071 226.445H347.065V226.436C346.762 224.514 343.675 215.333 361.938 218.481ZM330.216 207.531C330.216 207.531 330.216 207.537 330.222 207.551C330.222 207.571 330.23 207.593 330.237 207.621C330.237 207.627 330.243 207.627 330.243 207.633C330.41 208.236 331.307 211.536 332.197 215.251C336.58 229.031 346.733 248.976 372.251 239.851C382.997 236.013 388.595 224.887 391.446 212.823C391.61 212.103 391.77 211.39 391.909 210.705C392.004 210.25 392.094 209.806 392.178 209.371L392.302 208.727C392.322 208.616 392.337 208.539 392.342 208.492C392.35 208.464 392.35 208.45 392.35 208.45L388.595 207.689C387.877 211.252 386.29 214.608 384.343 217.588C381.169 209.966 365.059 215.03 365.059 215.03L364.983 215.057C364.003 215.361 362.996 215.521 361.98 215.521C360.939 215.521 359.903 215.355 358.894 215.03C358.894 215.03 342.979 209.744 339.678 217.015C336.38 211.895 334.142 207.253 334.142 207.253L330.222 207.531H330.216ZM344.877 197.48C344.877 199.406 345.972 200.97 347.321 200.97C348.669 200.97 349.764 199.406 349.764 197.48C349.764 195.553 348.669 193.989 347.321 193.989C345.972 193.989 344.877 195.553 344.877 197.48ZM373.5 197.48C373.5 199.406 374.595 200.97 375.946 200.97C377.294 200.97 378.387 199.406 378.387 197.48C378.387 195.553 377.294 193.989 375.946 193.989C374.595 193.989 373.5 195.553 373.5 197.48ZM339.043 185.283C339.043 185.283 348.651 181.719 356.047 184.718L355.308 188.58C355.308 188.58 344.45 187.719 338.98 189.8C338.491 188.313 338.419 186.809 339.043 185.283ZM384.22 185.283C384.22 185.283 374.615 181.718 367.217 184.718L367.956 188.58C367.956 188.58 378.813 187.719 384.283 189.8C384.775 188.314 384.845 186.811 384.221 185.283" fill="#111212"/>
<path fill-rule="evenodd" clip-rule="evenodd" d="M361.163 213.536C359.683 213.536 358.216 212.95 357.987 212.856C357.54 212.669 357.325 212.15 357.509 211.694C357.69 211.238 358.203 211.019 358.649 211.204C359.443 211.532 361.344 212.044 362.167 211.542C362.328 211.446 362.546 211.254 362.599 210.713C362.918 207.596 362.078 197.154 362.07 197.049C362.03 196.557 362.39 196.127 362.872 196.087C363.357 196.045 363.778 196.411 363.818 196.903C363.852 197.338 364.679 207.616 364.345 210.896C364.219 212.129 363.582 212.763 363.069 213.075C362.507 213.416 361.834 213.536 361.163 213.536Z" fill="#CFCFCF"/>
<path d="M351.768 220.32H371.486C371.11 221.936 370.399 223.981 369.049 225.687C367.544 227.59 365.23 229.094 361.608 229.094C357.962 229.094 355.676 227.713 354.201 225.888C352.854 224.221 352.156 222.149 351.768 220.32Z" fill="white" stroke="#D6DADF"/>
<path fill-rule="evenodd" clip-rule="evenodd" d="M327.446 183.691C327.792 190.873 328.484 199.856 329.867 207.038L333.829 206.76C333.829 206.76 332.868 200.695 332.426 196.744C331.983 192.793 331.23 185.409 334.635 184.486C338.03 183.573 336.038 175.148 340.764 171.494C345.49 167.834 356.061 166.831 363.032 171.078C370 175.32 377.854 170.757 381.065 171.494C384.282 172.223 388.645 176.614 387.466 180.714C386.278 184.806 389.825 187.298 390.685 191.541C391.545 195.781 388.796 207.196 388.796 207.196L392.583 207.952C394.285 198.696 394.54 189.345 394.417 182.663C394.285 175.84 390.524 169.606 384.531 166.244C368.295 157.13 351.165 160.529 339.886 164.822C332.058 167.799 327.046 175.411 327.446 183.691" fill="#111212"/>
<path fill-rule="evenodd" clip-rule="evenodd" d="M489.834 382.855C487.435 404.74 473.149 453.631 463.257 463.208C450.379 475.677 408 501.925 385.925 515.383C381.941 517.812 400.649 533.979 400.649 533.979C400.649 533.979 459.26 508.91 481.644 489.147C487.977 483.556 500.834 465.92 515.349 432.329C519.749 422.144 530.413 401.602 529.862 388.211C529.224 372.796 504.739 375.334 489.834 382.855Z" fill="#136AE8"/>
<path fill-rule="evenodd" clip-rule="evenodd" d="M444.458 508.846C444.458 508.846 428.473 514.926 422.808 521.615C417.143 528.301 409.657 533.975 411.478 536.609C413.299 539.243 421.595 531.544 421.595 531.544C421.595 531.544 423.867 540.009 431.913 540.922C439.958 541.835 455.182 526.071 455.182 526.071L444.458 508.846Z" fill="white"/>
<path fill-rule="evenodd" clip-rule="evenodd" d="M601.269 444.087C601.274 445.473 601.261 447.109 601.236 448.967C601.214 450.814 601.173 452.876 601.116 455.131C601.072 456.678 601.024 458.312 600.969 460.027C600.914 461.47 600.858 462.968 600.798 464.522C600.73 466.108 600.656 467.744 600.577 469.429C599.469 492.341 596.789 523.977 590.895 549.338H467.05C471.18 530.906 477.5 501.832 482.513 464.111C482.724 462.524 482.931 460.924 483.139 459.304C483.343 457.686 483.544 456.052 483.747 454.406C483.855 453.53 483.96 452.647 484.064 451.762C484.15 451.033 484.233 450.307 484.314 449.587C484.545 447.553 484.753 445.552 484.94 443.592C485.096 441.952 485.242 440.343 485.38 438.753C487.503 413.392 486.752 394.387 489.803 383.004C493.358 369.75 534.803 354.559 534.803 354.559L560.767 355.918C560.767 355.918 585.525 364.013 598.759 375.646C611.998 387.284 600.927 422.006 601.249 441.724C601.261 442.402 601.266 443.193 601.269 444.086" fill="#5997F2"/>
<path fill-rule="evenodd" clip-rule="evenodd" d="M601.756 449.032C590.471 450.371 578.698 450.901 567.146 450.901C529.314 450.901 493.799 445.243 485.201 443.77C485.357 442.165 485.503 440.589 485.642 439.033C495.634 440.762 553.457 450.118 601.789 444.255C601.792 445.611 601.781 447.214 601.756 449.032V449.032ZM601.091 455.165C601.047 456.743 600.998 458.411 600.942 460.16C589.771 461.534 578.13 462.071 566.704 462.071C526.852 462.071 489.581 455.49 483.805 454.423C483.915 453.53 484.019 452.627 484.124 451.725C484.208 450.98 484.294 450.239 484.375 449.505C490.11 450.575 550.734 461.516 601.091 455.165Z" fill="#D6D5F8"/>
<path fill-rule="evenodd" clip-rule="evenodd" d="M601.092 464.361C601.023 465.907 600.95 467.5 600.869 469.142C589.199 470.584 576.981 471.147 564.998 471.147C526.257 471.147 489.95 465.262 482.409 463.96C482.619 462.417 482.83 460.856 483.037 459.279C492.005 460.832 551.805 470.632 601.092 464.361Z" fill="#D6D5F8"/>
<path fill-rule="evenodd" clip-rule="evenodd" d="M542.461 379.692C555.504 379.692 567.537 365.771 568.057 365.16C568.387 364.773 568.344 364.189 567.958 363.857C567.573 363.525 566.991 363.571 566.659 363.958C566.534 364.106 553.933 378.683 541.337 377.806C540.834 377.767 540.392 378.153 540.355 378.662C540.321 379.171 540.704 379.612 541.21 379.65C541.628 379.678 542.045 379.692 542.461 379.692ZM554.099 533.979C554.559 533.979 554.954 533.635 555.008 533.169C555.066 532.667 554.705 532.214 554.201 532.156C520.61 528.301 506.697 470.344 506.559 469.759C506.445 469.268 505.951 468.963 505.458 469.077C504.966 469.19 504.657 469.685 504.774 470.175C505.342 472.614 519.128 529.974 553.993 533.973C554.027 533.977 554.063 533.979 554.099 533.979Z" fill="#136AE8"/>
<path fill-rule="evenodd" clip-rule="evenodd" d="M540.153 516.525C540.453 516.525 540.75 516.369 540.918 516.087C541.178 515.653 541.049 515.086 540.626 514.82C523.125 503.757 520.524 487.454 520.498 487.289C520.425 486.789 519.97 486.437 519.475 486.517C518.986 486.594 518.647 487.064 518.723 487.564C518.823 488.265 521.437 504.856 539.681 516.388C539.829 516.481 539.992 516.525 540.153 516.525Z" fill="#136AE8"/>
<path fill-rule="evenodd" clip-rule="evenodd" d="M514.523 294.17C514.523 314.413 530.932 330.823 551.175 330.823C571.416 330.823 587.827 314.413 587.827 294.171C587.827 273.928 571.416 257.519 551.175 257.519C530.932 257.519 514.523 273.928 514.523 294.171" fill="#111212"/>
<path fill-rule="evenodd" clip-rule="evenodd" d="M520.633 304.643C520.633 304.643 514.741 296.969 510.358 303.316C505.977 309.662 512.172 328.402 522.9 323.828L520.633 304.643Z" fill="#CFCFCF"/>
<path fill-rule="evenodd" clip-rule="evenodd" d="M519.938 318.256C519.559 318.256 519.212 318 519.104 317.613C517.515 311.849 511.651 309.514 511.59 309.491C511.145 309.317 510.918 308.808 511.089 308.354C511.258 307.898 511.757 307.67 512.204 307.841C512.479 307.946 518.944 310.498 520.774 317.136C520.902 317.605 520.633 318.091 520.171 318.223C520.096 318.245 520.016 318.256 519.938 318.256Z" fill="#136AE8"/>
<path fill-rule="evenodd" clip-rule="evenodd" d="M514.044 315.464C513.874 315.464 513.701 315.417 513.548 315.319C513.12 315.049 512.999 314.495 513.273 314.076C513.319 314.007 514.419 312.363 516.719 311.354C517.18 311.151 517.726 311.354 517.932 311.807C518.14 312.262 517.932 312.794 517.47 312.997C515.69 313.776 514.825 315.039 514.817 315.049C514.641 315.316 514.345 315.464 514.044 315.464Z" fill="#136AE8"/>
<path fill-rule="evenodd" clip-rule="evenodd" d="M561.996 339.898V358.802C561.996 358.802 554.341 367.133 546.833 367.788C539.332 368.454 534.769 359.406 534.769 359.406V341.227L561.996 339.898Z" fill="white"/>
<path fill-rule="evenodd" clip-rule="evenodd" d="M561.996 339.898V348.061C556.957 353.587 548.011 354.968 534.769 353.035V341.192L561.996 339.898Z" fill="#CFCFCF"/>
<path fill-rule="evenodd" clip-rule="evenodd" d="M582.219 291.569C581.868 298.865 581.17 307.989 579.772 315.284C579.422 317.104 579.029 318.818 578.591 320.351C574.622 334.185 564.693 357.909 536.903 348.028C524.628 343.666 518.94 330.055 516.405 316.214C514.684 306.811 514.425 297.312 514.55 290.527C514.684 283.595 518.484 277.263 524.541 273.848C540.942 264.59 558.253 268.041 569.649 272.402C577.56 275.426 582.622 283.158 582.218 291.569" fill="white"/>
<path fill-rule="evenodd" clip-rule="evenodd" d="M570.709 258.86C586.194 259.777 588.149 268.559 589.672 275.586C591.197 282.612 585.235 287.538 585.235 287.538H581.981C582.203 288.884 582.287 290.266 582.219 291.667C581.945 297.432 581.441 304.325 580.562 310.577H572.582L572.555 309.567C572.481 307.574 572.511 306.668 572.712 304.815C573.163 300.784 576.315 294.586 573.659 292.2C571.367 290.142 570.256 288.73 569.686 287.538H521.388C521.411 287.905 521.473 288.272 521.577 288.636C522.771 292.805 519.188 295.349 518.315 299.672C517.83 302.117 518.498 306.884 519.175 310.577H515.515C514.592 303.147 514.449 296.025 514.551 290.62C514.57 289.576 514.672 288.547 514.851 287.538H514.584C514.584 287.538 504.203 284.665 505.572 274.561C506.738 265.963 516.809 271.538 515.924 264.817C515.038 258.097 513.07 251.989 521.741 250.308C529.324 248.837 529.452 254.049 539.409 246.49C551.172 237.557 560.209 258.24 570.71 258.86H570.709Z" fill="#111212"/>
<path fill-rule="evenodd" clip-rule="evenodd" d="M550.358 304.765C550.358 303.482 551.39 302.447 552.653 302.447H566.45C567.72 302.447 568.746 303.482 568.746 304.765V306.546C568.746 309.12 567.752 311.582 566.018 313.285C564.287 314.983 562.328 315.866 560.194 315.915H559.864C557.347 315.915 554.975 314.928 553.179 313.125C551.363 311.301 550.358 308.869 550.358 306.271V304.765ZM548.731 304.765V306.271C548.731 309.307 549.903 312.156 552.034 314.292C554.135 316.401 556.913 317.558 559.864 317.558H560.229C562.79 317.503 565.117 316.462 567.156 314.463C569.202 312.445 570.373 309.563 570.373 306.546V304.765C570.373 304.272 570.282 303.8 570.113 303.362C569.917 302.83 569.613 302.36 569.223 301.964C568.514 301.245 567.537 300.803 566.45 300.803H552.653C551.092 300.803 549.744 301.723 549.116 303.06C548.883 303.547 548.746 304.089 548.735 304.66C548.731 304.694 548.731 304.731 548.731 304.765ZM523.132 304.765C523.132 303.482 524.163 302.447 525.426 302.447H539.225C540.489 302.447 541.519 303.482 541.519 304.765V306.546C541.519 309.12 540.52 311.582 538.791 313.285C537.061 314.983 535.104 315.866 532.97 315.915H532.635C530.119 315.915 527.747 314.928 525.959 313.125C524.136 311.301 523.132 308.869 523.132 306.271V304.765ZM521.504 304.765V306.271C521.504 309.307 522.682 312.156 524.808 314.292C526.907 316.401 529.685 317.558 532.635 317.558H533.005C535.56 317.503 537.891 316.462 539.925 314.463C541.97 312.445 543.146 309.563 543.146 306.546V304.765C543.146 304.736 543.146 304.716 543.142 304.688C543.135 304.15 543.016 303.635 542.809 303.169C542.204 301.773 540.826 300.803 539.225 300.803H525.426C524.216 300.803 523.132 301.363 522.41 302.233C522.063 302.661 521.797 303.158 521.657 303.702C521.552 304.041 521.504 304.399 521.504 304.765Z" fill="#111212"/>
<path fill-rule="evenodd" clip-rule="evenodd" d="M580.148 300.126C575.585 299.917 572.324 301.312 571.036 301.993C570.678 302.179 569.717 302.842 569.676 302.867L570.429 304.293C570.441 304.289 571.491 303.623 571.904 303.421C573.168 302.795 575.974 301.541 580.148 301.802V300.126ZM550.307 304.992L550.826 303.625C550.732 303.594 548.516 302.897 546.082 302.897C543.49 302.897 541.82 303.626 541.75 303.657L542.44 304.958C542.452 304.954 543.876 304.343 546.082 304.343C548.242 304.343 550.285 304.985 550.307 304.992ZM515.919 300.803V302.462C519.167 302.745 522.169 304.274 522.211 304.293L522.901 302.81C522.724 302.716 519.502 301.078 515.919 300.803ZM534.769 307.087C534.769 309.014 533.676 310.577 532.327 310.577C530.975 310.577 529.882 309.014 529.882 307.086C529.882 305.158 530.975 303.595 532.327 303.595C533.676 303.595 534.769 305.158 534.769 307.086V307.087ZM561.298 307.087C561.298 309.014 560.205 310.577 558.855 310.577C557.504 310.577 556.411 309.014 556.411 307.086C556.411 305.158 557.504 303.595 558.855 303.595C560.205 303.595 561.298 305.158 561.298 307.086V307.087ZM524.554 295.617C524.554 295.617 534.27 291.992 541.75 295.042L541.124 298.321C541.124 298.321 533.023 296.613 525.09 299.407C524.594 297.896 523.922 297.169 524.553 295.617H524.554ZM568.721 295.617C568.721 295.617 559.004 291.992 551.524 295.042L552.148 298.321C552.148 298.321 560.25 296.613 568.183 299.407C568.68 297.896 569.352 297.169 568.721 295.617Z" fill="#111212"/>
<path fill-rule="evenodd" clip-rule="evenodd" d="M547.105 322.445C548.585 322.445 550.053 321.859 550.28 321.766C550.727 321.578 550.943 321.057 550.761 320.601C550.578 320.145 550.065 319.927 549.618 320.113C548.824 320.439 546.925 320.953 546.1 320.45C545.941 320.352 545.723 320.161 545.668 319.62C545.352 316.505 546.19 306.063 546.197 305.957C546.238 305.466 545.878 305.036 545.396 304.995C544.911 304.953 544.49 305.32 544.45 305.812C544.415 306.247 543.59 316.525 543.923 319.803C544.05 321.037 544.686 321.669 545.199 321.981C545.76 322.323 546.436 322.445 547.105 322.445Z" fill="#CFCFCF"/>
<path d="M547.36 336.606C543.486 336.606 541.009 334.99 539.397 332.943C537.94 331.094 537.179 328.876 536.782 327.134H557.898C557.486 329.107 556.74 331.352 555.287 333.158C553.706 335.123 551.258 336.606 547.36 336.606Z" fill="white" stroke="#D6DADF"/>
<path fill-rule="evenodd" clip-rule="evenodd" d="M546.903 341.993C549.135 341.993 551.028 340.856 551.109 340.809C551.514 340.562 551.646 340.029 551.4 339.619C551.153 339.209 550.624 339.078 550.215 339.325C550.2 339.334 548.642 340.261 546.903 340.261C545.306 340.261 543.779 339.339 543.764 339.33C543.359 339.079 542.827 339.205 542.578 339.614C542.327 340.018 542.452 340.552 542.859 340.804C542.936 340.853 544.796 341.993 546.903 341.993Z" fill="#CFCFCF"/>
<path fill-rule="evenodd" clip-rule="evenodd" d="M577.357 314.008C577.332 311.944 577.478 309.876 577.835 307.844C578.325 305.061 579.125 302.538 581.946 301.377C584.218 300.445 586.641 300.427 588.366 303.008C592.615 309.363 587.884 329.136 577.482 324.556L577.357 314.008Z" fill="white"/>
<path fill-rule="evenodd" clip-rule="evenodd" d="M579.147 318.937C579.54 318.862 579.846 318.544 579.879 318.141C580.355 312.193 585.947 308.744 586.003 308.709C586.428 308.45 586.558 307.909 586.291 307.497C586.024 307.088 585.46 306.963 585.033 307.22C584.77 307.376 578.603 311.158 578.055 318.009C578.018 318.492 578.395 318.913 578.899 318.951C578.983 318.959 579.066 318.953 579.147 318.938" fill="#CFCFCF"/>
<path fill-rule="evenodd" clip-rule="evenodd" d="M584.353 314.748C584.508 314.716 584.655 314.64 584.776 314.518C585.111 314.178 585.12 313.619 584.797 313.268C584.742 313.211 583.445 311.833 581.181 311.298C580.727 311.188 580.271 311.486 580.168 311.961C580.065 312.437 580.35 312.911 580.805 313.018C582.557 313.434 583.571 314.487 583.58 314.498C583.787 314.721 584.081 314.806 584.354 314.748" fill="#CFCFCF"/>
<path fill-rule="evenodd" clip-rule="evenodd" d="M593.574 371.314C580.528 391.087 530.604 459.447 519.337 467.39C504.674 477.726 464.697 492.427 441.747 507.753C433.949 512.962 452.372 527.696 452.372 527.696C452.372 527.696 508.317 511.969 533.515 495.883C540.643 491.333 570.288 461.636 589.189 435.295C595.664 426.274 606.196 413.739 607.721 400.409C609.475 385.069 604.655 376.858 593.575 371.314" fill="#136AE8"/>
<path fill-rule="evenodd" clip-rule="evenodd" d="M494.869 549.338H339.399C337.412 549.338 335.801 547.732 335.801 545.748V533.383C335.801 531.4 337.412 529.791 339.399 529.791H494.869C496.856 529.791 498.465 531.399 498.465 533.383V545.748C498.465 547.732 496.856 549.339 494.869 549.339" fill="#0B0C42"/>
<path fill-rule="evenodd" clip-rule="evenodd" d="M335.994 549.338L305.432 435.001C303.716 428.581 308.561 422.278 315.214 422.278H382.462C386.998 422.278 390.981 425.292 392.208 429.658L425.861 549.338H335.994Z" fill="#111212"/>
<path fill-rule="evenodd" clip-rule="evenodd" d="M392.357 429.679L425.834 548.64H433.54L400.065 429.679C398.825 425.303 394.838 422.278 390.286 422.278H382.576C387.128 422.278 391.118 425.303 392.357 429.679Z" fill="#0B0C42"/>
<path fill-rule="evenodd" clip-rule="evenodd" d="M374.534 491.043C376.273 498.562 371.593 504.657 364.08 504.657C356.57 504.657 349.07 498.561 347.334 491.043C345.595 483.526 350.275 477.43 357.786 477.43C365.297 477.43 372.796 483.526 374.534 491.043Z" fill="#564C6E"/>
<path fill-rule="evenodd" clip-rule="evenodd" d="M666.955 187.75V218.92C666.955 223.041 663.595 226.384 659.455 226.384H602.58L585.408 232.514C583.645 233.145 581.957 231.42 582.633 229.684L589.13 212.994V187.75C589.13 183.63 592.488 180.287 596.632 180.287H659.455C663.595 180.287 666.955 183.63 666.955 187.75Z" fill="#5997F2"/>
<path fill-rule="evenodd" clip-rule="evenodd" d="M654.445 196.4H602.152C601.006 196.4 600.078 195.48 600.078 194.346C600.078 193.21 601.005 192.292 602.152 192.292H654.443C655.589 192.292 656.518 193.21 656.518 194.346C656.518 195.48 655.589 196.4 654.443 196.4H654.445ZM654.445 204.671H602.152C601.006 204.671 600.078 203.75 600.078 202.617C600.078 201.483 601.005 200.563 602.152 200.563H654.443C655.589 200.563 656.518 201.483 656.518 202.617C656.518 203.75 655.589 204.671 654.443 204.671H654.445ZM654.445 212.941H602.152C601.006 212.941 600.078 212.021 600.078 210.888C600.078 209.753 601.005 208.834 602.152 208.834H654.443C655.589 208.834 656.518 209.753 656.518 210.888C656.518 212.021 655.589 212.942 654.443 212.942" fill="#D6D5F8"/>
</svg>
