<svg width="123" height="36" viewBox="0 0 123 36" fill="none" xmlns="http://www.w3.org/2000/svg">
<path d="M14.744 19.8232L6.27719 24.7251C5.30135 25.29 5.27439 26.6893 6.22775 27.2914L14.7309 32.6618C14.9972 32.83 15.3445 32.6386 15.3445 32.3236V20.1694C15.3445 19.8612 15.0107 19.6688 14.744 19.8232Z" fill="white"/>
<path d="M20.1112 16.3802L4.28154 7.21561C3.95044 7.02392 3.94852 6.54656 4.27807 6.35221L13.0234 1.19473C14.2739 0.457258 15.8258 0.45522 17.0782 1.1894L31.9168 9.88791C32.0699 9.97765 32.164 10.1418 32.164 10.3193V26.899C32.164 28.3306 31.3989 29.653 30.1579 30.3666L21.1099 35.5692C20.7766 35.7609 20.3607 35.5202 20.3607 35.1357V16.8129C20.3607 16.6344 20.2656 16.4695 20.1112 16.3802Z" fill="white"/>
<path d="M51.9698 12.7727H54.7562V23.5727H51.9698V22.2983C51.1346 23.3495 49.961 23.8751 48.449 23.8751C47.009 23.8751 45.7706 23.3279 44.7338 22.2335C43.7114 21.1247 43.2002 19.7711 43.2002 18.1727C43.2002 16.5743 43.7114 15.2279 44.7338 14.1335C45.7706 13.0247 47.009 12.4703 48.449 12.4703C49.961 12.4703 51.1346 12.9959 51.9698 14.0471V12.7727ZM46.829 20.3759C47.3906 20.9375 48.1034 21.2183 48.9674 21.2183C49.8314 21.2183 50.5442 20.9375 51.1058 20.3759C51.6818 19.7999 51.9698 19.0655 51.9698 18.1727C51.9698 17.2799 51.6818 16.5527 51.1058 15.9911C50.5442 15.4151 49.8314 15.1271 48.9674 15.1271C48.1034 15.1271 47.3906 15.4151 46.829 15.9911C46.2674 16.5527 45.9866 17.2799 45.9866 18.1727C45.9866 19.0655 46.2674 19.7999 46.829 20.3759Z" fill="white"/>
<path d="M63.5685 12.4703C65.0229 12.4703 66.2613 13.0247 67.2837 14.1335C68.3205 15.2279 68.8389 16.5743 68.8389 18.1727C68.8389 19.7711 68.3205 21.1247 67.2837 22.2335C66.2613 23.3279 65.0229 23.8751 63.5685 23.8751C62.0565 23.8751 60.8901 23.3495 60.0693 22.2983V23.5727H57.2829V8.45269H60.0693V14.0471C60.8901 12.9959 62.0565 12.4703 63.5685 12.4703ZM60.9117 20.3759C61.4733 20.9375 62.1861 21.2183 63.0501 21.2183C63.9141 21.2183 64.6269 20.9375 65.1885 20.3759C65.7645 19.7999 66.0525 19.0655 66.0525 18.1727C66.0525 17.2799 65.7645 16.5527 65.1885 15.9911C64.6269 15.4151 63.9141 15.1271 63.0501 15.1271C62.1861 15.1271 61.4733 15.4151 60.9117 15.9911C60.3501 16.5527 60.0693 17.2799 60.0693 18.1727C60.0693 19.0655 60.3501 19.7999 60.9117 20.3759Z" fill="white"/>
<path d="M73.1584 19.3175C73.5328 20.6711 74.548 21.3479 76.204 21.3479C77.2696 21.3479 78.076 20.9879 78.6232 20.2679L80.8696 21.5639C79.804 23.1047 78.2344 23.8751 76.1608 23.8751C74.3752 23.8751 72.9424 23.3351 71.8624 22.2551C70.7824 21.1751 70.2424 19.8143 70.2424 18.1727C70.2424 16.5455 70.7752 15.1919 71.8408 14.1119C72.9064 13.0175 74.2744 12.4703 75.9448 12.4703C77.5288 12.4703 78.832 13.0175 79.8544 14.1119C80.8912 15.2063 81.4096 16.5599 81.4096 18.1727C81.4096 18.5327 81.3736 18.9143 81.3016 19.3175H73.1584ZM73.1152 17.1575H78.6232C78.4648 16.4231 78.1336 15.8759 77.6296 15.5159C77.14 15.1559 76.5784 14.9759 75.9448 14.9759C75.196 14.9759 74.5768 15.1703 74.0872 15.5591C73.5976 15.9335 73.2736 16.4663 73.1152 17.1575Z" fill="white"/>
<path d="M83.3548 23.5727V7.80469H86.1412V23.5727H83.3548Z" fill="white"/>
<path d="M88.6915 23.5727V7.80469H91.4779V23.5727H88.6915Z" fill="white"/>
<path d="M95.4106 11.4767C94.9498 11.4767 94.5466 11.3111 94.201 10.9799C93.8698 10.6343 93.7042 10.2311 93.7042 9.77029C93.7042 9.30949 93.8698 8.90629 94.201 8.56069C94.5466 8.21509 94.9498 8.04229 95.4106 8.04229C95.8858 8.04229 96.289 8.21509 96.6202 8.56069C96.9658 8.90629 97.1386 9.30949 97.1386 9.77029C97.1386 10.2311 96.9658 10.6343 96.6202 10.9799C96.289 11.3111 95.8858 11.4767 95.4106 11.4767ZM94.0282 23.5727V12.7727H96.8146V23.5727H94.0282Z" fill="white"/>
<path d="M105.37 12.4703C106.551 12.4703 107.523 12.8663 108.286 13.6583C109.063 14.4503 109.452 15.5447 109.452 16.9415V23.5727H106.666V17.2871C106.666 16.5671 106.471 16.0199 106.083 15.6455C105.694 15.2567 105.175 15.0623 104.527 15.0623C103.807 15.0623 103.231 15.2855 102.799 15.7319C102.367 16.1783 102.151 16.8479 102.151 17.7407V23.5727H99.3649V12.7727H102.151V13.9823C102.828 12.9743 103.901 12.4703 105.37 12.4703Z" fill="white"/>
<path d="M120.104 12.7727H122.826V23.0543C122.826 24.7247 122.271 25.9991 121.163 26.8775C120.068 27.7559 118.743 28.1951 117.188 28.1951C116.022 28.1951 114.992 27.9719 114.099 27.5255C113.221 27.0791 112.544 26.4239 112.069 25.5599L114.445 24.1991C114.992 25.2071 115.935 25.7111 117.275 25.7111C118.153 25.7111 118.844 25.4807 119.348 25.0199C119.852 24.5591 120.104 23.9039 120.104 23.0543V21.8879C119.283 22.9823 118.131 23.5295 116.648 23.5295C115.122 23.5295 113.84 22.9967 112.803 21.9311C111.781 20.8511 111.27 19.5407 111.27 17.9999C111.27 16.4735 111.788 15.1703 112.825 14.0903C113.862 13.0103 115.136 12.4703 116.648 12.4703C118.131 12.4703 119.283 13.0175 120.104 14.1119V12.7727ZM114.899 20.1383C115.475 20.6855 116.202 20.9591 117.08 20.9591C117.959 20.9591 118.679 20.6855 119.24 20.1383C119.816 19.5767 120.104 18.8639 120.104 17.9999C120.104 17.1503 119.816 16.4519 119.24 15.9047C118.679 15.3431 117.959 15.0623 117.08 15.0623C116.202 15.0623 115.475 15.3431 114.899 15.9047C114.337 16.4519 114.056 17.1503 114.056 17.9999C114.056 18.8639 114.337 19.5767 114.899 20.1383Z" fill="white"/>
</svg>
