<svg width="36" height="36" viewBox="0 0 36 36" fill="none" xmlns="http://www.w3.org/2000/svg">
<path fill-rule="evenodd" clip-rule="evenodd" d="M12.5002 3.3335H23.5002C28.562 3.3335 32.6668 7.43833 32.6668 12.5002V23.5002C32.6668 28.562 28.562 32.6668 23.5002 32.6668H12.5002C7.43833 32.6668 3.3335 28.562 3.3335 23.5002V12.5002C3.3335 7.43833 7.43833 3.3335 12.5002 3.3335ZM23.5002 29.9169C27.0385 29.9169 29.9169 27.0386 29.9169 23.5002V12.5003C29.9169 8.96192 27.0385 6.08358 23.5002 6.08358H12.5002C8.96186 6.08358 6.08352 8.96192 6.08352 12.5003V23.5002C6.08352 27.0386 8.96186 29.9169 12.5002 29.9169H23.5002Z" fill="white"/>
<path fill-rule="evenodd" clip-rule="evenodd" d="M10.667 18.0003C10.667 13.9505 13.9505 10.667 18.0003 10.667C22.0502 10.667 25.3337 13.9505 25.3337 18.0003C25.3337 22.0502 22.0502 25.3337 18.0003 25.3337C13.9505 25.3337 10.667 22.0502 10.667 18.0003ZM13.417 18.0003C13.417 20.5267 15.474 22.5837 18.0003 22.5837C20.5267 22.5837 22.5837 20.5267 22.5837 18.0003C22.5837 15.4722 20.5267 13.417 18.0003 13.417C15.474 13.417 13.417 15.4722 13.417 18.0003Z" fill="white"/>
<circle cx="25.8834" cy="10.1168" r="0.977167" fill="white"/>
</svg>
