<svg width="32" height="32" viewBox="0 0 32 32" fill="none" xmlns="http://www.w3.org/2000/svg">
<path fill-rule="evenodd" clip-rule="evenodd" d="M12.5721 11.959H17.5241V14.4257C18.2374 13.007 20.0667 11.7323 22.8147 11.7323C28.0827 11.7323 29.3334 14.5563 29.3334 19.7377V29.3337H24.0001V20.9177C24.0001 17.967 23.2867 16.303 21.4707 16.303C18.9521 16.303 17.9054 18.0963 17.9054 20.9163V29.3337H12.5721V11.959ZM3.42675 29.107H8.76008V11.7323H3.42675V29.107ZM9.52408 6.06699C9.52428 6.51403 9.43562 6.95664 9.26326 7.36911C9.09091 7.78158 8.83828 8.15568 8.52008 8.46966C7.87528 9.11049 7.00249 9.4692 6.09342 9.46699C5.18593 9.46638 4.31516 9.10859 3.66941 8.47099C3.35236 8.15594 3.1006 7.78142 2.92854 7.3689C2.75648 6.95638 2.66752 6.51396 2.66675 6.06699C2.66675 5.16433 3.02675 4.30033 3.67075 3.66299C4.31593 3.02454 5.18707 2.66659 6.09475 2.66699C7.00408 2.66699 7.87608 3.02566 8.52008 3.66299C9.16275 4.30033 9.52408 5.16433 9.52408 6.06699Z" fill="white"/>
</svg>
