<svg width="22" height="22" viewBox="0 0 22 22" fill="none" xmlns="http://www.w3.org/2000/svg">
<path d="M18.1925 11.3463C18.2834 11.1262 18.2834 10.8791 18.1925 10.659C18.1486 10.5499 18.0838 10.4504 18.0016 10.3662L11.6376 4.00227C11.4689 3.83349 11.2399 3.73867 11.0012 3.73867C10.7626 3.73867 10.5336 3.83349 10.3649 4.00227C10.1961 4.17105 10.1012 4.39997 10.1012 4.63867C10.1012 4.87736 10.1961 5.10628 10.3649 5.27506L15.1951 10.1053L4.63729 10.0989C4.51848 10.0985 4.40075 10.1215 4.29089 10.1667C4.18103 10.212 4.08121 10.2785 3.9972 10.3625C3.91319 10.4466 3.84664 10.5464 3.8014 10.6562C3.75616 10.7661 3.73312 10.8838 3.73361 11.0026C3.73312 11.1214 3.75616 11.2392 3.8014 11.349C3.84664 11.4589 3.91319 11.5587 3.9972 11.6427C4.08121 11.7267 4.18103 11.7933 4.29089 11.8385C4.40075 11.8838 4.51848 11.9068 4.63729 11.9063L15.1951 11.8999L10.3649 16.7302C10.1961 16.899 10.1012 17.1279 10.1012 17.3666C10.1012 17.6053 10.1961 17.8342 10.3649 18.003C10.5336 18.1718 10.7626 18.2666 11.0012 18.2666C11.2399 18.2666 11.4689 18.1718 11.6376 18.003L18.0016 11.639C18.0838 11.5549 18.1486 11.4554 18.1925 11.3463Z" fill="white"/>
</svg>
