<svg width="22" height="22" viewBox="0 0 22 22" fill="none" xmlns="http://www.w3.org/2000/svg">
<path d="M3.80259 10.659C3.71167 10.879 3.71167 11.1262 3.80259 11.3463C3.84649 11.4554 3.91135 11.5549 3.99351 11.639L10.3575 18.003C10.5263 18.1718 10.7552 18.2666 10.9939 18.2666C11.2326 18.2666 11.4615 18.1718 11.6303 18.003C11.799 17.8342 11.8939 17.6053 11.8939 17.3666C11.8939 17.1279 11.799 16.899 11.6303 16.7302L6.80002 11.8999L17.3578 11.9063C17.4766 11.9068 17.5944 11.8837 17.7042 11.8385C17.8141 11.7933 17.9139 11.7267 17.9979 11.6427C18.0819 11.5587 18.1485 11.4589 18.1937 11.349C18.239 11.2392 18.262 11.1214 18.2615 11.0026C18.262 10.8838 18.239 10.7661 18.1937 10.6562C18.1485 10.5464 18.0819 10.4465 17.9979 10.3625C17.9139 10.2785 17.8141 10.212 17.7042 10.1667C17.5944 10.1215 17.4766 10.0985 17.3578 10.0989L6.80002 10.1053L11.6303 5.27506C11.799 5.10627 11.8939 4.87736 11.8939 4.63866C11.8939 4.39996 11.799 4.17105 11.6303 4.00226C11.4615 3.83348 11.2326 3.73866 10.9939 3.73866C10.7552 3.73866 10.5263 3.83348 10.3575 4.00226L3.99351 10.3662C3.91135 10.4504 3.84649 10.5498 3.80259 10.659Z" fill="white"/>
</svg>
