<svg width="36" height="36" viewBox="0 0 36 36" fill="none" xmlns="http://www.w3.org/2000/svg">
<path d="M32.6668 8.905C31.576 9.3835 30.4137 9.70066 29.2018 9.85466C30.4485 9.11033 31.4 7.94066 31.8473 6.53083C30.685 7.22383 29.4017 7.71333 28.034 7.9865C26.9303 6.81133 25.3573 6.0835 23.6413 6.0835C20.312 6.0835 17.6317 8.78583 17.6317 12.0987C17.6317 12.5753 17.672 13.0337 17.771 13.47C12.7715 13.2262 8.34766 10.83 5.37583 7.17983C4.857 8.08 4.55266 9.11033 4.55266 10.2195C4.55266 12.3022 5.62516 14.1483 7.22383 15.2172C6.25766 15.1988 5.30983 14.9183 4.50683 14.4765C4.50683 14.4948 4.50683 14.5187 4.50683 14.5425C4.50683 17.4648 6.59133 19.8922 9.32483 20.4513C8.83533 20.5852 8.30183 20.6493 7.74816 20.6493C7.36316 20.6493 6.9745 20.6273 6.60966 20.5467C7.38883 22.9282 9.59983 24.679 12.2288 24.7358C10.1828 26.3363 7.585 27.3007 4.77266 27.3007C4.2795 27.3007 3.8065 27.2787 3.3335 27.2182C5.99733 28.936 9.15433 29.9168 12.5588 29.9168C23.6248 29.9168 29.6748 20.7502 29.6748 12.8045C29.6748 12.5387 29.6657 12.282 29.6528 12.0272C30.8463 11.1802 31.8492 10.1223 32.6668 8.905Z" fill="white"/>
</svg>
