<svg width="32" height="32" viewBox="0 0 32 32" fill="none" xmlns="http://www.w3.org/2000/svg">
<path d="M29.4137 9.9811C29.2552 9.40579 28.9464 8.88494 28.5202 8.47391C28.0819 8.05024 27.5447 7.74718 26.9594 7.59333C24.7687 7.00588 15.9918 7.00589 15.9918 7.00589C12.3329 6.96353 8.67482 7.14981 5.03831 7.56366C4.45295 7.72888 3.91679 8.03871 3.47752 8.4656C3.04591 8.88809 2.73329 9.40908 2.56998 9.97991C2.17767 12.13 1.98706 14.3132 2.00072 16.5C1.98672 18.6848 2.17686 20.8673 2.56998 23.0201C2.72979 23.5885 3.04125 24.1071 3.47402 24.5261C3.9068 24.945 4.44572 25.2476 5.03831 25.4078C7.25818 25.9941 15.9918 25.9941 15.9918 25.9941C19.6555 26.0365 23.3182 25.8502 26.9594 25.4363C27.5447 25.2825 28.0819 24.9794 28.5202 24.5557C28.9462 24.1448 29.2547 23.6239 29.4125 23.0486C29.8151 20.8993 30.0108 18.7152 29.997 16.5273C30.0272 14.3301 29.8318 12.1357 29.4137 9.97991V9.9811ZM13.2015 20.5635V12.4377L20.5039 16.5012L13.2015 20.5635Z" fill="white"/>
</svg>
