<svg width="100" height="100" viewBox="0 0 100 100" fill="none" xmlns="http://www.w3.org/2000/svg">
<g id="Frame 42">
<path id="Vector" d="M53.5718 0H3.57178V32.1429H7.14321V39.2857L14.2861 32.1429H53.5718V0Z" fill="url(#paint0_linear_813_1467)"/>
<path id="Vector_2" d="M21.4282 14.2861V64.2861H74.9996L89.2854 78.5718V64.2861H99.9996V14.2861H21.4282Z" fill="url(#paint1_linear_813_1467)"/>
<path id="Vector_3" d="M78.5711 35.7139H71.4282V42.8567H78.5711V35.7139Z" fill="url(#paint2_linear_813_1467)"/>
<path id="Vector_4" d="M64.2857 35.7139H57.1429V42.8567H64.2857V35.7139Z" fill="url(#paint3_linear_813_1467)"/>
<path id="Vector_5" d="M50 35.7139H42.8571V42.8567H50V35.7139Z" fill="url(#paint4_linear_813_1467)"/>
<path id="Vector_6" d="M64.2857 46.4287H0V89.2859H7.14286V100L17.8571 89.2859H64.2857V46.4287Z" fill="url(#paint5_linear_813_1467)"/>
<path id="Vector_7" opacity="0.7" d="M21.4283 64.2861H14.2855V71.429H21.4283V64.2861Z" fill="url(#paint6_linear_813_1467)"/>
<path id="Vector_8" opacity="0.7" d="M35.7146 64.2861H28.5718V71.429H35.7146V64.2861Z" fill="url(#paint7_linear_813_1467)"/>
<path id="Vector_9" opacity="0.7" d="M50 64.2861H42.8571V71.429H50V64.2861Z" fill="url(#paint8_linear_813_1467)"/>
</g>
<defs>
<linearGradient id="paint0_linear_813_1467" x1="23.8099" y1="-84.5238" x2="23.8099" y2="47.0238" gradientUnits="userSpaceOnUse">
<stop offset="0.01" stop-color="white"/>
<stop offset="0.54" stop-color="#2B87FF"/>
<stop offset="1" stop-color="#134FFF"/>
</linearGradient>
<linearGradient id="paint1_linear_813_1467" x1="83.333" y1="-154.761" x2="83.333" y2="211.31" gradientUnits="userSpaceOnUse">
<stop offset="0.01" stop-color="white"/>
<stop offset="0.54" stop-color="#2B87FF"/>
<stop offset="1" stop-color="#134FFF"/>
</linearGradient>
<linearGradient id="paint2_linear_813_1467" x1="3.2342" y1="-15.7401" x2="76.9211" y2="40.876" gradientUnits="userSpaceOnUse">
<stop offset="0.01" stop-color="white"/>
<stop offset="0.54" stop-color="#2B87FF"/>
<stop offset="1" stop-color="#134FFF"/>
</linearGradient>
<linearGradient id="paint3_linear_813_1467" x1="-11.0511" y1="-15.7401" x2="62.6358" y2="40.8759" gradientUnits="userSpaceOnUse">
<stop offset="0.01" stop-color="white"/>
<stop offset="0.54" stop-color="#2B87FF"/>
<stop offset="1" stop-color="#134FFF"/>
</linearGradient>
<linearGradient id="paint4_linear_813_1467" x1="-25.3369" y1="-15.7401" x2="48.35" y2="40.876" gradientUnits="userSpaceOnUse">
<stop offset="0.01" stop-color="white"/>
<stop offset="0.54" stop-color="#2B87FF"/>
<stop offset="1" stop-color="#134FFF"/>
</linearGradient>
<linearGradient id="paint5_linear_813_1467" x1="32.1429" y1="-46.4284" x2="32.1429" y2="211.31" gradientUnits="userSpaceOnUse">
<stop offset="0.01" stop-color="white"/>
<stop offset="0.54" stop-color="#2B87FF"/>
<stop offset="1" stop-color="#134FFF"/>
</linearGradient>
<linearGradient id="paint6_linear_813_1467" x1="-36.1145" y1="0.379665" x2="32.3867" y2="86.1682" gradientUnits="userSpaceOnUse">
<stop offset="0.01" stop-color="white"/>
<stop offset="0.54" stop-color="#2B87FF"/>
<stop offset="1" stop-color="#134FFF"/>
</linearGradient>
<linearGradient id="paint7_linear_813_1467" x1="-27.3901" y1="-6.58606" x2="41.1111" y2="79.2025" gradientUnits="userSpaceOnUse">
<stop offset="0.01" stop-color="white"/>
<stop offset="0.54" stop-color="#2B87FF"/>
<stop offset="1" stop-color="#134FFF"/>
</linearGradient>
<linearGradient id="paint8_linear_813_1467" x1="-18.6667" y1="-13.5518" x2="49.8346" y2="72.2368" gradientUnits="userSpaceOnUse">
<stop offset="0.01" stop-color="white"/>
<stop offset="0.54" stop-color="#2B87FF"/>
<stop offset="1" stop-color="#134FFF"/>
</linearGradient>
</defs>
</svg>
