<svg width="734" height="549" viewBox="0 0 734 549" fill="none" xmlns="http://www.w3.org/2000/svg">
<g clip-path="url(#clip0_1161_7643)">
<path d="M150.028 321.75C164.1 301.697 188.726 290.88 202.622 270.651C218.189 247.96 217.397 218.497 220.651 191.145C223.905 163.792 235.339 133.098 261.636 124.919C281.073 118.85 301.917 127.557 319.243 138.111C336.657 148.665 353.543 161.506 373.595 164.848C403.322 169.861 431.818 153.063 458.379 138.903C485.027 124.743 517.481 112.606 544.305 126.414C565.325 137.144 576.319 161.242 579.837 184.637C583.355 208.031 580.892 231.865 582.915 255.436C584.938 279.006 592.59 303.72 611.235 318.232C624.515 328.522 641.666 332.392 655.913 341.451C670.073 350.421 681.331 369.067 673.151 383.754C666.995 394.748 652.747 398.266 640.17 398.882C627.506 399.497 614.137 398.442 603.056 404.51C567.524 423.859 589.512 490.085 554.684 510.665C539.644 519.548 520.647 515.151 503.673 511.105C430.059 493.251 354.071 485.424 278.434 487.623C255.215 488.326 229.798 492.02 208.778 479.707C187.582 467.218 167.706 441.361 155.129 420.957C137.187 391.758 129.008 351.565 150.028 321.75Z" fill="url(#paint0_linear_1161_7643)"/>
<path d="M588.281 236.439H235.867V428.96H588.281V236.439Z" fill="url(#paint1_linear_1161_7643)"/>
<path d="M598.483 210.494H225.665C216.958 210.494 209.922 217.529 209.922 226.237V452.179C209.922 460.886 216.958 467.922 225.665 467.922H598.483C607.19 467.922 614.226 460.886 614.226 452.179V226.237C614.226 217.617 607.19 210.494 598.483 210.494ZM600.066 440.833H224.082V224.653H600.066V440.833Z" fill="#1F2D49"/>
<path d="M588.281 236.439H235.867V428.96H588.281V236.439Z" fill="url(#paint2_linear_1161_7643)"/>
<path d="M224.082 224.653V440.745H600.066V224.653H224.082ZM588.281 429.048H235.867V236.439H588.281V429.048Z" fill="url(#paint3_linear_1161_7643)"/>
<path d="M418.332 461.464C421.801 457.995 421.801 452.371 418.332 448.902C414.863 445.433 409.238 445.433 405.769 448.902C402.3 452.371 402.3 457.995 405.769 461.464C409.238 464.933 414.863 464.933 418.332 461.464Z" fill="#050F64"/>
<path d="M456.974 468.01H367.178V513.48H456.974V468.01Z" fill="#050F64"/>
<path d="M553.011 542.503H271.133L284.501 512.336H539.643L553.011 542.503Z" fill="#1F2D49"/>
<path d="M515.107 210.494V527.376H307.282V210.494C307.282 201.874 300.334 194.926 291.715 194.926H499.627C508.159 194.926 515.107 201.874 515.107 210.494Z" fill="white"/>
<path d="M488.283 194.926C494.703 196.597 499.452 203.985 499.452 210.494L499.628 511.897H322.762L322.586 210.494C322.586 204.777 319.684 198.708 315.198 194.926H307.986C314.495 196.597 319.156 203.985 319.156 210.494L319.332 515.327H503.146L502.97 210.494C502.97 204.777 500.068 198.708 495.583 194.926H488.283Z" fill="#84A9FF"/>
<path d="M307.279 210.494H276.145C276.145 201.874 283.093 194.926 291.712 194.926C300.243 194.926 307.279 201.874 307.279 210.494Z" fill="#050F64"/>
<path d="M397.428 233.624H338.59V236.879H397.428V233.624Z" fill="#155BCD"/>
<path d="M478.957 233.624H420.119V273.026H478.957V233.624Z" fill="#84A9FF"/>
<path d="M397.428 245.849H338.59V249.103H397.428V245.849Z" fill="#84A9FF"/>
<path d="M478.957 245.849H420.119V249.103H478.957V245.849Z" fill="#84A9FF"/>
<path d="M397.428 258.074H338.59V261.328H397.428V258.074Z" fill="#84A9FF"/>
<path d="M478.957 258.074H420.119V261.328H478.957V258.074Z" fill="#84A9FF"/>
<path d="M397.428 269.772H338.59V273.026H397.428V269.772Z" fill="#84A9FF"/>
<path d="M478.957 269.772H420.119V273.026H478.957V269.772Z" fill="#84A9FF"/>
<path d="M397.428 281.997H338.59V285.251H397.428V281.997Z" fill="#84A9FF"/>
<path d="M478.957 281.997H420.119V285.251H478.957V281.997Z" fill="#84A9FF"/>
<path d="M397.428 294.134H338.59V297.388H397.428V294.134Z" fill="#84A9FF"/>
<path d="M478.957 294.134H420.119V297.388H478.957V294.134Z" fill="#84A9FF"/>
<path d="M397.428 305.831H338.59V309.085H397.428V305.831Z" fill="#84A9FF"/>
<path d="M478.957 305.831H420.119V309.085H478.957V305.831Z" fill="#84A9FF"/>
<path d="M397.428 305.831H338.59V345.232H397.428V305.831Z" fill="#84A9FF"/>
<path d="M478.957 318.056H420.119V321.31H478.957V318.056Z" fill="#84A9FF"/>
<path d="M397.428 330.281H338.59V333.535H397.428V330.281Z" fill="#84A9FF"/>
<path d="M478.957 330.281H420.119V333.535H478.957V330.281Z" fill="#84A9FF"/>
<path d="M397.428 341.978H338.59V345.232H397.428V341.978Z" fill="#84A9FF"/>
<path d="M478.957 341.978H420.119V345.232H478.957V341.978Z" fill="#84A9FF"/>
<path d="M397.428 354.203H338.59V357.457H397.428V354.203Z" fill="#84A9FF"/>
<path d="M478.957 354.203H420.119V357.457H478.957V354.203Z" fill="#84A9FF"/>
<path d="M397.428 366.428H338.59V369.682H397.428V366.428Z" fill="#84A9FF"/>
<path d="M478.957 366.428H420.119V369.682H478.957V366.428Z" fill="#84A9FF"/>
<path d="M397.428 378.125H338.59V381.38H397.428V378.125Z" fill="#84A9FF"/>
<path d="M478.957 378.125H420.119V381.38H478.957V378.125Z" fill="#84A9FF"/>
<path d="M397.428 390.262H338.59V393.517H397.428V390.262Z" fill="#84A9FF"/>
<path d="M478.957 390.262H420.119V393.517H478.957V390.262Z" fill="#84A9FF"/>
<path d="M397.428 402.487H338.59V405.741H397.428V402.487Z" fill="#84A9FF"/>
<path d="M478.957 402.487H420.119V405.741H478.957V402.487Z" fill="#84A9FF"/>
<path d="M397.428 414.185H338.59V417.439H397.428V414.185Z" fill="#84A9FF"/>
<path d="M478.957 414.185H420.119V417.439H478.957V414.185Z" fill="#84A9FF"/>
<path d="M397.428 426.41H338.59V429.664H397.428V426.41Z" fill="#84A9FF"/>
<path d="M478.957 426.41H420.119V429.664H478.957V426.41Z" fill="#84A9FF"/>
<path d="M397.428 438.635H338.59V441.889H397.428V438.635Z" fill="#84A9FF"/>
<path d="M478.957 438.635H420.119V441.889H478.957V438.635Z" fill="#84A9FF"/>
<path d="M397.428 414.185H338.59V453.586H397.428V414.185Z" fill="#84A9FF"/>
<path d="M478.957 450.332H420.119V453.586H478.957V450.332Z" fill="#84A9FF"/>
<path d="M397.428 462.469H338.59V465.723H397.428V462.469Z" fill="#84A9FF"/>
<path d="M478.957 462.469H420.119V465.723H478.957V462.469Z" fill="#84A9FF"/>
<path d="M397.428 474.694H338.59V477.948H397.428V474.694Z" fill="#84A9FF"/>
<path d="M478.957 474.694H420.119V477.948H478.957V474.694Z" fill="#84A9FF"/>
<path d="M397.428 486.391H338.59V489.645H397.428V486.391Z" fill="#84A9FF"/>
<path d="M478.957 486.391H420.119V489.645H478.957V486.391Z" fill="#84A9FF"/>
<path d="M397.428 498.616H338.59V501.87H397.428V498.616Z" fill="#84A9FF"/>
<path d="M478.957 498.616H420.119V501.87H478.957V498.616Z" fill="#84A9FF"/>
<path d="M478.957 251.654V273.026H420.119V262.472C423.109 258.338 428.035 254.996 433.312 256.315C436.214 257.019 438.589 259.042 441.139 260.713C443.602 262.384 446.68 263.791 449.582 263.087C452.485 262.384 454.419 259.657 455.739 257.019C457.058 254.38 458.025 251.478 460.048 249.279C464.534 244.442 473.153 245.322 477.726 250.071C478.166 250.687 478.518 251.126 478.957 251.654Z" fill="#155BCD"/>
<path d="M434.433 240.268C434.682 238.734 433.64 237.289 432.106 237.04C430.571 236.791 429.126 237.832 428.877 239.367C428.628 240.901 429.67 242.347 431.204 242.596C432.738 242.845 434.184 241.803 434.433 240.268Z" fill="white"/>
<path d="M278.875 384.634H164.805V536.083H278.875V384.634Z" fill="white"/>
<path d="M402.268 384.634H288.197V536.083H402.268V384.634Z" fill="white"/>
<path d="M288.198 384.634H278.963V536.083H288.198V384.634Z" fill="#E5E6EB"/>
<path d="M391.803 398.09H298.576V402.048H391.803V398.09Z" fill="#E5E6EB"/>
<path d="M391.803 454.114H298.576V458.071H391.803V454.114Z" fill="#E5E6EB"/>
<path d="M391.803 464.932H298.576V468.889H391.803V464.932Z" fill="#E5E6EB"/>
<path d="M391.804 475.661H331.646V479.619H391.804V475.661Z" fill="#E5E6EB"/>
<path d="M391.804 486.391H331.646V490.349H391.804V486.391Z" fill="#E5E6EB"/>
<path d="M391.804 497.121H331.646V501.079H391.804V497.121Z" fill="#E5E6EB"/>
<path d="M391.803 507.939H298.576V511.897H391.803V507.939Z" fill="#E5E6EB"/>
<path d="M391.803 518.669H298.576V522.626H391.803V518.669Z" fill="#E5E6EB"/>
<path d="M391.803 406.093H298.576V447.342H391.803V406.093Z" fill="#E5E6EB"/>
<path d="M323.906 475.661H298.576V500.991H323.906V475.661Z" fill="#E5E6EB"/>
<path d="M268.496 398.09H175.27V402.048H268.496V398.09Z" fill="#E5E6EB"/>
<path d="M268.496 432.654H175.27V436.612H268.496V432.654Z" fill="#E5E6EB"/>
<path d="M202.094 443.384H175.27V447.342H202.094V443.384Z" fill="#E5E6EB"/>
<path d="M202.094 454.114H175.27V458.071H202.094V454.114Z" fill="#E5E6EB"/>
<path d="M202.094 464.932H175.27V468.889H202.094V464.932Z" fill="#E5E6EB"/>
<path d="M202.094 475.661H175.27V479.619H202.094V475.661Z" fill="#E5E6EB"/>
<path d="M202.094 486.391H175.27V490.349H202.094V486.391Z" fill="#E5E6EB"/>
<path d="M202.094 497.121H175.27V501.079H202.094V497.121Z" fill="#E5E6EB"/>
<path d="M268.496 507.939H175.27V511.897H268.496V507.939Z" fill="#E5E6EB"/>
<path d="M268.496 518.669H175.27V522.626H268.496V518.669Z" fill="#E5E6EB"/>
<path d="M232.176 407.676H211.684V428.169H232.176V407.676Z" fill="#E5E6EB"/>
<path d="M195.762 407.676H175.27V428.169H195.762V407.676Z" fill="#E5E6EB"/>
<path d="M268.584 407.676H248.092V428.169H268.584V407.676Z" fill="#E5E6EB"/>
<path d="M268.496 443.384H210.801V501.079H268.496V443.384Z" fill="#E5E6EB"/>
<path d="M158.473 378.213V542.415H408.689V378.213H158.473ZM400.686 386.217V534.5H166.388V386.217H400.686Z" fill="#1F2D49"/>
<path d="M291.454 393.692C290.487 392.989 289.343 392.461 288.2 392.109V393.78C291.278 394.836 293.301 397.035 293.301 399.497C293.301 401.96 291.19 404.071 288.2 405.214C287.496 405.478 286.705 405.654 285.913 405.83C285.21 405.917 284.418 406.005 283.627 406.005C282.835 406.005 282.044 405.917 281.34 405.83C280.548 405.742 279.757 405.478 279.053 405.214C275.975 404.158 273.952 401.96 273.952 399.497C273.952 397.035 276.063 394.924 279.053 393.78V392.109C277.822 392.461 276.767 392.989 275.799 393.692C273.6 395.188 272.369 397.298 272.369 399.497C272.369 401.696 273.6 403.719 275.799 405.302C276.767 406.005 277.91 406.533 279.053 406.885C279.757 407.149 280.548 407.325 281.34 407.413C282.132 407.501 282.835 407.588 283.627 407.588C284.418 407.588 285.21 407.501 285.913 407.413C286.705 407.325 287.496 407.149 288.2 406.885C289.431 406.533 290.487 406.005 291.454 405.302C293.653 403.807 294.884 401.696 294.884 399.497C294.884 397.298 293.653 395.188 291.454 393.692Z" fill="#84A9FF"/>
<path d="M291.454 418.054C290.487 417.351 289.343 416.823 288.2 416.471V418.142C291.278 419.198 293.301 421.396 293.301 423.859C293.301 426.322 291.19 428.432 288.2 429.576C287.496 429.84 286.705 430.016 285.913 430.191C285.21 430.279 284.418 430.367 283.627 430.367C282.835 430.367 282.044 430.279 281.34 430.191C280.548 430.103 279.757 429.84 279.053 429.576C275.975 428.52 273.952 426.322 273.952 423.859C273.952 421.396 276.063 419.286 279.053 418.142V416.471C277.822 416.823 276.767 417.351 275.799 418.054C273.6 419.55 272.369 421.66 272.369 423.859C272.369 426.058 273.6 428.081 275.799 429.664C276.767 430.367 277.91 430.895 279.053 431.247C279.757 431.511 280.548 431.687 281.34 431.775C282.132 431.862 282.835 431.95 283.627 431.95C284.418 431.95 285.21 431.862 285.913 431.775C286.705 431.687 287.496 431.511 288.2 431.247C289.431 430.895 290.487 430.367 291.454 429.664C293.653 428.169 294.884 426.058 294.884 423.859C294.884 421.66 293.653 419.637 291.454 418.054Z" fill="#84A9FF"/>
<path d="M291.454 442.504C290.487 441.801 289.343 441.273 288.2 440.921V442.592C291.278 443.648 293.301 445.846 293.301 448.309C293.301 450.772 291.19 452.882 288.2 454.026C287.496 454.29 286.705 454.466 285.913 454.641C285.21 454.729 284.418 454.817 283.627 454.817C282.835 454.817 282.044 454.729 281.34 454.641C280.548 454.554 279.757 454.29 279.053 454.026C275.975 452.97 273.952 450.772 273.952 448.309C273.952 445.846 276.063 443.736 279.053 442.592V440.921C277.822 441.273 276.767 441.801 275.799 442.504C273.6 444 272.369 446.11 272.369 448.309C272.369 450.508 273.6 452.531 275.799 454.114C276.767 454.817 277.91 455.345 279.053 455.697C279.757 455.961 280.548 456.137 281.34 456.225C282.132 456.312 282.835 456.4 283.627 456.4C284.418 456.4 285.21 456.312 285.913 456.225C286.705 456.137 287.496 455.961 288.2 455.697C289.431 455.345 290.487 454.817 291.454 454.114C293.653 452.619 294.884 450.508 294.884 448.309C294.884 446.11 293.653 444 291.454 442.504Z" fill="#84A9FF"/>
<path d="M291.454 466.954C290.487 466.251 289.343 465.723 288.2 465.371V467.042C291.278 468.098 293.301 470.296 293.301 472.759C293.301 475.222 291.19 477.332 288.2 478.476C287.496 478.74 286.705 478.915 285.913 479.091C285.21 479.179 284.418 479.267 283.627 479.267C282.835 479.267 282.044 479.179 281.34 479.091C280.548 479.003 279.757 478.74 279.053 478.476C275.975 477.42 273.952 475.222 273.952 472.759C273.952 470.296 276.063 468.186 279.053 467.042V465.371C277.822 465.723 276.767 466.251 275.799 466.954C273.6 468.449 272.369 470.56 272.369 472.759C272.369 474.958 273.6 476.981 275.799 478.564C276.767 479.267 277.91 479.795 279.053 480.147C279.757 480.411 280.548 480.587 281.34 480.674C282.132 480.762 282.835 480.85 283.627 480.85C284.418 480.85 285.21 480.762 285.913 480.674C286.705 480.587 287.496 480.411 288.2 480.147C289.431 479.795 290.487 479.267 291.454 478.564C293.653 477.069 294.884 474.958 294.884 472.759C294.884 470.56 293.653 468.449 291.454 466.954Z" fill="#84A9FF"/>
<path d="M291.454 491.316C290.487 490.613 289.343 490.085 288.2 489.733V491.404C291.278 492.46 293.301 494.658 293.301 497.121C293.301 499.584 291.19 501.694 288.2 502.838C287.496 503.102 286.705 503.278 285.913 503.453C285.21 503.541 284.418 503.629 283.627 503.629C282.835 503.629 282.044 503.541 281.34 503.453C280.548 503.365 279.757 503.102 279.053 502.838C275.975 501.782 273.952 499.584 273.952 497.121C273.952 494.658 276.063 492.548 279.053 491.404V489.821C277.822 490.173 276.767 490.701 275.799 491.404C273.6 492.899 272.369 495.01 272.369 497.209C272.369 499.408 273.6 501.431 275.799 503.014C276.767 503.717 277.91 504.245 279.053 504.597C279.757 504.861 280.548 505.036 281.34 505.124C282.132 505.212 282.835 505.3 283.627 505.3C284.418 505.3 285.21 505.212 285.913 505.124C286.705 505.036 287.496 504.861 288.2 504.597C289.431 504.245 290.487 503.717 291.454 503.014C293.653 501.519 294.884 499.408 294.884 497.209C294.884 495.01 293.653 492.899 291.454 491.316Z" fill="#84A9FF"/>
<path d="M291.454 515.766C290.487 515.063 289.343 514.535 288.2 514.183V515.854C291.278 516.91 293.301 519.108 293.301 521.571C293.301 524.034 291.19 526.144 288.2 527.288C287.496 527.552 286.705 527.727 285.913 527.903C285.21 527.991 284.418 528.079 283.627 528.079C282.835 528.079 282.044 527.991 281.34 527.903C280.548 527.815 279.757 527.552 279.053 527.288C275.975 526.232 273.952 524.034 273.952 521.571C273.952 519.108 276.063 516.998 279.053 515.854V514.183C277.822 514.535 276.767 515.063 275.799 515.766C273.6 517.262 272.369 519.372 272.369 521.571C272.369 523.77 273.6 525.793 275.799 527.376C276.767 528.079 277.91 528.607 279.053 528.959C279.757 529.223 280.548 529.399 281.34 529.486C282.132 529.574 282.835 529.662 283.627 529.662C284.418 529.662 285.21 529.574 285.913 529.486C286.705 529.399 287.496 529.223 288.2 528.959C289.431 528.607 290.487 528.079 291.454 527.376C293.653 525.881 294.884 523.77 294.884 521.571C294.884 519.372 293.653 517.262 291.454 515.766Z" fill="#84A9FF"/>
<path d="M453.801 409.523H385.464C381.418 409.523 378.076 412.865 378.076 416.911V531.949C378.076 537.754 382.825 542.503 388.63 542.503H450.722C456.527 542.503 461.276 537.754 461.276 531.949V416.911C461.276 412.778 457.934 409.523 453.801 409.523Z" fill="#1F2D49"/>
<path d="M455.824 419.638V520.428C455.824 525.177 451.954 529.047 447.205 529.047H392.236C387.487 529.047 383.617 525.177 383.617 520.428V419.638H455.824Z" fill="#136AE8"/>
<path d="M433.836 415.592H405.516C404.989 415.592 404.637 415.152 404.637 414.712C404.637 414.185 405.076 413.833 405.516 413.833H433.836C434.364 413.833 434.715 414.273 434.715 414.712C434.715 415.24 434.364 415.592 433.836 415.592Z" fill="#155BCD"/>
<path d="M448.072 521.043V444.087H400.931V521.043H448.072Z" fill="white"/>
<path d="M443.512 448.925H405.605V452.003H443.512V448.925Z" fill="#84A9FF"/>
<path d="M443.512 454.729H405.605V457.808H443.512V454.729Z" fill="#84A9FF"/>
<path d="M443.512 460.534H405.605V463.612H443.512V460.534Z" fill="#84A9FF"/>
<path d="M443.512 466.427H405.605V469.505H443.512V466.427Z" fill="#84A9FF"/>
<path d="M443.512 472.231H405.605V475.31H443.512V472.231Z" fill="#84A9FF"/>
<path d="M443.512 478.124H405.605V481.202H443.512V478.124Z" fill="#84A9FF"/>
<path d="M443.512 483.929H405.605V487.007H443.512V483.929Z" fill="#84A9FF"/>
<path d="M443.512 489.821H405.605V492.9H443.512V489.821Z" fill="#84A9FF"/>
<path d="M443.512 495.626H405.605V498.704H443.512V495.626Z" fill="#84A9FF"/>
<path d="M443.512 501.431H405.605V504.509H443.512V501.431Z" fill="#84A9FF"/>
<path d="M443.512 507.323H405.605V510.401H443.512V507.323Z" fill="#84A9FF"/>
<path d="M431.287 513.128H405.605V516.206H431.287V513.128Z" fill="#84A9FF"/>
<path d="M301.652 300.466C301.652 310.316 297.43 319.287 290.834 325.62C288.636 327.73 286.877 330.193 285.733 333.007C284.59 335.734 283.886 338.724 283.886 341.802C283.886 344.968 282.655 347.959 280.72 350.158C279.049 352.092 276.85 353.412 274.3 354.115C273.332 354.379 272.277 354.467 271.134 354.467H262.251C258.733 354.467 255.566 353.06 253.28 350.685C250.993 348.399 249.586 345.232 249.586 341.714C249.586 335.558 247.035 329.665 242.638 325.444C236.13 319.111 232.084 310.228 232.084 300.378C232.084 295.453 233.139 290.792 234.986 286.57C235.338 285.866 235.69 285.163 236.042 284.459C241.846 273.378 253.456 265.814 266.736 265.814C286.085 265.462 301.74 281.117 301.652 300.466Z" fill="#5997F2"/>
<path d="M280.72 350.07C279.049 352.004 276.85 353.324 274.3 354.027C273.332 354.291 272.277 354.379 271.134 354.379H262.251C258.733 354.379 255.566 352.972 253.28 350.597C250.993 348.311 249.586 345.144 249.586 341.626C249.586 335.47 247.035 329.577 242.638 325.356C236.13 319.023 232.084 310.14 232.084 300.29C232.084 295.365 233.139 290.704 234.986 286.482C237.185 299.411 242.55 317.264 256.006 329.313C256.094 329.226 252.312 352.532 280.72 350.07Z" fill="white"/>
<path d="M295.466 299.252C298.537 296.64 296.13 288.764 290.088 281.659C284.047 274.555 276.66 270.912 273.588 273.524C270.517 276.136 272.925 284.012 278.966 291.117C285.008 298.221 292.395 301.864 295.466 299.252Z" fill="white"/>
<path d="M283.534 354.115C283.534 355.083 283.182 355.874 282.567 356.49C282.391 356.666 282.215 356.842 282.039 356.93C281.511 357.281 280.896 357.457 280.192 357.457L253.192 357.369C252.488 357.369 251.872 357.193 251.345 356.842C250.465 356.226 249.85 355.171 249.85 354.027C249.85 353.06 250.201 352.268 250.817 351.653C251.433 351.037 252.224 350.685 253.192 350.685L280.192 350.773C282.039 350.773 283.534 352.268 283.534 354.115Z" fill="#155BCD"/>
<path d="M281.95 360.711C281.95 361.679 281.598 362.47 280.983 363.086C280.807 363.262 280.631 363.35 280.455 363.526C280.015 363.878 279.4 364.053 278.784 364.053C278.696 364.053 278.608 364.053 278.608 364.053L254.774 363.966C254.686 363.966 254.598 363.966 254.598 363.966C253.982 363.966 253.454 363.702 252.927 363.438C252.047 362.822 251.432 361.767 251.432 360.623C251.432 359.656 251.783 358.864 252.399 358.249C253.015 357.633 253.806 357.281 254.774 357.281L278.608 357.369C280.455 357.369 281.95 358.864 281.95 360.711Z" fill="#155BCD"/>
<path d="M271.134 378.213H262.163C260.052 378.213 258.293 376.454 258.293 374.344V367.22L274.915 367.308V374.432C275.003 376.542 273.332 378.213 271.134 378.213Z" fill="#155BCD"/>
<path d="M279.05 367.396C279.05 368.363 278.698 369.155 278.082 369.77C277.906 369.946 277.73 370.122 277.555 370.21C277.027 370.562 276.411 370.738 275.708 370.738L257.766 370.65C257.062 370.65 256.447 370.474 255.919 370.122C255.039 369.506 254.424 368.451 254.424 367.308C254.424 366.34 254.776 365.549 255.391 364.933C256.007 364.317 256.798 363.966 257.766 363.966L275.708 364.054C277.555 363.966 279.05 365.549 279.05 367.396Z" fill="#155BCD"/>
<path d="M282.038 356.93C281.51 357.281 280.895 357.457 280.191 357.457L253.191 357.369C252.487 357.369 251.871 357.193 251.344 356.842L282.038 356.93Z" fill="#050F64"/>
<path d="M280.368 363.526L278.697 364.054L254.511 363.966C253.895 363.966 253.368 363.702 252.84 363.438L280.368 363.526Z" fill="#050F64"/>
<path d="M277.556 370.122C277.028 370.474 276.412 370.65 275.709 370.65L257.767 370.562C257.063 370.562 256.448 370.386 255.92 370.034L277.556 370.122Z" fill="#050F64"/>
<path d="M279.752 299.059C278.433 297.828 276.674 297.212 274.827 297.3C273.156 297.388 271.573 298.091 270.605 299.235C269.374 300.642 268.934 302.489 268.67 304.16C268.495 305.479 268.407 308.294 268.319 311.636C267.879 311.636 265.768 311.636 265.328 311.636C265.328 308.294 265.24 305.479 264.977 304.16C264.713 302.577 264.361 300.642 263.042 299.235C261.986 298.091 260.491 297.388 258.82 297.3C256.973 297.212 255.214 297.828 253.895 299.059C251.608 301.17 250.905 304.863 252.224 307.942C253.367 310.58 255.742 312.691 258.82 313.834C259.876 314.186 261.019 314.45 262.25 314.626C262.25 321.574 262.074 350.509 262.074 350.685L265.152 350.773C265.152 350.245 265.328 321.662 265.328 314.802C265.856 314.802 267.791 314.802 268.319 314.802C268.319 321.662 268.495 350.245 268.495 350.773L271.573 350.685C271.573 350.597 271.397 321.662 271.397 314.626C272.628 314.45 273.772 314.274 274.827 313.834C277.905 312.779 280.28 310.58 281.423 307.942C282.742 304.863 282.039 301.17 279.752 299.059ZM259.963 310.932C257.765 310.14 255.918 308.557 255.214 306.798C254.423 304.863 254.774 302.577 256.182 301.258C256.797 300.642 257.765 300.29 258.644 300.29C258.732 300.29 258.732 300.29 258.82 300.29C259.7 300.29 260.403 300.642 260.931 301.258C261.634 302.049 261.898 303.368 262.074 304.6C262.25 305.831 262.338 308.381 262.338 311.548C261.459 311.372 260.667 311.196 259.963 310.932ZM278.609 306.798C277.817 308.645 276.058 310.228 273.859 310.932C273.068 311.196 272.276 311.372 271.485 311.46C271.485 308.381 271.573 305.743 271.749 304.512C271.925 303.368 272.188 302.049 272.892 301.17C273.42 300.642 274.123 300.29 275.003 300.202C275.091 300.202 275.091 300.202 275.179 300.202C276.146 300.202 277.026 300.554 277.641 301.17C279.049 302.489 279.488 304.863 278.609 306.798Z" fill="white"/>
<path d="M585.38 248.136H525.662V291.495H585.38V248.136Z" fill="white"/>
<path d="M555.477 291.583H536.92L555.477 308.118L574.123 291.583H555.477Z" fill="#E5E6EB"/>
<path d="M568.141 267.573C568.493 267.221 568.317 266.518 567.79 266.43L560.05 265.286C559.874 265.286 559.698 265.11 559.522 264.934L556.092 257.898C555.828 257.459 555.213 257.459 554.949 257.898L551.519 264.934C551.431 265.11 551.255 265.286 550.991 265.286L543.252 266.43C542.724 266.518 542.548 267.133 542.9 267.573L548.529 273.026C548.705 273.202 548.792 273.378 548.704 273.641L547.385 281.381C547.297 281.909 547.825 282.348 548.353 282.085L555.301 278.479C555.477 278.391 555.74 278.391 555.916 278.479L562.864 282.085C563.304 282.348 563.92 281.909 563.832 281.381L562.513 273.641C562.513 273.466 562.513 273.202 562.688 273.026L568.141 267.573Z" fill="#136AE8"/>
<path d="M585.201 535.115L570.602 542.503C570.338 541.975 570.25 541.448 570.338 540.92C570.426 540.304 570.865 539.777 571.393 539.425C571.921 539.073 572.448 538.809 573.064 538.457C574.383 537.666 575.615 536.61 576.494 535.291C576.934 534.588 577.286 533.884 577.901 533.268L581.947 531.333C582.827 531.685 583.53 532.213 584.058 532.917C584.498 533.62 584.849 534.324 585.201 535.115Z" fill="#050F64"/>
<path d="M599.36 540.392L583.09 542.503C583.002 541.975 583.09 541.36 583.353 540.92C583.705 540.392 584.233 540.04 584.849 539.865C585.464 539.689 586.08 539.601 586.696 539.513C588.191 539.249 589.686 538.633 590.917 537.666C591.533 537.138 592.148 536.61 592.852 536.259L597.337 535.819C598.041 536.434 598.569 537.226 598.833 538.018C599.184 538.721 599.36 539.513 599.36 540.392Z" fill="#050F64"/>
<path d="M555.913 487.886L577.109 533.532L582.474 531.334L568.93 488.766L579.836 471.528L592.236 536.347L598.041 535.995L598.217 453.234C598.305 452.443 563.213 450.332 563.213 450.332L555.562 484.808C555.386 485.776 555.474 486.831 555.913 487.886Z" fill="#1F2D49"/>
<path d="M546.588 449.101C547.995 447.166 549.402 445.319 550.809 443.56C551.161 443.12 551.513 442.68 551.777 442.153C552.129 441.713 552.48 441.273 552.744 440.746L553.712 439.338L554.151 438.635L554.591 437.931C556.966 434.149 559.077 430.192 560.836 426.146C561.627 424.035 562.507 422.012 563.21 419.902L563.738 418.318C563.826 418.055 563.914 417.791 564.002 417.527L564.266 416.735L565.233 413.569C565.321 413.305 565.409 413.041 565.497 412.778L565.673 411.986L566.113 410.403L566.552 408.82L566.728 408.028L566.816 407.589L566.904 407.149L567.608 403.895C567.872 402.839 568.048 401.696 568.223 400.641C568.487 399.233 569.367 398.178 570.598 397.474C571.829 396.771 573.412 396.507 574.996 396.859C576.579 397.211 577.898 398.09 578.689 399.321C579.481 400.553 579.745 402.048 579.305 403.455C578.953 404.598 578.514 405.742 578.074 406.885L576.842 410.227L576.667 410.667L576.491 411.107L576.139 411.898L575.435 413.569L574.732 415.24L574.38 416.032C574.292 416.296 574.116 416.559 574.028 416.823L572.533 420.077L572.181 420.869C572.093 421.133 571.917 421.397 571.741 421.661L570.862 423.244C569.807 425.354 568.487 427.465 567.344 429.488C564.793 433.534 561.979 437.491 558.813 441.009L558.197 441.713L557.582 442.329L556.35 443.648C555.91 444.088 555.559 444.527 555.119 444.967C554.679 445.407 554.327 445.847 553.888 446.198C552.217 447.869 550.546 449.453 548.963 451.036C548.435 451.563 547.555 451.563 546.852 451.036C546.236 450.684 546.06 449.716 546.588 449.101Z" fill="#F5BDC8"/>
<path d="M577.196 421.485L580.89 406.797C582.034 402.312 579.659 397.738 575.174 396.683C570.688 395.539 565.851 398.266 564.708 402.751L561.014 417.439L577.196 421.485Z" fill="#5997F2"/>
<path d="M584.497 393.429C575.614 392.021 567.434 398.442 566.731 407.413L563.213 450.244C576.933 458.159 585.552 456.4 598.393 453.146L600.24 412.865C600.679 403.279 593.907 394.924 584.497 393.429Z" fill="#5997F2"/>
<path d="M597.426 401.96C598.481 403.631 599.272 405.478 599.712 407.413L600.152 407.237C599.624 405.302 598.833 403.367 597.777 401.696L597.426 401.96ZM595.315 453.938L595.403 454.378C596.458 454.114 597.514 453.85 598.569 453.586L598.921 453.498L599.36 442.944L598.921 442.856L598.481 453.058C597.338 453.41 596.282 453.674 595.315 453.938ZM562.773 450.508L563.037 450.684C565.676 452.179 568.138 453.41 570.513 454.29L570.601 453.762C568.314 452.882 565.852 451.739 563.213 450.244L565.236 425.09H564.796L562.773 450.508ZM585.904 455.697C584.673 455.785 583.442 455.873 582.21 455.873V456.312C583.53 456.312 584.849 456.224 586.08 456.049L585.904 455.697ZM599.536 429.488H599.976L600.416 419.813L599.976 419.901L599.536 429.488ZM565.676 414.976L566.116 415.064L566.731 407.413C567.347 399.321 574.119 393.253 582.034 393.253C582.386 393.253 582.826 393.253 583.178 393.253V392.813C582.826 392.813 582.474 392.813 582.122 392.813C573.855 392.725 566.819 399.145 566.203 407.413L565.676 414.976Z" fill="#84A9FF"/>
<path d="M585.291 491.968L527.455 351.613L512.899 357.611L570.735 497.966L585.291 491.968Z" fill="#136AE8"/>
<path d="M576.67 512.512L570.689 498.001L585.289 491.932L591.27 506.532L576.67 512.512Z" fill="url(#paint4_linear_1161_7643)"/>
<path d="M586.785 495.749L582.932 486.398L568.376 492.396L572.229 501.747L586.785 495.749Z" fill="#E4E5EA"/>
<path d="M511.939 329.225L508.07 330.809L506.223 320.87L511.939 329.225Z" fill="#050F64"/>
<path d="M527.417 351.653L512.906 357.633L508.068 330.809L511.938 329.225L527.417 351.653Z" fill="#E4E5EA"/>
<path d="M548.614 417.879C549.405 417.439 550.373 417.703 550.813 418.406C552.132 420.517 553.627 422.54 555.122 424.387C555.914 425.354 556.705 426.234 557.497 427.113C558.288 427.993 559.168 428.784 560.047 429.488C560.927 430.191 561.806 430.807 562.686 431.247C562.95 431.335 563.125 431.423 563.389 431.511L563.741 431.599L563.917 431.687L564.093 431.775C564.533 431.95 564.972 431.95 565.324 432.038C565.764 432.038 566.116 432.038 566.468 432.038C566.819 431.95 567.171 431.862 567.611 431.775C567.963 431.599 568.314 431.423 568.754 431.247C569.106 430.983 569.458 430.807 569.898 430.455C570.601 429.84 571.393 429.136 572.008 428.345C572.712 427.553 573.328 426.673 573.943 425.706C575.175 423.859 576.318 421.748 577.373 419.638C578.429 417.527 579.396 415.328 580.364 413.041C581.331 410.755 582.21 408.556 583.002 406.181C583.618 404.774 584.673 403.631 586.08 403.103C587.487 402.575 589.071 402.487 590.566 403.191C592.061 403.807 593.204 405.038 593.732 406.445C594.26 407.852 594.26 409.435 593.468 410.931C592.237 413.217 591.005 415.504 589.686 417.703C588.367 419.989 586.96 422.188 585.465 424.387C583.97 426.586 582.386 428.784 580.539 430.807C579.572 431.862 578.605 432.83 577.549 433.797C576.494 434.765 575.262 435.732 573.943 436.524C573.24 436.964 572.536 437.315 571.744 437.579C570.953 437.931 570.161 438.107 569.282 438.283C568.402 438.459 567.523 438.547 566.643 438.547C565.764 438.547 564.884 438.371 564.093 438.195C563.301 437.931 562.51 437.667 561.718 437.315L561.454 437.227L561.191 437.052L560.663 436.788C560.311 436.612 559.959 436.348 559.695 436.172C558.464 435.293 557.409 434.325 556.441 433.27C555.474 432.214 554.594 431.159 553.891 430.104C553.099 429.048 552.396 427.905 551.692 426.761C550.373 424.563 549.142 422.188 548.086 419.901C547.558 419.198 547.91 418.23 548.614 417.879Z" fill="#F5BDC8"/>
<path d="M588.102 427.817L594.434 414.009C596.369 409.875 594.874 404.95 590.652 403.015C586.519 401.08 581.242 402.927 579.307 407.061L572.975 420.869L588.102 427.817Z" fill="#5997F2"/>
<path d="M578.341 408.292C578.429 408.38 578.605 408.38 578.78 408.468L579.396 407.061C579.66 406.621 579.924 406.093 580.188 405.742L579.836 405.478C579.484 405.917 579.22 406.445 578.956 406.885L578.341 408.292ZM584.585 426.586L588.367 428.345L590.302 424.123L589.95 423.859L588.191 427.729L584.761 426.146L584.585 426.586ZM593.38 416.295L591.093 421.309L591.533 421.484L593.908 416.295H593.38ZM583.618 402.487L583.969 402.839C586.08 402.048 588.543 402.048 590.742 403.015C592.501 403.807 593.82 405.214 594.611 406.885L594.963 406.621C594.172 404.862 592.764 403.455 590.917 402.663C589.774 402.136 588.543 401.872 587.224 401.872C585.904 401.784 584.673 402.048 583.618 402.487ZM574.207 417.263L574.559 417.527L576.142 414.009L575.79 413.833L574.207 417.263ZM577.197 423.243L580.627 424.827L580.715 424.387L577.373 422.804L577.197 423.243Z" fill="#84A9FF"/>
<path d="M580.01 387.36L579.57 398.354C581.857 400.025 584.32 400.113 586.694 398.618L587.134 387.624L580.01 387.36Z" fill="#F5BDC8"/>
<path d="M580.01 387.36L579.834 392.285C580.362 392.461 580.889 392.637 581.417 392.725C581.593 392.725 581.769 392.725 581.945 392.725C583.88 392.813 585.815 391.934 587.046 390.526L587.134 387.536L580.01 387.36Z" fill="#EA8096"/>
<path d="M577.021 380.5V385.074V386.92C577.021 389.471 578.956 391.67 581.507 392.022C582.386 392.109 583.178 392.022 583.97 391.758C584.145 391.67 584.321 391.67 584.497 391.582C584.585 391.494 584.673 391.494 584.849 391.406C585.816 390.878 586.696 390.087 587.224 389.031C587.663 388.152 588.103 387.184 588.543 386.217C588.807 385.601 588.983 385.074 589.246 384.458C590.302 381.731 589.774 378.653 587.927 376.542C586.256 374.695 584.145 374.08 581.595 374.783C578.868 375.399 577.021 377.774 577.021 380.5Z" fill="#F5BDC8"/>
<path d="M585.903 383.666L585.199 383.139C585.199 383.139 587.046 380.06 586.694 378.917C586.079 377.246 582.209 376.454 580.186 376.718C579.57 376.806 579.043 376.982 578.691 377.51C577.987 378.741 577.108 381.204 577.108 383.842C577.108 383.842 575.349 375.839 578.339 372.057C580.274 369.594 582.033 367.923 585.287 370.034C590.564 373.376 592.939 378.301 591.004 384.81L587.486 382.875L585.903 383.666Z" fill="#050F64"/>
<path d="M591.09 384.378C591.138 383.067 589.997 381.962 588.541 381.909C587.084 381.855 585.865 382.875 585.817 384.185C585.769 385.496 586.911 386.601 588.367 386.655C589.823 386.708 591.043 385.689 591.09 384.378Z" fill="#F5BDC8"/>
<path d="M645.625 502.134L644.833 502.222C643.954 495.89 643.514 489.381 643.162 483.137C643.074 481.026 642.899 478.827 642.723 476.629C642.723 476.189 642.635 475.661 642.635 475.222C642.283 470.472 641.843 465.635 640.964 460.886C640.876 460.622 640.876 460.358 640.788 460.006C640.7 459.479 640.612 458.951 640.524 458.511C639.908 455.433 639.293 452.267 638.501 449.276C638.325 448.661 638.149 447.957 637.973 447.342C635.511 437.667 632.257 428.169 628.211 419.11L628.915 418.846C633.224 428.608 636.654 438.722 639.205 449.101C639.381 449.892 639.556 450.684 639.732 451.475C640.084 453.146 640.436 454.817 640.788 456.488C640.964 457.192 641.052 457.895 641.227 458.599C641.315 459.039 641.403 459.567 641.491 460.006C642.371 464.668 642.811 469.505 643.162 474.166C643.162 474.606 643.25 475.046 643.25 475.485C643.426 478.036 643.602 480.674 643.778 483.137C644.394 489.381 644.745 495.802 645.625 502.134Z" fill="#050F64"/>
<path d="M647.116 440.306C646.236 441.889 645.445 443.648 644.741 445.407C643.158 449.628 642.19 454.026 641.487 458.511C641.399 459.303 641.223 460.094 641.135 460.886C641.047 460.622 641.047 460.358 640.959 460.006C640.871 459.479 640.783 458.951 640.695 458.511C640.783 457.808 640.959 457.104 641.047 456.312C641.751 452.531 642.63 448.749 644.037 445.055C644.741 443.12 645.62 441.361 646.5 439.69C646.676 439.954 646.852 440.13 647.116 440.306Z" fill="#050F64"/>
<path d="M639.907 451.387C639.467 450.684 639.115 449.98 638.587 449.277C636.565 446.198 633.75 443.56 630.496 441.801L630.848 441.097C633.662 442.592 636.125 444.703 638.148 447.254C638.587 447.781 638.939 448.309 639.379 448.925C639.555 449.804 639.731 450.596 639.907 451.387Z" fill="#050F64"/>
<path d="M667.347 461.941C664.092 461.765 660.838 462.117 657.672 463.172C654.858 464.052 652.219 465.459 649.845 467.218C647.294 469.153 645.095 471.44 643.424 474.166C643.16 474.518 642.985 474.87 642.721 475.309C642.721 475.749 642.809 476.277 642.809 476.717C642.985 476.277 643.248 475.925 643.512 475.485C645.183 472.583 647.47 470.033 650.108 468.01C652.483 466.251 655.122 464.843 657.936 463.876C661.366 462.733 665.06 462.381 668.666 462.821L667.347 461.941Z" fill="#050F64"/>
<path d="M675.877 470.296C675.349 469.857 674.734 469.417 674.118 469.065C670.16 466.778 665.147 466.427 660.926 468.274C659.606 468.889 658.375 469.681 656.968 470.208C655.649 470.736 654.066 471 652.658 470.56C651.163 470.033 650.284 468.977 649.844 467.658C649.756 467.394 649.668 467.13 649.668 466.866C649.404 464.58 650.372 461.941 652.043 460.622C653.89 459.127 656.44 458.511 658.815 458.775C661.189 458.951 663.476 459.918 665.587 461.062C668.841 462.909 671.831 465.371 674.206 468.274C674.91 468.889 675.349 469.593 675.877 470.296Z" fill="#84A9FF"/>
<path d="M675.877 470.296C675.349 469.857 674.734 469.417 674.118 469.065C672.799 467.834 670.512 466.075 667.698 464.931C661.629 462.381 655.648 463.26 649.932 467.658C649.844 467.394 649.756 467.13 649.756 466.866C652.834 464.58 656 463.26 659.254 462.909C662.157 462.557 665.147 463.085 668.049 464.316C670.776 465.459 672.975 467.13 674.382 468.362C674.909 468.889 675.349 469.593 675.877 470.296Z" fill="white"/>
<path d="M661.102 435.117C660.574 435.117 660.047 435.117 659.519 435.117C656.177 435.38 653.011 437.315 651.34 440.218C650.812 441.097 650.372 442.153 649.844 443.032C649.229 443.912 648.437 444.703 647.47 445.055C646.327 445.407 645.359 445.143 644.568 444.527C644.392 444.439 644.216 444.263 644.128 444.087C642.984 442.856 642.457 440.833 642.897 439.338C643.336 437.667 644.656 436.26 646.151 435.38C647.646 434.501 649.405 434.061 651.164 433.885C653.89 433.621 656.705 433.797 659.343 434.589C659.871 434.677 660.486 434.853 661.102 435.117Z" fill="#84A9FF"/>
<path d="M661.101 435.117C660.574 435.117 660.046 435.117 659.518 435.117C658.199 434.941 656.176 434.853 653.977 435.292C649.316 436.348 646.15 439.426 644.567 444.439C644.391 444.351 644.215 444.175 644.127 443.999C645.006 441.361 646.326 439.162 648.085 437.579C649.668 436.172 651.603 435.205 653.889 434.677C656 434.237 658.023 434.237 659.342 434.413C659.87 434.677 660.486 434.853 661.101 435.117Z" fill="white"/>
<path d="M613.08 458.599C613.256 457.896 613.608 457.28 613.872 456.664C615.982 452.619 620.028 449.54 624.514 448.837C625.921 448.573 627.416 448.573 628.823 448.309C630.23 448.045 631.725 447.43 632.605 446.286C633.572 445.055 633.748 443.648 633.396 442.328C633.308 442.065 633.221 441.801 633.133 441.537C632.165 439.514 629.878 437.843 627.68 437.579C625.305 437.315 622.842 438.195 620.996 439.69C619.061 441.185 617.653 443.208 616.51 445.319C614.751 448.661 613.608 452.355 613.168 456.049C613.168 456.928 613.08 457.72 613.08 458.599Z" fill="#84A9FF"/>
<path d="M613.08 458.599C613.256 457.896 613.608 457.28 613.872 456.664C614.311 454.905 615.279 452.267 617.038 449.716C620.732 444.264 626.273 441.801 633.484 442.417C633.396 442.153 633.308 441.889 633.221 441.625C629.439 441.361 626.009 441.977 623.106 443.384C620.468 444.703 618.181 446.638 616.422 449.277C614.751 451.739 613.784 454.29 613.256 456.049C613.168 456.928 613.08 457.72 613.08 458.599Z" fill="white"/>
<path d="M604.197 423.243C604.901 422.804 605.604 422.364 606.396 422.012C611.233 419.726 617.214 419.901 621.875 422.54C623.37 423.419 624.689 424.475 626.273 425.266C627.856 426.058 629.527 426.586 631.198 426.146C633.045 425.706 634.188 424.563 634.804 423.068C634.892 422.804 635.068 422.452 635.068 422.1C635.683 419.462 634.716 416.295 632.957 414.536C630.934 412.514 628.032 411.634 625.217 411.634C622.403 411.634 619.676 412.426 617.038 413.569C612.992 415.328 609.298 417.879 606.22 421.045C605.516 421.748 604.813 422.452 604.197 423.243Z" fill="#84A9FF"/>
<path d="M604.197 423.243C604.901 422.804 605.604 422.364 606.396 422.012C608.067 420.693 610.881 418.934 614.311 417.879C621.699 415.592 628.559 417.263 634.716 423.068C634.804 422.804 634.98 422.452 634.98 422.1C631.638 419.11 628.119 417.175 624.338 416.383C620.996 415.68 617.478 415.856 613.96 416.999C610.618 418.054 607.979 419.725 606.132 420.957C605.517 421.748 604.813 422.452 604.197 423.243Z" fill="white"/>
<path d="M627.855 506.971L628.119 508.73L632.605 542.503H658.638L663.123 508.73L663.387 506.971H627.855Z" fill="#84A9FF"/>
<path d="M624.88 506.973H666.305V499.761H624.88V506.973Z" fill="#84A9FF"/>
<path d="M627.855 506.971L628.119 508.73H663.123L663.387 506.971H627.855Z" fill="#155BCD"/>
<path d="M734.1 542.503H86V549.363H734.1V542.503Z" fill="#E5E6EB"/>
</g>
<defs>
<linearGradient id="paint0_linear_1161_7643" x1="137.534" y1="318.073" x2="675.862" y2="318.073" gradientUnits="userSpaceOnUse">
<stop stop-color="white"/>
<stop offset="1" stop-color="#94B9FF"/>
</linearGradient>
<linearGradient id="paint1_linear_1161_7643" x1="412.06" y1="226.303" x2="412.06" y2="498.868" gradientUnits="userSpaceOnUse">
<stop stop-color="white"/>
<stop offset="1" stop-color="#94B9FF"/>
</linearGradient>
<linearGradient id="paint2_linear_1161_7643" x1="412.06" y1="226.303" x2="412.06" y2="498.868" gradientUnits="userSpaceOnUse">
<stop stop-color="white"/>
<stop offset="1" stop-color="#94B9FF"/>
</linearGradient>
<linearGradient id="paint3_linear_1161_7643" x1="412.059" y1="226.303" x2="412.059" y2="498.868" gradientUnits="userSpaceOnUse">
<stop stop-color="white"/>
<stop offset="1" stop-color="#94B9FF"/>
</linearGradient>
<linearGradient id="paint4_linear_1161_7643" x1="570.714" y1="502.241" x2="591.253" y2="502.241" gradientUnits="userSpaceOnUse">
<stop stop-color="white"/>
<stop offset="1" stop-color="#94B9FF"/>
</linearGradient>
<clipPath id="clip0_1161_7643">
<rect width="734" height="549" fill="white"/>
</clipPath>
</defs>
</svg>
