<svg width="734" height="549" viewBox="0 0 734 549" fill="none" xmlns="http://www.w3.org/2000/svg">
<g clip-path="url(#clip0_1161_8053)">
<path d="M587.499 437.362H284.217C278.209 437.362 273.234 432.481 273.234 426.38V131.358C273.234 125.35 278.115 120.375 284.217 120.375H587.593C593.6 120.375 598.575 125.257 598.575 131.358V426.38C598.481 432.481 593.6 437.362 587.499 437.362Z" fill="#94B9FF"/>
<path d="M587.499 437.832H284.217C277.928 437.832 272.859 432.763 272.859 426.474V131.358C272.859 125.069 277.928 120 284.217 120H587.593C593.882 120 598.951 125.069 598.951 131.358V426.38C598.951 432.669 593.788 437.832 587.499 437.832ZM284.217 120.845C278.397 120.845 273.704 125.538 273.704 131.358V426.38C273.704 432.2 278.397 436.893 284.217 436.893H587.593C593.413 436.893 598.106 432.2 598.106 426.38V131.358C598.106 125.538 593.413 120.845 587.593 120.845H284.217Z" fill="#1C85E8"/>
<path d="M561.121 157.359H491.848V162.428H561.121V157.359Z" fill="white"/>
<path d="M580.553 179.136H470.072V184.205H580.553V179.136Z" fill="white"/>
<path d="M569.571 194.061H470.072V199.129H569.571V194.061Z" fill="white"/>
<path d="M558.119 208.985H470.072V214.054H558.119V208.985Z" fill="white"/>
<path d="M580.553 224.004H470.072V229.073H580.553V224.004Z" fill="white"/>
<path d="M551.548 238.929H470.072V243.997H551.548V238.929Z" fill="white"/>
<path d="M402.676 320.968H296.701V326.037H402.676V320.968Z" fill="white"/>
<path d="M571.074 334.766H296.984V339.835H571.074V334.766Z" fill="white"/>
<path d="M424.545 157.359H296.887V292.433H424.545V157.359Z" fill="white"/>
<path d="M317.255 246.532H308.338V277.602H317.255V246.532Z" fill="#A4C4FF"/>
<path d="M333.212 250.944H324.295V277.602H333.212V250.944Z" fill="#A4C4FF"/>
<path d="M349.169 234.048H340.252V277.696H349.169V234.048Z" fill="#A4C4FF"/>
<path d="M365.126 237.145H356.209V277.602H365.126V237.145Z" fill="#A4C4FF"/>
<path d="M381.085 223.159H372.168V277.602H381.085V223.159Z" fill="#A4C4FF"/>
<path d="M397.042 215.65H388.125V277.696H397.042V215.65Z" fill="#A4C4FF"/>
<path d="M412.999 208.891H404.082V277.602H412.999V208.891Z" fill="#A4C4FF"/>
<path d="M327.206 229.542L310.498 222.784L310.78 222.033L327.019 228.51L343.633 214.805L359.121 215.181L405.772 186.364L406.242 187.114L359.402 216.025L343.914 215.65L327.206 229.542Z" fill="#A4C4FF"/>
<path d="M324.952 184.111H306.742V191.714H324.952V184.111Z" fill="#A4C4FF"/>
<path d="M347.951 188.429H330.961V189.273H347.951V188.429Z" fill="#A4C4FF"/>
<path d="M549.298 301.631C560.288 301.631 569.198 292.722 569.198 281.732C569.198 270.741 560.288 261.832 549.298 261.832C538.308 261.832 529.398 270.741 529.398 281.732C529.398 292.722 538.308 301.631 549.298 301.631Z" fill="white"/>
<path d="M492.603 301.631C481.62 301.631 472.703 292.714 472.703 281.732C472.703 271.782 480.025 263.616 489.505 262.114C490.538 261.926 491.57 261.926 492.603 261.926C498.516 261.926 503.773 264.46 507.434 268.59C510.625 272.157 512.502 276.757 512.502 281.826C512.502 292.714 503.585 301.631 492.603 301.631Z" fill="white"/>
<path d="M492.603 281.732L489.506 262.114C490.538 261.926 491.571 261.926 492.603 261.926C498.517 261.926 503.774 264.46 507.434 268.59L492.603 281.732Z" fill="#136AE8"/>
<path d="M571.825 358.702H299.049V411.174H571.825V358.702Z" fill="white"/>
<path d="M572.575 411.924H299.143V358.796H572.575V411.924ZM299.8 411.267H571.918V359.547H299.8V411.267Z" fill="#136AE8"/>
<path d="M572.293 400.848H299.518V401.505H572.293V400.848Z" fill="#136AE8"/>
<path d="M572.293 390.335H299.518V390.992H572.293V390.335Z" fill="#136AE8"/>
<path d="M572.293 379.822H299.518V380.479H572.293V379.822Z" fill="#136AE8"/>
<path d="M572.293 369.309H299.518V369.966H572.293V369.309Z" fill="#136AE8"/>
<path d="M527.05 359.172H526.393V411.643H527.05V359.172Z" fill="#136AE8"/>
<path d="M481.618 359.172H480.961V411.643H481.618V359.172Z" fill="#136AE8"/>
<path d="M436.188 359.172H435.531V411.643H436.188V359.172Z" fill="#136AE8"/>
<path d="M390.757 359.172H390.1V411.643H390.757V359.172Z" fill="#136AE8"/>
<path d="M345.231 359.172H344.574V411.643H345.231V359.172Z" fill="#136AE8"/>
<path d="M306.933 403.289C310.875 397.751 311.72 390.617 315.287 384.797C316.977 381.981 319.323 379.165 322.515 377.851C327.959 375.692 329.367 382.732 329.461 386.58C329.649 392.306 328.71 398.595 333.403 402.913C334.999 404.321 337.064 405.166 339.223 404.603C341.757 403.946 343.353 401.599 344.667 399.44C348.328 393.245 350.581 386.205 353.115 379.447C354.429 376.067 356.025 371.75 359.404 369.872C364.192 367.15 364.661 373.158 364.661 376.255C364.661 379.728 364.661 383.107 364.755 386.58C364.755 388.27 364.473 391.649 366.35 392.588C367.477 393.151 368.416 392.119 369.073 391.274C369.636 390.523 370.011 389.678 370.574 389.021C371.138 388.364 371.607 387.895 372.546 387.895C373.39 387.801 373.86 387.801 374.423 388.646C374.798 389.115 374.892 389.678 375.08 390.241C375.737 392.87 375.08 395.779 376.488 398.126C377.333 399.44 379.022 400.754 380.712 400.567C383.997 400.003 384.842 394.653 385.311 392.025C385.875 388.552 386.344 385.079 387.283 381.699C388.221 378.226 389.535 374.19 392.07 371.562C393.102 370.623 394.417 369.591 395.918 369.778C398.077 370.06 398.734 372.407 399.298 374.19C400.518 378.133 401.175 382.169 401.175 386.299C401.175 389.115 400.33 392.682 402.207 395.122C403.24 396.436 404.93 397.187 406.619 396.812C409.06 396.249 409.623 393.902 410.092 391.743C410.186 391.368 410.28 390.898 410.468 390.523C410.937 389.303 411.125 389.209 412.439 389.115C413.847 389.021 413.941 389.396 414.128 390.523C414.316 391.743 414.222 392.87 414.598 394.09C415.067 395.592 416.1 396.906 417.789 396.436C419.385 395.967 420.23 394.278 420.699 392.87C422.201 388.739 422.013 384.234 422.295 379.916C422.483 377.1 422.67 374.002 423.984 371.468C424.829 369.778 427.364 367.056 429.335 368.84C431.869 371.186 431.588 376.725 431.681 379.916C431.775 386.58 430.649 393.245 431.588 399.91C431.963 402.35 432.62 406.105 435.436 407.043C439.285 408.358 442.101 404.227 443.039 401.13C443.884 398.689 444.072 396.155 444.635 393.714C444.917 392.4 445.386 390.054 447.169 390.804C448.671 391.462 449.328 393.62 450.642 394.559C454.96 397.751 457.589 391.555 458.152 388.27C458.903 383.389 458.152 378.039 459.935 373.439C460.405 372.219 461.155 370.999 462.188 370.342C464.816 368.558 467.445 370.999 468.196 373.439C468.759 375.317 468.665 377.382 468.759 379.353C468.759 381.418 468.853 383.577 468.853 385.642C468.946 389.115 468.571 392.682 468.853 396.155C469.04 398.595 469.885 400.754 472.044 402.162C477.301 405.542 483.402 400.285 486.687 396.53C490.442 392.306 493.07 387.238 494.947 381.981C495.98 379.259 496.919 376.537 498.514 374.19C499.359 372.876 501.706 369.685 503.677 370.529C504.897 371.093 505.367 373.345 505.648 374.566C506.118 376.537 506.305 378.602 506.493 380.667C506.775 384.515 506.868 388.364 506.868 392.306C506.962 395.592 507.244 400.567 510.811 401.881C516.537 403.946 519.259 395.779 520.761 392.025C522.075 388.927 523.671 384.703 526.674 382.826C529.302 381.23 531.086 383.671 532.025 385.83C532.963 387.895 533.433 390.241 533.433 392.494C533.433 394.09 533.339 396.061 535.028 396.812C538.783 398.502 542.256 392.212 543.758 389.772C545.072 387.519 546.105 385.172 547.231 382.826C548.639 379.822 553.238 374.19 555.21 379.916C555.961 382.075 555.679 384.328 555.491 386.58C555.303 389.115 555.116 391.649 555.21 394.09C555.303 397 555.867 403.383 560.185 402.632C562.813 402.256 565.535 399.252 567.6 397.657C570.51 395.216 573.232 392.588 575.86 389.866C576.236 389.49 575.672 388.833 575.203 389.209C572.575 391.931 569.853 394.559 566.943 397C565.347 398.314 563.751 399.628 562.062 400.754C559.903 402.256 557.744 401.599 556.805 399.252C555.116 394.841 556.148 389.303 556.336 384.703C556.43 381.981 556.148 375.692 551.924 376.443C549.39 376.912 547.7 379.634 546.574 381.699C545.354 384.046 544.415 386.487 543.007 388.833C541.693 391.086 540.097 393.808 537.938 395.404C536.249 396.53 534.277 396.061 534.09 393.714C533.996 392.682 534.09 391.649 533.996 390.617C533.62 387.613 532.494 382.732 529.302 381.512C524.797 379.822 521.512 387.331 520.291 390.335C518.977 393.339 517.945 397.187 515.598 399.628C513.908 401.318 511.092 401.881 509.403 399.91C508.089 398.502 507.807 396.249 507.619 394.465C506.962 387.425 507.995 380.198 505.93 373.345C505.367 371.374 504.24 368.934 501.8 369.778C497.67 371.28 495.792 376.631 494.384 380.291C492.131 386.205 489.691 391.837 485.279 396.53C482.745 399.252 479.084 402.538 475.142 402.538C469.979 402.444 469.322 397.281 469.416 393.339C469.603 389.49 469.416 385.548 469.322 381.699C469.228 378.602 469.697 374.847 468.102 372.031C467.163 370.248 465.004 368.746 462.845 369.121C461.062 369.403 459.654 371.186 458.903 372.782C456.932 377.006 457.401 382.169 457.025 386.674C456.744 389.303 456.274 393.714 453.271 394.653C449.422 395.779 449.328 390.054 446.137 389.96C442.758 389.866 442.664 398.032 442.101 400.191C441.35 402.819 439.942 406.011 436.938 406.574C435.061 406.95 433.84 405.729 433.089 404.134C431.4 400.473 431.681 395.873 431.775 391.931C431.869 389.021 432.151 386.111 432.151 383.107C432.245 379.916 432.808 366.399 426.8 367.807C422.67 368.84 421.544 374.19 421.168 377.757C420.699 382.544 421.075 387.425 419.76 392.025C419.385 393.245 418.916 394.653 417.883 395.404C416.851 396.249 415.536 395.498 415.067 394.465C414.692 393.714 414.692 392.776 414.692 392.025C414.598 390.711 414.41 388.646 412.908 388.082C411.125 387.425 409.717 389.209 409.247 390.617C408.59 392.4 408.778 394.747 406.995 395.873C405.211 397.094 403.052 395.967 402.207 394.184C401.269 392.4 401.644 390.147 401.738 388.176C401.832 386.205 401.738 384.234 401.55 382.263C401.175 378.883 400.518 375.223 399.204 372.125C397.326 367.807 393.102 369.027 390.568 372.031C386.25 377.288 385.218 385.173 384.279 391.555C383.997 393.62 383.622 395.779 382.683 397.657C382.214 398.595 381.557 399.722 380.337 400.003C378.365 400.285 376.864 398.126 376.394 396.53C375.737 393.996 376.394 384.891 371.044 387.707C369.354 388.552 369.26 390.617 367.852 391.649C365.6 393.245 365.506 389.678 365.506 388.27C365.506 386.205 365.506 384.14 365.412 381.981C365.412 379.165 365.6 376.255 365.224 373.439C365.036 371.656 364.473 369.591 362.596 368.84C357.621 366.869 353.866 374.847 352.552 378.226C349.736 385.36 347.483 392.963 343.447 399.628C341.288 403.289 337.533 406.011 333.779 402.538C331.057 400.097 330.118 396.53 330.024 393.057C329.93 388.552 331.338 379.353 325.894 377.006C321.201 374.941 316.132 381.512 314.161 384.891C310.782 390.617 309.843 397.657 305.994 403.101C305.901 403.383 306.651 403.758 306.933 403.289Z" fill="#136AE8"/>
<path d="M571.919 548.5H504.805C502.27 548.5 500.111 546.435 500.111 543.807V499.596C500.111 497.061 502.176 494.902 504.805 494.902H571.919C574.453 494.902 576.612 496.967 576.612 499.596V543.807C576.612 546.341 574.547 548.5 571.919 548.5Z" fill="#D1E8F7"/>
<path d="M574.923 518.087H501.801V518.932H574.923V518.087Z" fill="#136AE8"/>
<path d="M538.41 525.878C535.031 525.878 532.309 523.156 532.309 519.777V518.181H544.511V519.777C544.511 523.156 541.789 525.878 538.41 525.878ZM533.06 518.932V519.683C533.06 522.593 535.406 524.94 538.316 524.94C541.226 524.94 543.573 522.593 543.573 519.683V518.932H533.06Z" fill="#136AE8"/>
<path d="M552.864 497.624H552.019V486.642C552.019 485.14 550.799 483.92 549.297 483.92H527.426C525.924 483.92 524.704 485.14 524.704 486.642V497.624H523.859V486.642C523.859 484.671 525.455 483.075 527.426 483.075H549.297C551.268 483.075 552.864 484.671 552.864 486.642V497.624V497.624Z" fill="#136AE8"/>
<path d="M526.394 494.902H522.264V499.314H526.394V494.902Z" fill="#136AE8"/>
<path d="M554.458 494.902H550.328V499.314H554.458V494.902Z" fill="#136AE8"/>
<path d="M359.122 503.069H304.586V548.5H359.122V503.069Z" fill="#D1E8F7"/>
<path d="M363.16 499.783H300.645V509.358H363.16V499.783Z" fill="#1C85E8"/>
<path d="M359.122 548.5H304.586V509.264C304.586 509.264 326.738 542.399 359.122 548.5Z" fill="#D1E8F7"/>
<path d="M641.001 238.553L642.409 222.22C633.116 215.838 627.578 205.325 627.578 194.061C627.578 175.193 642.972 159.799 661.839 159.799C680.706 159.799 696.101 175.193 696.101 194.061C696.101 212.928 680.706 228.322 661.839 228.322C659.305 228.322 656.864 228.04 654.424 227.477L641.001 238.553ZM661.746 160.644C643.348 160.644 628.423 175.569 628.423 193.967C628.423 205.043 633.867 215.368 643.066 221.563L643.254 221.751L642.034 236.488L654.048 226.444L654.236 226.538C656.677 227.102 659.211 227.383 661.746 227.383C680.143 227.383 695.068 212.458 695.068 194.061C695.068 175.663 680.143 160.644 661.746 160.644Z" fill="#1C85E8"/>
<path d="M667.567 201.101H657.523V211.52H667.567V201.101Z" fill="white"/>
<path d="M667.943 211.989H656.961V200.631H667.943V211.989ZM657.9 211.05H667.098V201.476H657.9V211.05Z" fill="#1C85E8"/>
<path d="M670.665 193.873C670.665 189.273 666.816 185.519 662.123 185.706C657.899 185.894 654.426 189.461 654.332 193.779C654.332 195.281 654.708 196.689 655.458 197.909C656.679 200.068 657.524 202.509 657.524 205.043V206.92H667.567V205.043C667.567 202.509 668.318 200.162 669.632 198.003C670.289 196.783 670.665 195.375 670.665 193.873Z" fill="white"/>
<path d="M667.943 207.39H656.961V205.137C656.961 202.79 656.304 200.443 654.99 198.191C654.239 196.877 653.863 195.375 653.863 193.779C653.957 189.273 657.618 185.519 662.03 185.331C664.47 185.237 666.629 186.082 668.413 187.678C670.102 189.273 671.041 191.526 671.041 193.873C671.041 195.375 670.665 196.877 669.914 198.191C668.6 200.443 667.943 202.696 667.943 205.043V207.39V207.39ZM657.9 206.545H667.098V205.043C667.098 202.602 667.755 200.162 669.163 197.721C669.821 196.595 670.196 195.187 670.196 193.873C670.196 191.714 669.351 189.743 667.849 188.335C666.348 186.833 664.282 186.082 662.124 186.176C658.087 186.364 654.802 189.743 654.802 193.779C654.802 195.187 655.177 196.501 655.834 197.721C657.242 200.162 657.9 202.602 657.9 205.137V206.545V206.545Z" fill="#1C85E8"/>
<path d="M660.621 192.934C659.964 193.873 658.932 194.154 658.275 193.685C657.618 193.216 657.524 192.089 658.181 191.245C658.838 190.306 659.87 190.024 660.527 190.494C661.278 190.869 661.278 191.996 660.621 192.934Z" fill="white"/>
<path d="M659.026 194.342C658.65 194.342 658.368 194.248 658.087 194.061C657.618 193.779 657.43 193.216 657.336 192.653C657.336 192.089 657.524 191.526 657.899 190.963C658.275 190.494 658.744 190.024 659.307 189.93C659.87 189.743 660.434 189.837 660.903 190.118C661.372 190.4 661.56 190.963 661.654 191.526C661.654 192.089 661.466 192.653 661.091 193.216C660.715 193.685 660.246 194.154 659.683 194.248C659.401 194.342 659.213 194.342 659.026 194.342ZM659.87 190.681C659.776 190.681 659.589 190.681 659.495 190.775C659.119 190.869 658.838 191.151 658.556 191.526C658.275 191.902 658.181 192.277 658.181 192.653C658.181 192.934 658.275 193.216 658.556 193.403C658.744 193.591 659.026 193.591 659.401 193.497C659.776 193.403 660.058 193.122 660.34 192.746C660.621 192.371 660.715 191.995 660.715 191.62C660.715 191.338 660.621 191.057 660.34 190.869C660.152 190.681 660.058 190.681 659.87 190.681Z" fill="#1C85E8"/>
<path d="M646.875 179.615L646.35 180.276L651.422 184.304L651.948 183.642L646.875 179.615Z" fill="#1C85E8"/>
<path d="M662.178 171.147L661.334 171.174L661.61 179.806L662.455 179.779L662.178 171.147Z" fill="#1C85E8"/>
<path d="M677.102 177.839L671.854 182.944L672.443 183.55L677.691 178.445L677.102 177.839Z" fill="#1C85E8"/>
<path d="M226.676 241.181L215.693 231.983C213.159 232.64 210.625 233.015 207.996 233.015C191.382 233.015 177.865 219.498 177.865 202.884C177.865 186.27 191.382 172.753 207.996 172.753C224.611 172.753 238.127 186.27 238.127 202.884C238.127 212.646 233.434 221.751 225.455 227.477L226.676 241.181ZM215.881 231.044L225.549 239.116L224.517 227.008L224.705 226.82C232.495 221.376 237.189 212.364 237.189 202.79C237.189 186.645 224.047 173.504 207.902 173.504C191.757 173.504 178.616 186.645 178.616 202.79C178.616 218.935 191.757 232.076 207.902 232.076C210.531 232.076 213.065 231.701 215.6 231.044H215.881Z" fill="#1C85E8"/>
<path d="M207.622 212.177L199.174 203.729L199.831 203.072L207.34 210.581L216.07 190.775L216.821 191.151L207.622 212.177Z" fill="#1C85E8"/>
<path d="M369.635 241.839L361.656 246.532L276.895 296.093C274.267 297.595 271.263 297.22 270.043 295.249C268.822 293.277 269.949 290.368 272.483 288.772L355.179 236.207L363.158 231.138L369.635 241.839Z" fill="#1C85E8"/>
<path opacity="0.6" d="M369.635 241.839L361.656 246.532C360.061 245.03 358.747 243.34 357.62 241.463C356.588 239.774 355.837 238.084 355.18 236.3L363.158 231.232L369.635 241.839Z" fill="#1B1B43"/>
<path d="M358.463 244.467C357.243 245.218 355.554 244.842 354.803 243.622C354.052 242.402 354.427 240.712 355.647 239.961C356.868 239.21 358.557 239.586 359.308 240.806C360.059 242.026 359.684 243.716 358.463 244.467Z" fill="white"/>
<path d="M398.544 259.016C421.821 259.016 440.69 240.147 440.69 216.87C440.69 193.594 421.821 174.724 398.544 174.724C375.268 174.724 356.398 193.594 356.398 216.87C356.398 240.147 375.268 259.016 398.544 259.016Z" fill="#1C85E8"/>
<path d="M398.546 251.038C417.416 251.038 432.714 235.74 432.714 216.87C432.714 198 417.416 182.703 398.546 182.703C379.676 182.703 364.379 198 364.379 216.87C364.379 235.74 379.676 251.038 398.546 251.038Z" fill="white"/>
<path d="M384.656 228.416H373.955V294.216H384.656V228.416Z" fill="#A4C4FF"/>
<path d="M403.898 219.686H393.197V294.592H403.898V219.686Z" fill="#A4C4FF"/>
<path d="M423.234 210.393H412.533V293.465H423.234V210.393Z" fill="#A4C4FF"/>
<path d="M411.319 197.847L362.145 213.578L362.545 214.829L411.719 199.099L411.319 197.847Z" fill="#A4C4FF"/>
<path d="M408.216 204.198L407.09 203.447L410.281 198.942L405.588 197.346L406.057 196.126L411.22 197.909C411.501 198.003 411.689 198.191 411.783 198.566C411.877 198.848 411.783 199.223 411.595 199.411L408.216 204.198Z" fill="#A4C4FF"/>
<path d="M314.161 530.759C308.811 530.853 301.114 530.947 296.139 531.041C296.233 528.6 296.326 526.254 296.42 524.001C296.702 518.557 296.983 514.333 296.983 514.333L312.378 514.239C312.378 514.239 312.284 515.741 312.378 518.087C312.471 521.466 312.847 526.535 314.161 530.759Z" fill="#FFBC96"/>
<path d="M320.168 538.362C317.258 537.424 315.381 534.42 314.254 530.853C308.904 530.947 301.207 531.041 296.232 531.135C296.138 536.767 296.138 542.492 296.701 545.684C296.983 547.092 298.109 548.124 299.517 548.124H325.988C328.147 548.124 330.024 546.341 329.742 544.182C329.367 541.554 326.363 540.24 320.168 538.362Z" fill="#1C85E8"/>
<path d="M312.379 518.087L296.422 524.095C296.703 518.65 296.985 514.426 296.985 514.426L312.379 514.333C312.379 514.239 312.285 515.834 312.379 518.087Z" fill="#D28572"/>
<path d="M304.305 547.843C303.742 545.121 302.615 543.337 300.926 542.305C298.767 540.991 296.42 541.648 296.42 541.648L296.139 540.803C296.233 540.803 298.861 540.052 301.395 541.554C303.273 542.68 304.493 544.745 305.15 547.655L304.305 547.843Z" fill="#656590"/>
<path d="M235.22 511.423C235.22 511.423 233.53 515.365 232.31 520.246C231.746 522.593 231.277 525.127 231.089 527.568C226.021 525.784 218.793 523.156 214.1 521.466C216.259 516.116 218.605 510.86 219.825 508.137V508.044C220.389 506.823 220.67 506.166 220.67 506.166L235.22 511.423Z" fill="#FFBC96"/>
<path d="M233.999 536.673C231.559 534.795 230.902 531.322 231.09 527.568C226.021 525.784 218.793 523.156 214.1 521.466C211.941 526.723 209.97 532.073 209.407 535.265C209.125 536.673 209.876 537.987 211.19 538.55L235.877 547.937C237.848 548.688 240.289 547.655 240.852 545.59C241.509 542.962 239.162 540.615 233.999 536.673Z" fill="#1C85E8"/>
<path d="M235.219 511.423C235.219 511.423 233.529 515.365 232.309 520.246L219.449 509.358L219.919 508.044V507.95C220.482 506.729 220.763 506.072 220.763 506.072L235.219 511.423Z" fill="#D28572"/>
<path d="M215.133 539.77L214.382 539.395C217.668 533.012 211.848 529.914 211.566 529.821L211.942 529.07C212.036 528.976 218.888 532.637 215.133 539.77Z" fill="#656590"/>
<path d="M319.886 517.336L291.633 519.589L285.719 418.589L276.989 385.36L265.538 341.9L264.975 339.647L262.252 329.134L261.877 327.538L267.321 327.069L296.608 324.441L298.391 332.42L315.944 411.643C316.507 414.177 316.883 416.805 316.977 419.528L319.886 517.336Z" fill="#5997F2"/>
<path d="M279.148 362.926L276.895 385.36L273.234 421.78C272.859 426.004 271.92 430.134 270.418 434.077L240.381 517.336L215.037 507.574L238.598 422.25C244.699 387.144 243.666 360.204 245.262 343.12C245.356 342.088 245.45 341.055 245.544 340.023C246.201 334.766 247.139 330.636 248.829 327.632L262.158 329.228L271.545 330.354L273.61 338.99L273.985 340.774L279.148 362.926Z" fill="#5997F2"/>
<path opacity="0.6" d="M298.109 332.513L298.39 335.893C298.39 335.893 258.685 346.593 245.168 343.026C245.262 341.994 245.356 340.961 245.45 339.929C246.107 334.672 247.045 330.542 248.735 327.538L262.064 329.134L261.688 327.538L267.133 327.069L296.419 324.441L298.109 332.513Z" fill="#1B1B43"/>
<path d="M285.249 419.058L272.013 366.681L261.125 363.208L261.407 362.363L272.671 365.93L272.764 366.211L286.093 418.87L285.249 419.058Z" fill="#1B1B43"/>
<path d="M305.618 421.405L305.336 420.56C312.282 417.932 316.131 415.491 316.131 415.491L316.6 416.242C316.412 416.336 312.658 418.683 305.618 421.405Z" fill="#1B1B43"/>
<path d="M271.64 430.322C271.546 430.322 264.881 429.665 258.217 427.882L258.405 427.037C264.975 428.82 271.64 429.477 271.64 429.477V430.322Z" fill="#1B1B43"/>
<path d="M217.358 499.963L217.066 500.756L242.878 510.25L243.169 509.457L217.358 499.963Z" fill="#1B1B43"/>
<path d="M319.347 509.859L291.164 511.844L291.223 512.687L319.407 510.701L319.347 509.859Z" fill="#1B1B43"/>
<path d="M259.717 263.334L247.702 268.215C244.229 269.623 241.413 272.345 239.911 275.818L229.867 299.942C227.802 304.823 229.21 310.361 233.152 313.74C236.438 316.556 241.037 317.307 245.073 315.805L253.615 312.708L259.717 263.334Z" fill="#136AE8"/>
<path d="M342.789 241.463C340.536 242.589 337.908 247.283 338.94 248.972C339.785 250.38 341.662 248.503 342.226 247.846C343.352 246.626 346.262 243.528 344.666 241.651C344.197 241.088 343.54 241.088 342.789 241.463Z" fill="#FFBC96"/>
<path d="M337.345 243.153C335.468 244.842 334.248 250.099 335.656 251.413C336.782 252.539 338.096 250.193 338.566 249.442C339.317 248.034 341.288 244.185 339.223 242.871C338.566 242.402 338.002 242.589 337.345 243.153Z" fill="#FFBC96"/>
<path d="M333.778 245.781C331.9 247.377 330.586 252.352 331.9 253.666C333.027 254.698 334.341 252.445 334.81 251.694C335.655 250.286 337.626 246.626 335.655 245.499C334.998 245.124 334.341 245.312 333.778 245.781Z" fill="#FFBC96"/>
<path d="M330.305 247.001C328.428 248.597 327.113 253.572 328.428 254.886C329.554 255.919 330.868 253.666 331.337 252.915C332.182 251.507 334.153 247.846 332.182 246.72C331.525 246.344 330.962 246.532 330.305 247.001Z" fill="#FFBC96"/>
<path d="M259.719 263.522L247.234 285.017C247.234 285.017 250.52 320.592 248.079 324.91C245.733 329.322 240.382 332.701 243.668 335.236C246.953 337.77 272.672 342.088 300.551 335.517C308.248 333.358 302.897 329.322 301.114 327.445C299.33 325.567 296.984 278.446 296.984 278.446L280.932 263.897L269.105 260.706L259.719 263.522Z" fill="#136AE8"/>
<path opacity="0.2" d="M280.65 263.897C278.397 267.746 252.302 271.782 259.624 263.334L267.133 261.738L280.65 263.897Z" fill="#1B1B43"/>
<path d="M314.536 289.241L304.211 273.941C301.864 270.092 297.921 267.37 293.416 266.432L280.932 263.897L288.347 291.682C288.347 291.682 299.893 307.92 310.312 311.675C319.698 315.054 332.089 309.516 338.941 272.908L323.359 270.749L314.536 289.241Z" fill="#136AE8"/>
<path d="M347.483 251.037C345.887 250.85 340.537 258.922 340.537 258.922L331.807 261.926C328.616 263.052 325.988 265.305 324.58 268.403L323.453 270.749L339.035 272.908C339.317 271.5 339.504 270.186 339.786 268.684C345.042 263.803 350.956 251.507 347.483 251.037Z" fill="#FFBC96"/>
<path d="M283.09 229.542L286.281 233.86C286.845 234.611 286.469 235.643 285.624 235.925L282.245 237.239L279.898 231.983L283.09 229.542Z" fill="#D28572"/>
<path d="M262.721 253.478C263.472 245.499 263.19 237.427 263.19 237.427L277.552 238.459C277.458 240.055 277.364 241.745 277.458 243.34C277.552 245.969 277.833 248.597 278.303 251.225C278.49 252.633 278.772 254.041 279.053 255.355L262.721 253.478Z" fill="#FFBC96"/>
<path d="M278.208 251.225C272.106 248.691 269.76 243.247 269.76 243.247L277.363 243.34C277.551 246.063 277.832 248.691 278.208 251.225Z" fill="#D28572"/>
<path d="M262.721 253.478L259.717 263.334C266.663 265.024 273.703 265.117 280.931 263.897L278.959 255.355L262.721 253.478Z" fill="#FFF5E8"/>
<path d="M282.714 222.22L284.216 242.12C284.31 242.965 283.841 243.716 283.09 244.467C281.87 245.687 280.086 246.156 278.397 246.063L268.259 245.593L261.031 237.427L266.663 220.062L276.895 219.874L282.714 222.22Z" fill="#FFBC96"/>
<path d="M266.006 234.048C266.006 234.048 268.634 242.402 263.002 246.626C256.901 244.655 245.543 226.069 259.623 220.155C259.623 220.155 263.471 210.299 274.078 213.96C283.371 217.152 285.811 222.878 285.811 222.878C285.811 222.878 279.241 227.759 271.638 223.253C271.638 223.159 272.482 233.015 266.006 234.048Z" fill="#1B1B43"/>
<path d="M269.76 230.575C271.45 232.64 271.262 235.549 269.385 237.051C267.508 238.553 264.692 238.084 263.002 236.019C261.312 233.954 261.5 231.044 263.377 229.542C265.255 228.134 268.071 228.603 269.76 230.575Z" fill="#FFBC96"/>
<path d="M267.696 235.362C267.696 235.174 266.757 231.795 264.41 232.358L264.316 231.701C266.757 231.138 268.071 233.766 268.447 235.174L267.696 235.362Z" fill="#1B1B43"/>
<path opacity="0.4" d="M280.423 235.318C280.805 233.704 279.805 232.086 278.19 231.705C276.576 231.324 274.958 232.323 274.577 233.938C274.196 235.552 275.195 237.17 276.81 237.551C278.424 237.932 280.042 236.933 280.423 235.318Z" fill="#FE5B52"/>
<path d="M246.858 337.113C244.136 336.456 242.634 335.423 242.164 334.015C241.413 331.669 243.854 329.04 245.919 326.694C246.201 326.318 246.576 325.943 246.858 325.661C247.421 325.004 247.796 324.159 247.984 323.315C249.955 314.116 246.67 285.299 246.67 285.017L247.515 284.923C247.609 286.143 250.8 314.116 248.829 323.502C248.641 324.441 248.172 325.38 247.515 326.224C247.233 326.6 246.858 326.881 246.576 327.257C244.699 329.322 242.446 331.856 243.009 333.64C243.385 334.672 244.699 335.517 247.045 336.08L246.858 337.113Z" fill="#1B1B43"/>
<path d="M298.39 336.362V335.517C301.394 335.423 303.271 334.672 303.741 333.452C304.21 332.232 303.365 330.355 301.3 328.383C300.831 327.914 300.455 327.257 300.268 326.506C298.672 319.278 296.982 295.624 296.982 295.342L297.827 295.249C297.827 295.53 299.517 319.184 301.113 326.318C301.206 326.882 301.488 327.351 301.863 327.82C304.21 330.073 305.055 332.232 304.492 333.828C303.929 335.329 301.863 336.268 298.39 336.362Z" fill="#1B1B43"/>
<path d="M312.94 293.183L312.189 292.808L323.172 270.28L339.035 272.439L338.941 273.284L323.735 271.219L312.94 293.183Z" fill="#1B1B43"/>
<path d="M580.272 237.708C575.015 234.517 573.795 225.412 578.676 222.69C583.557 219.968 586.655 222.408 586.655 222.408C586.655 222.408 603.081 216.401 609.276 231.701C613.97 243.153 610.215 249.16 614.345 254.98C618.945 261.551 626.454 267.464 616.692 279.01L594.07 273.472L588.156 245.593L580.272 237.708Z" fill="#1B1B43"/>
<path d="M658.65 493.682L641.941 501.004C641.941 501.004 644.382 507.199 646.353 514.427L663.531 508.982L658.65 493.682Z" fill="#FFBC96"/>
<path d="M663.624 508.888L646.447 514.333C648.793 522.593 650.671 532.167 648.042 535.265C644.569 539.301 641.566 542.68 640.815 545.496C640.345 547.186 642.129 548.594 643.631 547.749L665.783 536.579C669.444 534.702 671.04 530.29 669.35 526.535L663.624 508.888Z" fill="#1C85E8"/>
<path d="M665.438 514.646L647.969 520.111L648.221 520.917L665.69 515.452L665.438 514.646Z" fill="#656590"/>
<path d="M644.758 539.77L644.57 538.926C648.794 537.987 651.329 536.485 651.892 534.326C652.924 530.759 648.7 526.535 648.607 526.535L649.264 525.878C649.451 526.066 653.957 530.478 652.737 534.514C652.08 536.954 649.358 538.738 644.758 539.77Z" fill="#656590"/>
<path d="M594.35 509.827L575.108 511.611C575.108 511.611 575.577 518.463 575.014 525.315L593.505 525.033L594.35 509.827Z" fill="#FFBC96"/>
<path d="M575.015 525.315C574.452 531.416 573.138 537.518 569.759 538.832C562.625 541.836 556.993 543.901 557.65 548.031H584.965C589.095 548.031 592.474 544.839 592.662 540.709L593.507 525.033L575.015 525.315Z" fill="#1C85E8"/>
<path d="M575.053 529.584L575.039 530.429L592.778 530.724L592.792 529.879L575.053 529.584Z" fill="#656590"/>
<path d="M569.288 542.211C568.068 542.211 566.754 542.023 565.158 541.648L565.346 540.803C569.288 541.648 571.917 541.366 573.043 540.052C574.545 538.175 573.043 534.889 573.043 534.889L573.888 534.514C573.982 534.702 575.671 538.362 573.794 540.615C572.855 541.648 571.353 542.211 569.288 542.211Z" fill="#656590"/>
<path d="M594.07 514.333C593.882 514.427 593.601 514.427 593.413 514.52C589.565 515.365 576.799 514.52 576.799 514.52C576.236 514.427 575.672 514.239 575.109 514.051C563.188 509.733 564.033 488.895 565.816 470.685C567.506 453.977 560.466 368.746 565.347 339.835L595.478 333.264L595.666 338.333L596.041 348.659L596.698 366.962C596.698 366.962 597.825 384.703 599.421 406.95C601.767 440.272 605.053 483.732 606.836 492.556C609.558 506.823 598.857 513.019 594.07 514.333Z" fill="#136AE8"/>
<path d="M662.217 495.935C661.56 496.686 660.809 497.437 660.058 498C656.021 501.098 650.577 502.224 645.696 503.538C644.851 503.726 644.006 503.913 643.068 504.007C638.562 504.571 633.681 503.538 631.616 499.783C620.915 480.259 608.9 441.586 599.326 407.043C592.38 381.793 586.654 358.702 583.932 346.969C582.712 341.806 582.055 338.803 582.055 338.803L595.759 338.427L618.944 337.77C619.601 340.868 620.258 344.153 621.103 347.626C628.988 381.418 644.664 427.976 650.765 445.716C654.426 456.417 659.964 465.898 662.404 477.068C663.718 482.887 666.722 490.772 662.217 495.935Z" fill="#136AE8"/>
<path d="M621.102 347.532C611.622 349.128 603.268 349.316 596.134 348.752C591.628 348.377 587.592 347.814 584.025 346.969C571.822 344.247 565.439 339.929 565.439 339.929L595.571 333.358L595.758 338.427L618.943 337.77C619.506 340.774 620.257 344.059 621.102 347.532Z" fill="#5997F2"/>
<path d="M598.951 407.137L589.658 374.19L580.084 370.717L580.366 369.872L590.409 373.533V373.721L599.796 406.856L598.951 407.137Z" fill="#1B1B43"/>
<path d="M656.02 499.971L655.269 499.502C659.775 491.711 650.764 467.681 639.406 437.362C628.33 407.888 614.625 371.186 609.65 338.427L610.495 338.333C615.47 370.999 629.175 407.7 640.251 437.174C651.609 467.681 660.714 491.805 656.02 499.971Z" fill="#1B1B43"/>
<path d="M571.824 311.863C570.791 319.372 569.102 329.228 569.102 329.228H551.549L555.867 305.762L556.899 299.942C556.899 299.942 572.012 303.509 572.669 303.509C572.95 303.415 572.481 307.263 571.824 311.863Z" fill="#FFBC96"/>
<path d="M571.825 311.863L570.98 313.646L555.773 305.668L556.806 299.848C556.806 299.848 571.918 303.415 572.576 303.415C572.951 303.415 572.482 307.263 571.825 311.863Z" fill="#D28572"/>
<path d="M568.069 306.513C568.069 306.513 570.978 323.408 565.44 339.835C565.44 339.835 592.943 348.283 618.944 337.582L612.937 299.566L614.908 280.23L575.109 280.699L561.592 285.111L568.069 306.513Z" fill="#5997F2"/>
<path d="M626.171 278.165C624.387 273.19 620.351 269.248 615.282 267.746L607.773 265.493C604.769 269.905 599.419 275.443 591.534 275.443C582.335 275.443 576.516 270.186 573.324 265.868L568.161 267.089C562.623 268.403 558.305 272.815 557.085 278.353L551.359 303.321L568.068 306.513L568.537 287.364L611.903 285.393L613.03 299.566C613.03 299.566 625.514 294.122 633.868 299.754L626.171 278.165Z" fill="#5997F2"/>
<path d="M645.133 276.569C642.692 281.262 639.501 301.631 637.999 317.401C637.53 322.564 636.028 326.694 633.963 329.698C630.959 334.109 626.641 336.174 622.511 335.705C620.915 335.517 619.319 335.048 617.818 334.109C610.684 329.885 611.622 311.769 612.373 303.603C612.655 301.162 612.843 299.566 612.843 299.566C617.067 297.22 623.731 296.938 623.731 296.938C623.825 295.999 623.919 295.061 624.013 294.122C624.951 285.956 626.266 276.663 627.486 270.468C628.8 263.616 631.522 266.15 631.522 266.15C632.836 263.709 634.901 265.775 634.901 265.775C636.685 261.926 638.937 265.587 638.937 265.587C641.753 261.551 643.255 267.558 643.255 267.558C643.255 267.558 651.891 260.424 653.299 262.489C653.956 263.709 648.512 269.905 645.133 276.569Z" fill="#FFBC96"/>
<path d="M576.986 324.723H539.627V329.228H576.986V324.723Z" fill="white"/>
<path d="M555.584 329.228H517.099C515.221 329.228 513.532 328.196 512.781 326.506L497.762 293.934C497.293 292.808 498.044 291.588 499.264 291.588H535.403C537.186 291.588 538.782 292.62 539.439 294.216L555.584 329.228Z" fill="#1F2D49"/>
<path d="M568.255 329.228C567.786 331.012 567.129 332.607 566.284 334.015C564.219 337.488 560.934 339.929 555.865 340.492C554.082 340.68 552.204 340.774 549.951 340.492C532.305 338.709 527.236 329.134 527.236 329.134C527.236 329.134 525.265 325.004 529.395 325.943C529.395 325.943 530.146 323.315 533.431 326.037C533.431 326.037 533.055 322.845 536.247 325.755C536.247 325.755 535.778 322.47 539.251 325.286C542.724 328.102 545.352 328.947 549.576 329.134C553.612 329.416 568.255 329.228 568.255 329.228Z" fill="#FFBC96"/>
<path d="M567.32 287.447L566.477 287.496L567.588 306.612L568.431 306.563L567.32 287.447Z" fill="#1C85E8"/>
<path d="M589.658 282.295C587.593 282.295 585.716 282.013 584.12 281.732C578.863 280.511 575.766 278.071 575.672 277.977L576.235 277.32C576.329 277.414 588.344 287.082 605.615 276.663L606.085 277.414C599.795 281.169 594.164 282.295 589.658 282.295Z" fill="#1C85E8"/>
<path d="M612.602 290.915L611.76 290.979L612.424 299.683L613.266 299.619L612.602 290.915Z" fill="#1C85E8"/>
<path d="M599.045 304.072C596.229 304.072 593.788 301.913 593.507 299.097L592.756 292.808L604.958 291.963L604.583 298.815C604.489 301.631 602.049 303.978 599.045 304.072C599.045 304.072 599.139 304.072 599.045 304.072ZM593.788 293.559L594.352 299.003C594.633 301.444 596.698 303.227 599.139 303.227C601.579 303.227 603.644 301.256 603.738 298.815L604.02 292.996L593.788 293.559Z" fill="#1C85E8"/>
<path d="M623.278 296.994L620.088 319.294L620.924 319.414L624.114 297.114L623.278 296.994Z" fill="#D28572"/>
<path d="M639.283 265.643L638.637 265.76L639.308 269.454L639.955 269.337L639.283 265.643Z" fill="#D28572"/>
<path d="M635.244 265.744L634.598 265.861L635.269 269.555L635.916 269.438L635.244 265.744Z" fill="#D28572"/>
<path d="M631.859 265.94L631.213 266.058L631.885 269.752L632.531 269.635L631.859 265.94Z" fill="#D28572"/>
<path d="M642.598 265.203L641.982 265.433L644.05 270.974L644.666 270.744L642.598 265.203Z" fill="#D28572"/>
<path d="M623.731 297.032L612.279 303.697C612.561 301.256 612.749 299.66 612.749 299.66C617.066 297.314 623.731 297.032 623.731 297.032Z" fill="#D28572"/>
<path opacity="0.4" d="M633.964 329.698C630.96 334.109 626.642 336.174 622.512 335.705C622.512 335.423 622.418 335.142 622.418 334.766C622.418 330.918 625.516 327.914 629.27 327.914C631.148 327.914 632.743 328.665 633.964 329.698Z" fill="#FE5B52"/>
<path opacity="0.4" d="M566.286 334.015C564.221 337.488 560.936 339.929 555.867 340.492C555.867 340.304 555.867 340.023 555.867 339.835C555.867 335.987 558.965 332.983 562.719 332.983C564.034 332.983 565.254 333.358 566.286 334.015Z" fill="#FE5B52"/>
<path d="M540.566 330.448C538.783 330.073 536.624 327.351 535.873 325.943L536.436 325.661C537.187 327.163 539.252 329.51 540.66 329.791L540.566 330.448Z" fill="#D28572"/>
<path d="M536.436 330.918C534.934 329.416 533.62 327.445 533.057 326.131L533.714 325.849C534.277 327.069 535.591 328.947 536.999 330.355L536.436 330.918Z" fill="#D28572"/>
<path d="M532.305 330.824C530.803 329.322 529.489 327.351 528.926 326.037L529.583 325.755C530.146 326.975 531.46 328.853 532.868 330.261L532.305 330.824Z" fill="#D28572"/>
<path d="M607.775 265.493C604.771 269.905 599.421 275.443 591.536 275.443C582.337 275.443 576.518 270.186 573.326 265.868L582.807 263.522C582.994 261.832 583.276 260.142 583.37 258.547C583.464 257.326 583.558 256.106 583.745 254.98C583.933 253.102 584.027 251.507 584.121 250.099C584.215 248.128 584.309 246.72 584.309 245.875C584.309 245.405 584.309 245.124 584.309 245.124L597.638 239.773C597.638 239.773 597.168 257.139 601.204 263.428L607.775 265.493Z" fill="#FFBC96"/>
<path d="M595.01 251.601C595.01 251.601 591.443 255.731 583.559 258.547C583.652 257.326 583.746 256.106 583.934 254.98C584.122 253.102 584.216 251.507 584.31 250.099L595.01 251.601Z" fill="#D28572"/>
<path d="M580.835 228.979C580.835 228.979 573.983 247.47 578.864 250.944C583.182 253.947 588.908 254.323 594.54 252.915L598.2 240.337L595.948 228.04L580.835 228.979Z" fill="#FFBC96"/>
<path d="M596.418 240.431C596.418 240.431 591.631 242.308 589.565 235.549C587.97 230.105 580.836 229.073 580.836 229.073L583.746 226.444L597.45 226.069L602.519 232.17L600.829 240.149L596.418 240.431Z" fill="#1B1B43"/>
<path d="M602.559 244.254C604.114 241.56 603.664 238.389 601.554 237.171C599.444 235.953 596.473 237.149 594.918 239.842C593.362 242.536 593.812 245.707 595.922 246.925C598.032 248.144 601.003 246.948 602.559 244.254Z" fill="#FFBC96"/>
<path d="M597.167 244.467H596.51C596.51 244.467 596.604 240.243 600.734 239.773L600.828 240.431C597.261 240.9 597.167 244.279 597.167 244.467Z" fill="#1B1B43"/>
<path d="M579.897 238.741C580.312 238.741 580.648 238.405 580.648 237.99C580.648 237.575 580.312 237.239 579.897 237.239C579.483 237.239 579.146 237.575 579.146 237.99C579.146 238.405 579.483 238.741 579.897 238.741Z" fill="#1B1B43"/>
<path d="M585.905 239.023C585.905 239.492 585.529 239.961 584.966 239.961C584.497 239.961 584.027 239.586 584.027 239.023C584.027 238.553 584.403 238.084 584.966 238.084C585.435 238.084 585.905 238.553 585.905 239.023Z" fill="#1B1B43"/>
<path d="M581.587 236.3H579.335C579.053 236.3 578.771 236.019 578.771 235.737C578.771 235.456 579.053 235.174 579.335 235.174H581.587C581.869 235.174 582.151 235.456 582.151 235.737C582.151 236.019 581.869 236.3 581.587 236.3Z" fill="#1B1B43"/>
<path d="M587.313 237.896L584.779 236.864C584.497 236.77 584.31 236.394 584.497 236.113C584.591 235.831 584.967 235.643 585.248 235.831L587.783 236.864C588.064 236.957 588.252 237.333 588.064 237.615C587.971 237.802 587.595 237.99 587.313 237.896Z" fill="#1B1B43"/>
<path d="M579.616 243.716C579.522 243.716 579.334 243.622 579.334 243.528C578.865 242.402 578.865 241.651 579.334 241.088C579.804 240.524 580.555 240.431 580.93 240.431L581.775 238.741C581.869 238.553 582.057 238.553 582.244 238.553C582.432 238.647 582.432 238.835 582.432 239.023L581.399 241.088H581.212C581.212 241.088 580.367 240.994 579.991 241.463C579.71 241.839 579.804 242.402 580.085 243.246C580.179 243.434 580.085 243.622 579.898 243.716C579.71 243.716 579.616 243.716 579.616 243.716Z" fill="#1B1B43"/>
<path d="M579.711 246.626C581.025 248.409 582.621 247.658 583.747 246.72C582.245 246.907 580.837 246.813 579.711 246.626Z" fill="#1B1B43"/>
<path d="M583.748 246.72C584.405 246.156 584.874 245.593 584.968 245.405C581.683 245.593 579.43 245.405 579.055 245.312C579.242 245.875 579.524 246.25 579.712 246.532C580.838 246.813 582.246 246.907 583.748 246.72Z" fill="white"/>
<path opacity="0.4" d="M591.631 243.153C591.631 244.467 590.598 245.499 589.284 245.499C587.97 245.499 586.938 244.467 586.938 243.153C586.938 241.839 587.97 240.806 589.284 240.806C590.598 240.806 591.631 241.839 591.631 243.153Z" fill="#FE5B52"/>
<path d="M734.4 547.561H140.789V548.406H734.4V547.561Z" fill="#1B1B43"/>
</g>
<defs>
<clipPath id="clip0_1161_8053">
<rect width="734" height="549" fill="white"/>
</clipPath>
</defs>
</svg>
