<svg width="734" height="549" viewBox="0 0 734 549" fill="none" xmlns="http://www.w3.org/2000/svg">
<g clip-path="url(#clip0_1168_20022)">
<path d="M59.1907 442.915C57.8451 440.017 56.6029 437.015 55.4643 434.117L59.0872 433.599C60.2258 436.497 61.468 439.396 62.8137 442.294L59.1907 442.915ZM716.182 443.226L712.455 443.019C712.973 440.017 713.387 437.015 713.801 434.117L717.527 434.324C717.113 437.222 716.699 440.224 716.182 443.226ZM52.1519 425.215C51.1168 422.213 50.0817 419.314 49.1501 416.313L52.8765 415.898C53.8081 418.797 54.8432 421.799 55.8783 424.697L52.1519 425.215ZM718.666 425.215L714.939 425.008C715.25 422.006 715.561 419.004 715.871 416.002L719.597 416.106C719.287 419.211 719.08 422.213 718.666 425.215ZM46.4587 407.514C45.6306 404.512 44.9061 401.51 44.1815 398.612L47.9079 398.301C48.529 401.2 49.3571 404.202 50.0817 407.203L46.4587 407.514ZM720.219 407.203L716.492 407.1C716.699 404.098 716.803 401.096 716.906 398.094H720.633C720.529 401.096 720.426 404.202 720.219 407.203ZM42.4218 389.503C41.9042 386.501 41.3867 383.499 41.0761 380.497L44.8026 380.394C45.2166 383.292 45.6307 386.398 46.1482 389.296L42.4218 389.503ZM716.906 389.089C716.906 386.087 716.803 383.085 716.699 380.083H720.426C720.529 383.085 720.633 386.087 720.633 389.089H716.906ZM40.041 371.492C39.834 368.49 39.627 365.385 39.627 362.486H43.3534C43.4569 365.385 43.5604 368.49 43.7674 371.492H40.041ZM716.182 371.181C715.975 368.179 715.664 365.178 715.25 362.176L718.976 362.072C719.287 365.074 719.597 368.076 719.908 371.078L716.182 371.181ZM43.5604 353.481L39.834 353.377C39.9375 350.375 40.1445 347.27 40.455 344.372L44.1815 344.579C43.8709 347.477 43.6639 350.479 43.5604 353.481ZM714.008 353.274C713.49 350.272 712.973 347.27 712.352 344.372L716.078 344.165C716.699 347.063 717.217 350.168 717.734 353.17L714.008 353.274ZM45.4236 335.573L41.6972 335.366C42.2148 332.364 42.8358 329.362 43.5604 326.361L47.2868 326.671C46.5623 329.569 45.9412 332.571 45.4236 335.573ZM710.385 335.366C709.66 332.364 708.832 329.362 707.901 326.464L711.627 326.05C712.559 328.948 713.387 331.95 714.111 334.952L710.385 335.366ZM265.49 331.95C260.315 331.433 256.485 329.983 251.309 327.499L253.69 325.74C258.244 327.913 261.557 329.259 265.904 329.673L265.49 331.95ZM278.636 326.775L275.324 325.74C277.084 323.773 278.636 320.978 279.878 317.459L283.501 317.976C282.156 321.703 280.499 324.601 278.636 326.775ZM240.337 321.081C237.335 319.115 234.126 316.734 230.607 314.043L233.609 312.697C237.128 315.388 240.233 317.666 243.235 319.632L240.337 321.081ZM49.8746 317.873L46.1482 317.459C47.1833 314.457 48.2185 311.558 49.4606 308.66L53.0835 309.178C51.9449 311.972 50.9098 314.974 49.8746 317.873ZM704.899 317.769C703.76 314.767 702.622 311.869 701.379 309.074L705.002 308.557C706.244 311.455 707.487 314.353 708.522 317.355L704.899 317.769ZM286.089 308.971L282.363 308.66C282.984 305.969 283.501 303.07 284.019 299.758L287.745 299.965C287.228 303.381 286.71 306.279 286.089 308.971ZM221.394 306.693C218.392 304.209 215.183 301.621 212.492 299.344L215.597 298.102C218.289 300.379 221.498 302.967 224.499 305.451L221.394 306.693ZM496.736 308.453C493.838 308.453 490.939 307.935 488.248 306.797L490.318 304.934C494.459 306.486 498.496 306.59 502.843 305.348L504.396 307.418C501.808 308.142 499.22 308.453 496.736 308.453ZM57.224 300.586L53.6011 299.861C55.1538 296.963 56.81 294.065 58.5697 291.27L62.0891 292.098C60.3294 294.893 58.7767 297.688 57.224 300.586ZM516.714 301.621L513.919 300.069C516.817 298.205 519.819 296.032 523.339 293.237L526.341 294.582C522.821 297.481 519.716 299.758 516.714 301.621ZM477.586 299.861C475.206 297.584 472.825 294.996 470.237 291.788L473.653 290.856C476.137 293.961 478.414 296.549 480.692 298.723L477.586 299.861ZM697.239 300.379C695.79 297.481 694.134 294.582 692.477 291.891L695.997 291.166C697.653 293.961 699.309 296.86 700.758 299.758L697.239 300.379ZM203.59 291.995C200.174 289.2 197.276 286.819 194.584 284.749L197.586 283.403C200.278 285.577 203.176 287.854 206.592 290.752L203.59 291.995ZM288.987 290.959L285.261 290.752C285.572 288.165 285.882 285.163 286.193 281.747L289.919 281.85C289.609 285.37 289.298 288.268 288.987 290.959ZM67.7822 283.921L64.3663 282.989C66.4366 280.194 68.7138 277.503 70.9911 274.812L74.3035 275.847C72.0262 278.538 69.8525 281.229 67.7822 283.921ZM535.036 287.129L531.93 285.887C534.622 283.507 537.416 280.919 540.211 278.331L543.317 279.573C540.522 282.161 537.83 284.749 535.036 287.129ZM464.233 283.3C462.577 280.712 460.817 277.917 458.954 274.812L462.474 274.087C464.337 277.192 466.097 279.987 467.753 282.575L464.233 283.3ZM687.095 283.507C685.128 280.712 682.954 277.917 680.78 275.329L684.093 274.294C686.267 276.882 688.44 279.677 690.511 282.575L687.095 283.507ZM185.372 277.606C181.956 275.019 178.851 272.845 175.745 270.671L178.54 269.222C181.645 271.396 184.854 273.673 188.27 276.261L185.372 277.606ZM290.747 272.948L287.021 272.845C287.331 269.843 287.538 266.841 287.849 263.839L291.575 263.943C291.265 266.945 291.058 269.947 290.747 272.948ZM551.701 272.12L548.596 270.878C551.804 268.083 554.599 265.599 557.291 263.425L560.396 264.771C557.601 266.945 554.806 269.325 551.701 272.12ZM81.8599 268.187L78.651 266.945C81.6528 264.253 84.6547 261.769 87.7601 259.595L90.6584 261.044C87.76 263.218 84.7582 265.599 81.8599 268.187ZM453.986 266.22C452.329 263.218 450.57 260.216 449.224 257.629L452.847 256.904C454.296 259.492 455.952 262.494 457.609 265.495L453.986 266.22ZM165.498 264.046C161.668 261.769 157.941 259.802 154.318 258.146L156.596 256.386C160.322 258.146 164.152 260.216 168.085 262.494L165.498 264.046ZM673.535 267.566C670.843 264.978 668.049 262.39 665.15 260.113L668.152 258.767C671.05 261.148 673.949 263.632 676.744 266.324L673.535 267.566ZM101.32 255.144L99.0429 253.385C103.597 251.418 108.255 249.969 113.017 249.141L114.052 251.314C109.705 251.935 105.461 253.281 101.32 255.144ZM569.402 257.732L566.503 256.283C570.023 253.695 573.438 251.521 576.751 249.555L579.442 251.107C576.13 253.074 572.817 255.144 569.402 257.732ZM292.507 254.834L288.78 254.627C289.091 251.418 289.505 248.416 289.816 245.621L293.542 245.828C293.231 248.727 292.817 251.625 292.507 254.834ZM141.897 253.385C137.239 251.935 132.581 251.004 128.233 250.693L128.751 248.52C133.616 248.934 138.584 249.969 143.657 251.521L141.897 253.385ZM655.524 253.281C651.901 251.004 648.174 249.037 644.448 247.381L646.725 245.621C650.659 247.381 654.592 249.451 658.318 251.728L655.524 253.281ZM444.463 249.037C442.599 245.725 441.047 242.93 439.701 240.446L443.22 239.721C444.67 242.205 446.222 245 447.982 248.312L444.463 249.037ZM590.725 245.518L588.551 243.654C593.209 241.791 597.867 240.342 602.422 239.514L603.561 241.688C599.317 242.412 594.969 243.758 590.725 245.518ZM631.716 243.033C627.058 241.791 622.4 241.067 617.742 240.756L618.156 238.479C623.228 238.789 628.3 239.617 633.268 240.86L631.716 243.033ZM294.784 236.926L291.058 236.719C291.575 233.614 292.093 230.508 292.61 227.714L296.337 228.024C295.819 230.819 295.302 233.821 294.784 236.926ZM434.732 231.958C432.973 228.956 431.213 226.161 429.557 223.47L433.076 222.745C434.732 225.436 436.492 228.231 438.252 231.233L434.732 231.958ZM298.407 219.019L294.681 218.708C295.509 215.603 296.337 212.601 297.268 209.806L300.995 210.22C299.96 213.015 299.132 215.913 298.407 219.019ZM424.071 215.085C422.104 212.187 420.034 209.392 418.067 206.804L421.483 205.873C423.45 208.46 425.52 211.255 427.59 214.257L424.071 215.085ZM304.1 201.422L300.477 200.904C301.823 197.799 303.272 194.9 304.825 192.209L308.344 192.934C306.895 195.521 305.446 198.42 304.1 201.422ZM411.442 198.73C408.958 195.935 406.474 193.348 403.989 190.967L407.198 189.828C409.786 192.209 412.27 194.9 414.755 197.799L411.442 198.73ZM314.141 184.756L310.725 183.721C313.209 180.719 316.004 178.131 318.902 175.958L321.801 177.407C319.109 179.477 316.522 181.961 314.141 184.756ZM395.398 183.617C392.085 181.133 388.773 178.959 385.357 177.096L387.841 175.44C391.361 177.407 394.88 179.684 398.296 182.272L395.398 183.617ZM332.462 171.714L330.496 169.85C334.947 168.194 339.915 167.159 345.091 166.641L345.609 168.815C340.847 169.229 336.396 170.161 332.462 171.714ZM373.557 171.921C369.209 170.471 364.655 169.54 359.997 169.022L360.721 166.849C365.69 167.366 370.658 168.505 375.42 170.057L373.557 171.921Z" fill="white"/>
<path d="M219.529 385.673V451.403C219.529 453.68 219.115 455.75 218.287 457.614H159.389C158.561 455.75 158.146 453.577 158.146 451.403V385.673C158.146 377.392 164.254 370.56 171.707 370.56H205.969C213.422 370.56 219.529 377.392 219.529 385.673Z" fill="#136AE8"/>
<path d="M276.464 450.057C273.358 450.057 270.253 448.401 268.597 445.503L223.155 367.041C220.671 362.693 222.12 357.104 226.467 354.619C230.815 352.135 236.404 353.584 238.889 357.932L284.331 436.394C286.815 440.741 285.366 446.331 281.018 448.815C279.569 449.643 278.016 450.057 276.464 450.057Z" fill="#F8FDFF"/>
<path d="M245.099 362.486C244.995 380.808 217.15 380.808 217.047 362.486C217.15 344.165 244.995 344.165 245.099 362.486Z" fill="#1F2D49"/>
<path d="M190.441 249.658H187.129V269.946H190.441V249.658Z" fill="#F8FDFF"/>
<path d="M180.196 271.913C180.3 269.947 179.368 265.496 182.577 265.599H194.999C196.344 265.599 197.379 266.738 197.379 267.98C197.276 269.947 198.208 274.398 194.999 274.294H182.577C181.335 274.398 180.196 273.259 180.196 271.913Z" fill="#4F69B2"/>
<path d="M146.761 321.91C144.173 321.806 138.687 322.841 138.791 318.701V301.104C138.687 296.963 144.173 297.895 146.761 297.895C148.521 297.895 149.97 299.344 149.97 301.104V318.701C149.97 320.46 148.521 321.91 146.761 321.91Z" fill="#136AE8"/>
<path d="M235.782 321.91C233.195 321.806 227.708 322.841 227.812 318.701V301.104C227.708 296.963 233.195 297.895 235.782 297.895C237.542 297.895 238.991 299.344 238.991 301.104V318.701C238.991 320.46 237.542 321.91 235.782 321.91Z" fill="#136AE8"/>
<path d="M175.642 279.573C175.849 276.571 174.4 269.843 179.368 269.946H198.414C203.279 269.843 201.934 276.571 202.141 279.573C202.141 281.643 200.485 283.3 198.414 283.3H179.368C177.298 283.3 175.642 281.643 175.642 279.573Z" fill="#F8FDFF"/>
<path d="M185.889 329.984C188.89 330.191 195.619 328.741 195.515 333.71V352.756C195.619 357.621 188.89 356.276 185.889 356.483C183.818 356.483 182.162 354.826 182.162 352.756V333.71C182.162 331.64 183.818 329.984 185.889 329.984Z" fill="#4F69B2"/>
<path d="M214.356 343.13H163.324C152.87 343.13 144.278 334.538 144.278 324.083C145.106 307.832 138.274 277.089 163.324 276.571H214.356C224.811 276.571 233.402 285.163 233.402 295.618C232.574 311.869 239.406 342.612 214.356 343.13Z" fill="#F8FDFF"/>
<path d="M209.489 332.054H168.291C161.356 332.054 155.663 326.36 155.663 319.425C156.18 308.66 151.626 288.061 168.291 287.75H209.489C216.424 287.75 222.118 293.444 222.118 300.379C221.6 311.144 226.155 331.743 209.489 332.054Z" fill="#136AE8"/>
<path d="M195.103 249.658C195.103 257.939 182.475 257.939 182.475 249.658C182.578 241.481 195.103 241.481 195.103 249.658Z" fill="#136AE8"/>
<path d="M180.402 309.902C180.402 316.63 170.154 316.63 170.051 309.902C170.051 303.174 180.298 303.174 180.402 309.902Z" fill="#F8FDFF"/>
<path d="M207.629 309.902C207.629 316.63 197.381 316.63 197.277 309.902C197.381 303.174 207.629 303.174 207.629 309.902Z" fill="#F8FDFF"/>
<path d="M219.529 383.189V423.144H158.146V383.189C158.146 376.253 164.254 370.664 171.707 370.664H205.969C213.422 370.56 219.529 376.253 219.529 383.189Z" fill="#1F2D49"/>
<path d="M238.991 366.834V398.922C238.991 406.996 232.469 413.518 224.395 413.518H153.386C145.312 413.518 138.791 406.996 138.791 398.922V366.834C138.791 358.76 145.312 352.239 153.386 352.239H224.395C232.469 352.239 238.991 358.76 238.991 366.834Z" fill="#F8FDFF"/>
<path d="M155.354 358.449C155.251 376.771 127.406 376.771 127.303 358.449C127.406 340.128 155.354 340.128 155.354 358.449Z" fill="#1F2D49"/>
<path d="M95.9377 446.02C89.2094 446.227 84.4478 438.257 88.0708 432.357L133.513 353.895C139.62 343.647 155.043 352.549 149.246 363.004L103.805 441.466C102.148 444.364 99.043 446.02 95.9377 446.02Z" fill="#F8FDFF"/>
<path d="M110.015 436.911C109.911 455.233 82.0664 455.233 81.9629 436.911C82.0664 418.59 109.911 418.59 110.015 436.911Z" fill="#1F2D49"/>
<path d="M178.952 427.699H164.874L167.876 424.49C171.913 420.246 165.081 413.932 161.148 418.383L152.556 427.802L96.3493 427.906C91.3807 427.906 87.2402 431.943 87.2402 437.015C87.2402 442.087 91.2772 446.124 96.3493 446.124H179.055C190.959 445.71 190.959 427.802 178.952 427.699Z" fill="#F8FDFF"/>
<path d="M343.434 440.845H241.268L261.659 366.006H363.205L343.434 440.845Z" fill="#163260"/>
<path d="M343.434 440.534H241.268V445.607H343.434V440.534Z" fill="#234270"/>
<path d="M263.212 366.006H259.486L239.612 440.534H191.168V445.606H243.027V441.052L263.212 366.006Z" fill="#0B274F"/>
<path d="M590.623 325.118C590.623 325.118 571.68 325.118 553.255 343.647C537.832 359.174 523.961 384.12 523.961 384.12L573.75 392.091C573.75 392.091 592.9 336.608 590.623 325.118Z" fill="#136AE8"/>
<path d="M673.746 445.296C673.539 449.333 673.125 453.473 672.504 457.614H548.703C548.393 454.198 548.289 449.954 548.496 445.296C549.324 423.558 555.225 391.159 561.539 375.115C570.027 353.377 585.243 335.677 597.354 325.118L616.193 323.876C647.764 342.198 677.162 389.399 673.746 445.296Z" fill="#136AE8"/>
<path d="M559.983 380.083C560.293 380.083 560.501 379.876 560.604 379.566C562.467 370.56 568.885 363.004 567.85 361.761C566.194 361.451 561.846 370.663 559.362 379.255C559.258 379.669 559.569 380.083 559.983 380.083Z" fill="white"/>
<path d="M633.064 371.492C645.796 381.74 674.573 403.477 664.842 420.867C652.421 427.906 630.373 427.595 613.604 429.976C608.842 430.287 608.118 437.533 612.672 438.878C628.406 443.536 644.761 446.435 661.323 445.606C668.776 445.089 676.953 443.433 682.75 437.843C690.41 430.183 694.861 418.693 694.033 407.825C691.756 381.636 671.571 361.555 651.593 346.856C634.824 334.02 615.985 359.07 633.064 371.492Z" fill="#F99370"/>
<path d="M628.82 368.904C660.391 407.617 664.324 413.725 618.883 429.562C623.851 435.359 620.435 441.052 620.435 441.052C747.548 478.316 706.247 321.599 616.191 323.876C616.812 333.71 621.367 358.553 628.82 368.904Z" fill="#136AE8"/>
<path d="M586.586 440.327C586.586 440.327 591.969 424.179 614.12 429.976L618.364 440.327H586.586Z" fill="#F99370"/>
<path d="M587.827 440.017C588.448 440.017 593.831 434.323 601.697 433.495C602.008 433.495 602.319 433.185 602.215 432.771C598.385 430.39 583.893 440.017 587.827 440.017Z" fill="#E57D61"/>
<path d="M593.83 440.224C599.834 438.05 600.351 437.636 604.699 436.808C604.699 436.497 604.595 435.876 604.492 435.566C599.834 436.497 599.834 436.497 593.726 438.982C593.002 439.085 593.002 440.224 593.83 440.224Z" fill="#E57D61"/>
<path d="M625.611 442.604C623.851 442.087 621.988 441.466 620.435 441.052C620.435 441.052 623.748 435.359 618.883 429.562C618.883 429.562 621.367 428.734 624.783 427.492C624.887 427.492 630.89 435.152 625.611 442.604Z" fill="white"/>
<path d="M624.682 428.837C623.75 428.941 654.493 419.004 654.079 405.961C654.079 390.745 629.236 368.593 628.201 367.662C627.58 367.144 626.648 368.076 627.373 368.697C627.27 369.007 663.395 400.061 649.628 413.31C639.277 423.455 620.955 427.388 624.682 428.837Z" fill="white"/>
<path d="M635.756 445.296C636.48 445.296 636.687 444.157 635.859 443.95C630.27 442.811 625.301 441.052 625.197 441.052C621.574 442.087 630.062 444.054 635.756 445.296Z" fill="white"/>
<path d="M590.211 337.333C595.49 350.168 621.575 342.405 625.715 324.497C619.919 323.669 616.296 323.876 616.296 323.876L597.456 325.118C595.179 325.015 592.902 325.015 590.728 325.118C588.347 328.327 589.072 334.745 590.211 337.333Z" fill="white"/>
<path d="M597.351 325.118C595.074 315.181 595.177 300.379 595.902 294.272C597.144 282.161 616.397 284.749 614.534 296.756C613.913 296.445 614.223 318.079 616.19 323.876C618.675 332.571 589.898 344.061 597.351 325.118Z" fill="#F99370"/>
<path d="M614.638 295.721C614.638 296.032 614.638 296.342 614.534 296.756C614.017 296.549 614.12 308.453 615.052 317.044C607.392 321.599 598.179 320.874 596.523 320.771C595.178 309.902 595.178 299.965 596.109 293.547C598.386 282.575 614.948 284.542 614.638 295.721Z" fill="#E57D61"/>
<path d="M583.172 281.126C583.172 281.126 583.275 271.395 586.381 264.667L591.97 267.358L583.172 281.126Z" fill="#1D3F70"/>
<path d="M583.172 309.695C589.797 316.423 600.044 318.286 608.222 316.527C610.81 316.009 613.19 315.078 615.364 313.732C616.089 313.318 616.813 312.8 617.434 312.179C648.592 280.712 606.048 229.473 586.898 274.294C580.377 287.129 568.991 293.858 583.172 309.695Z" fill="#F99370"/>
<path d="M596.525 284.231C596.215 283.61 596.422 282.885 597.043 282.575C597.664 282.264 598.389 282.471 598.699 283.092C599.01 283.713 598.803 284.438 598.182 284.749C597.561 285.163 596.836 284.852 596.525 284.231Z" fill="#C16256"/>
<path d="M585.967 282.575C585.656 281.954 585.863 281.229 586.484 280.919C587.106 280.608 587.83 280.815 588.141 281.436C588.451 282.057 588.244 282.782 587.623 283.092C587.002 283.403 586.277 283.196 585.967 282.575Z" fill="#C16256"/>
<path d="M589.279 293.34C590.003 293.444 590.728 293.34 591.349 293.133C591.556 293.03 591.763 292.823 591.66 292.512C591.556 292.305 591.349 292.098 591.038 292.201C589.486 292.719 587.208 291.891 586.898 291.166C586.794 290.959 587.105 290.649 587.415 290.545C590.107 289.096 591.867 284.024 591.97 283.817C592.074 283.61 591.97 283.299 591.66 283.196C591.453 283.092 591.142 283.196 591.038 283.506C591.038 283.506 589.279 288.475 586.898 289.717C585.656 290.442 585.759 291.27 585.966 291.58C586.484 292.512 587.83 293.133 589.279 293.34Z" fill="#C16256"/>
<path d="M588.346 271.396C595.074 267.773 607.392 271.085 613.499 270.982C613.499 270.982 612.257 281.333 622.712 288.682C623.643 298.205 625.196 302.346 615.466 313.939C616.19 313.525 616.915 313.007 617.536 312.386C647.451 282.264 608.22 231.336 588.346 271.396Z" fill="#E57D61"/>
<path d="M583.173 250.797C587.003 243.137 598.596 238.893 608.533 248.416C616.193 255.662 624.474 255.662 624.371 263.322C639.794 270.257 632.134 287.233 632.134 287.233L624.371 286.301C615.572 279.159 615.779 268.704 615.779 268.704C613.812 268.808 611.742 268.704 609.879 268.29C604.186 266.841 595.801 266.22 589.384 268.497C583.173 270.878 578.825 259.388 583.173 250.797Z" fill="#1D3F70"/>
<path d="M633.27 293.444C632.442 297.377 629.233 300.068 626.024 299.447C622.815 298.826 620.952 294.996 621.78 291.063C622.608 287.129 625.817 284.438 629.026 285.059C632.235 285.68 634.098 289.407 633.27 293.444Z" fill="#F99370"/>
<path d="M625.712 288.164C625.816 288.164 628.714 287.026 630.37 288.475C630.785 288.889 631.095 289.407 631.199 290.028C631.199 290.131 631.199 290.131 631.199 290.235C631.406 291.477 631.302 293.029 630.681 294.996C630.578 295.203 630.371 295.307 630.164 295.307H630.06C629.853 295.203 629.646 294.996 629.749 294.686C630.267 293.029 630.37 291.787 630.37 290.752C627.679 291.27 626.334 294.272 626.23 294.375C626.127 294.582 625.919 294.686 625.712 294.686H625.609C625.402 294.582 625.298 294.272 625.402 294.065C625.505 293.961 626.955 290.545 630.164 289.924C630.06 289.614 629.956 289.406 629.749 289.199C628.507 288.061 626.023 288.992 626.023 289.096C625.816 289.199 625.505 289.096 625.402 288.785C625.298 288.578 625.505 288.268 625.712 288.164Z" fill="#C16256"/>
<path d="M472.62 440.741H575.201L554.809 365.488H452.85L472.62 440.741Z" fill="#163260"/>
<path d="M575.2 440.327H472.619V445.399H575.2V440.327Z" fill="#234270"/>
<path d="M553.256 365.488H556.982L576.96 440.327H625.611V445.399H573.544V440.845L553.256 365.488Z" fill="#0B274F"/>
<path d="M602.424 282.161C602.217 282.161 602.113 282.057 602.01 281.954C601.906 281.85 600.25 279.366 595.695 279.366C595.385 279.366 595.178 279.159 595.178 278.848C595.178 278.538 595.385 278.331 595.695 278.331C600.767 278.434 602.734 281.229 602.838 281.436C602.941 281.643 602.941 281.954 602.734 282.161C602.631 282.161 602.527 282.161 602.424 282.161Z" fill="#C16256"/>
<path d="M590.933 278.641C590.83 278.641 590.83 278.641 590.726 278.641C590.726 278.641 588.138 277.606 585.654 278.641C585.344 278.745 585.136 278.641 585.033 278.331C584.929 278.02 585.033 277.813 585.343 277.71C588.242 276.571 591.037 277.71 591.14 277.71C591.451 277.813 591.554 278.124 591.451 278.331C591.347 278.538 591.14 278.641 590.933 278.641Z" fill="#C16256"/>
<path d="M590.314 297.067C589.797 297.067 589.176 297.067 588.658 296.963C588.348 296.963 588.244 296.652 588.244 296.342C588.244 296.031 588.555 295.928 588.865 295.928C593.316 296.652 596.008 293.858 596.008 293.858C596.215 293.651 596.525 293.651 596.732 293.858C596.939 294.065 596.939 294.375 596.732 294.582C596.629 294.686 594.248 297.067 590.314 297.067Z" fill="#C16256"/>
<path d="M734.401 452.335C734.401 456.165 731.813 459.374 728.708 459.374H32.6932C31.1405 459.374 29.6913 458.546 28.6562 457.303C27.6211 456.061 27 454.302 27 452.335C27 448.505 29.5878 445.296 32.6932 445.296H728.708C730.261 445.296 731.71 446.124 732.745 447.366C733.677 448.608 734.401 450.368 734.401 452.335Z" fill="#5997F2"/>
<path d="M416.823 409.17H407.611C381.526 313.628 443.736 333.192 416.823 409.17Z" fill="#E7EFFF"/>
<path d="M416.822 409.17C416.822 409.17 409.887 410.826 410.198 409.17C417.34 367.455 410.612 344.682 410.612 344.682C435.765 342.922 416.822 409.17 416.822 409.17Z" fill="#96BAFD"/>
<path d="M442.597 367.455C441.147 382.774 431.624 396.542 423.654 409.17H413.096C414.027 394.678 416.408 378.841 424.482 366.42C428.208 357.311 442.597 355.137 442.597 367.455Z" fill="#96BAFD"/>
<path d="M442.597 367.454C442.597 367.972 442.39 369.214 442.39 369.214C434.834 367.972 430.486 364.349 428.105 361.554C428.52 361.037 428.934 360.726 429.451 360.416C431.625 363.003 435.662 366.316 442.597 367.454Z" fill="#E7EFFF"/>
<path d="M440.943 376.253C440.736 376.771 440.529 377.392 440.425 377.91C429.66 376.564 425.002 370.457 423.449 367.869C423.76 367.351 424.174 366.73 424.484 366.213C425.416 368.283 430.281 375.115 440.943 376.253Z" fill="#E7EFFF"/>
<path d="M438.042 383.809C437.835 384.327 437.525 384.948 437.318 385.466C427.07 385.052 421.584 380.083 419.203 376.874C419.41 376.253 419.721 375.528 420.031 374.907C421.894 378.013 428.002 383.499 438.042 383.809Z" fill="#E7EFFF"/>
<path d="M433.386 393.126C433.076 393.643 432.765 394.264 432.455 394.782C423.967 394.161 418.791 390.538 415.893 387.432C415.996 386.708 416.307 386.19 416.514 385.569C419.723 388.675 424.484 392.608 433.386 393.126Z" fill="#E7EFFF"/>
<path d="M428.001 402.338C427.691 402.856 427.277 403.477 426.966 403.994C420.652 402.959 416.512 400.164 414.131 397.784C414.234 397.059 414.338 396.334 414.441 395.506C416.719 397.887 421.48 401.303 428.001 402.338Z" fill="#E7EFFF"/>
<path d="M398.191 409.17H387.736C354.923 365.385 395.603 356.897 398.191 409.17Z" fill="#E7EFFF"/>
<path d="M398.193 409.17H391.878C380.492 393.229 378.008 380.187 377.904 373.872C392.81 365.798 398.296 409.066 398.193 409.17Z" fill="#E7EFFF"/>
<path d="M409.266 409.17H396.43C396.637 409.687 392.29 401.614 390.737 397.68C387.218 389.296 382.56 378.013 384.423 369.007C385.458 361.865 395.602 359.07 400.467 363.935C409.991 372.32 409.68 400.371 409.266 409.17Z" fill="#96BAFD"/>
<path d="M409.267 393.85C409.163 392.919 409.163 391.987 409.06 391.055L402.021 400.889L399.226 389.606L407.196 377.599C406.989 376.771 406.782 375.943 406.575 375.218L398.605 387.329L395.293 373.976L401.71 365.074C401.296 364.66 400.882 364.246 400.468 363.832L394.671 371.802L392.187 361.554C391.566 361.658 390.945 361.865 390.427 361.969L393.015 372.32L384.424 369.007C384.32 369.525 384.217 370.042 384.113 370.664L393.533 374.493L396.949 388.054L385.459 383.188C385.666 383.913 385.873 384.638 386.08 385.362L397.466 390.227L400.261 401.51L390.738 397.68C391.049 398.508 391.463 399.233 391.773 399.957L400.882 403.684C401.296 404.408 401.814 410.205 403.159 410.102C405.23 410.205 402.435 404.098 402.538 403.27L409.267 393.85Z" fill="#E7EFFF"/>
<path d="M423.55 409.17H387.631V445.399H423.55V409.17Z" fill="#1C85E8"/>
<path d="M423.55 409.17V445.399H387.631C387.631 445.296 423.55 444.778 423.55 409.17Z" fill="#1C85E8"/>
<path d="M481.831 271.499L477.587 252.867L466.925 255.248C465.372 252.142 463.302 249.244 461.025 246.76L466.925 237.34L450.777 227.093L445.084 236.098C441.357 234.752 437.32 234.028 433.18 233.924L430.696 222.952L412.063 227.196L414.548 238.168C411.132 239.928 408.026 242.102 405.335 244.69L396.847 239.307L386.599 255.455L395.087 260.837C393.949 264.357 393.224 268.083 393.224 271.913L382.562 274.294L386.806 292.926L397.468 290.545C399.331 294.168 401.712 297.481 404.507 300.276L398.814 309.281L414.962 319.529L420.862 310.109C424.174 311.144 427.59 311.662 431.11 311.765L433.594 322.738L452.226 318.494L449.742 307.521C453.158 305.762 456.263 303.588 458.954 301L468.892 307.211L479.139 291.063L469.202 284.852C470.341 281.333 471.065 277.606 471.065 273.776L481.831 271.499ZM437.113 289.614C415.169 295.928 405.335 262.701 427.176 256.076C449.224 249.762 458.954 283.093 437.113 289.614Z" fill="#136AE8"/>
<path d="M369.211 265.288L368.176 260.63L364.139 261.562C363.103 258.353 361.551 255.455 359.584 252.971L362.689 250.176L359.481 246.656L356.375 249.451C353.994 247.277 351.2 245.518 348.094 244.276L349.336 240.239L344.782 238.789L343.54 242.826C340.434 242.102 337.122 241.998 333.81 242.412L332.878 238.375L328.22 239.41L329.152 243.447C325.943 244.483 323.044 246.035 320.56 248.002L317.765 244.897L314.246 248.105L317.041 251.211C314.867 253.592 313.107 256.386 311.865 259.492L307.828 258.25L306.379 262.804L310.416 264.046C309.691 267.152 309.588 270.464 310.002 273.776L305.965 274.708L307 279.366L311.037 278.435C312.072 281.643 313.625 284.542 315.591 287.026L312.486 289.821L315.695 293.34L318.8 290.545C321.181 292.719 323.976 294.479 327.081 295.721L325.839 299.758L330.394 301.207L331.636 297.17C334.741 297.895 338.054 297.998 341.366 297.584L342.298 301.621L346.956 300.586L346.024 296.549C349.233 295.514 352.131 293.961 354.616 291.995L357.41 295.1L360.93 291.891L358.135 288.786C360.309 286.405 362.068 283.61 363.311 280.505L367.347 281.747L368.797 277.192L364.76 275.95C365.484 272.845 365.588 269.532 365.174 266.22L369.211 265.288ZM341.676 287.544C318.49 292.409 310.623 257.939 333.706 252.349C356.893 247.588 364.656 281.954 341.676 287.544Z" fill="#5997F2"/>
<path d="M400.576 201.732L399.024 194.797L393.641 196.039C393.227 195.004 392.709 193.969 392.088 193.037L396.125 189.311L391.26 184.032L387.223 187.758C386.292 187.033 385.36 186.516 384.325 185.998L385.981 180.719L379.149 178.545L377.493 183.825C376.355 183.721 375.216 183.617 374.077 183.721L372.835 178.338L365.9 179.891L367.142 185.274C366.107 185.688 365.072 186.205 364.14 186.826L360.414 182.789L355.135 187.654L358.861 191.691C358.136 192.623 357.619 193.555 357.101 194.59L351.822 192.934L349.648 199.765L354.928 201.422C354.824 202.56 354.721 203.699 354.824 204.837L349.441 206.08L350.994 213.015L356.377 211.773C356.791 212.808 357.308 213.843 357.929 214.775L353.892 218.501L358.757 223.78L362.794 220.054C363.726 220.778 364.658 221.296 365.693 221.813L364.037 227.093L370.868 229.266L372.525 223.987C373.663 224.091 374.802 224.194 375.94 224.091L377.183 229.473L384.118 227.921L382.876 222.538C383.911 222.124 384.946 221.606 385.878 220.985L389.604 225.022L394.883 220.157L391.157 216.12C391.881 215.189 392.399 214.257 392.916 213.222L398.196 214.878L400.369 208.046L395.09 206.39C395.194 205.251 395.297 204.113 395.194 202.974L400.576 201.732ZM377.286 213.636C364.244 216.327 359.896 197.074 372.835 193.969C385.774 191.277 390.122 210.531 377.286 213.636Z" fill="#5997F2"/>
<path d="M314.969 183.721V218.19C314.969 223.884 310.311 228.542 304.618 228.542H221.912C216.219 228.542 211.561 223.884 211.561 218.19V183.721C211.561 178.028 216.219 173.37 221.912 173.37H304.618C310.311 173.37 314.969 177.924 314.969 183.721Z" fill="#5997F2"/>
<path d="M211.561 218.191C211.561 223.884 216.219 228.542 221.912 228.542H226.156V243.344L246.134 228.542H304.618C310.311 228.542 314.969 223.884 314.969 218.191V183.721C275.945 222.745 211.561 218.191 211.561 218.191Z" fill="#5997F2"/>
<path d="M277.084 190.139H222.016C220.463 190.139 219.117 188.897 219.117 187.24C219.117 185.688 220.359 184.342 222.016 184.342H277.084C280.81 184.446 280.81 190.139 277.084 190.139Z" fill="white"/>
<path d="M244.271 203.802H222.016C218.289 203.802 218.289 198.109 222.016 198.109H244.271C247.997 198.109 247.997 203.802 244.271 203.802Z" fill="white"/>
<path d="M304.516 203.802H257.625C256.072 203.802 254.727 202.56 254.727 200.904C254.727 199.248 255.969 198.006 257.625 198.006H304.516C308.242 198.109 308.242 203.802 304.516 203.802Z" fill="white"/>
<path d="M267.457 217.362H222.016C218.289 217.362 218.289 211.669 222.016 211.669H267.457C271.184 211.669 271.184 217.362 267.457 217.362Z" fill="white"/>
<path d="M299.753 173.37C230.089 173.37 213.838 184.963 211.561 187.033C210.733 180.202 214.459 173.37 221.912 173.37H299.753Z" fill="#5997F2"/>
<path d="M481.107 176.268V210.738C481.107 216.431 485.765 221.089 491.459 221.089H574.165C579.858 221.089 584.516 216.431 584.516 210.738V176.268C584.516 170.575 579.858 165.917 574.165 165.917H491.459C485.765 165.917 481.107 170.575 481.107 176.268Z" fill="#5997F2"/>
<path d="M584.516 210.738C584.516 216.431 579.858 221.089 574.165 221.089H569.921V235.891L549.943 221.089H491.459C485.765 221.089 481.107 216.431 481.107 210.738V176.268C520.131 215.292 584.516 210.738 584.516 210.738Z" fill="#5997F2"/>
<path d="M518.996 182.789H574.064C575.617 182.789 576.963 181.547 576.963 179.891C576.963 178.338 575.72 176.993 574.064 176.993H518.996C515.269 177.096 515.166 182.789 518.996 182.789Z" fill="white"/>
<path d="M551.807 196.35H574.062C577.788 196.35 577.788 190.656 574.062 190.656H551.807C548.08 190.656 548.08 196.35 551.807 196.35Z" fill="white"/>
<path d="M491.562 196.35H538.453C540.006 196.35 541.352 195.107 541.352 193.451C541.352 191.899 540.11 190.553 538.453 190.553H491.562C487.836 190.656 487.836 196.35 491.562 196.35Z" fill="white"/>
<path d="M528.619 210.013H574.061C577.787 210.013 577.787 204.32 574.061 204.32H528.619C524.893 204.32 524.893 210.013 528.619 210.013Z" fill="white"/>
<path d="M496.322 165.917C565.986 165.917 582.237 177.51 584.515 179.581C585.343 172.749 581.616 165.917 574.163 165.917C574.163 165.917 496.322 165.917 496.322 165.917Z" fill="#5997F2"/>
</g>
<defs>
<clipPath id="clip0_1168_20022">
<rect width="734" height="549" fill="white"/>
</clipPath>
</defs>
</svg>
