<svg width="734" height="549" viewBox="0 0 734 549" fill="none" xmlns="http://www.w3.org/2000/svg">
<path d="M458.896 391.983L457.958 391.045C517.707 329.607 520.145 296.028 523.71 245.096C525.023 227.086 526.43 206.732 530.557 182.157C502.23 195.289 479.343 213.58 462.366 236.372C448.578 254.851 438.729 276.33 433.007 300.342C423.252 341.144 428.974 375.381 429.068 375.662L427.755 375.85C427.661 375.474 421.846 341.051 431.694 300.061C437.416 275.955 447.358 254.288 461.241 235.622C478.593 212.36 502.042 193.788 531.026 180.469L532.152 180L531.964 181.219C527.649 206.263 526.242 226.993 524.929 245.283C521.365 296.403 519.02 330.17 458.896 391.983Z" fill="#2B87FF"/>
<path d="M447.641 378.757L446.422 378.476C446.703 377.538 470.434 285.71 500.449 234.684L501.575 235.341C471.653 286.179 447.829 377.819 447.641 378.757Z" fill="#2B87FF"/>
<path d="M480.658 277.831H479.344C479.344 277.643 479.907 259.165 470.246 241.437L471.372 240.781C481.22 258.884 480.658 277.643 480.658 277.831Z" fill="#2B87FF"/>
<path d="M466.87 315.162L465.932 314.225C479.626 300.624 497.541 296.403 497.729 296.403L498.01 297.622C497.917 297.716 480.376 301.843 466.87 315.162Z" fill="#2B87FF"/>
<path d="M504.389 431.378L504.295 430.065C527.557 427.72 546.504 412.149 562.074 382.322C575.863 355.871 585.336 322.197 594.528 289.556C600.438 268.357 606.065 248.379 612.631 231.026C545.566 247.816 517.802 300.905 517.52 301.468L516.395 300.905C516.676 300.342 545.003 246.034 613.569 229.525L614.789 229.244L614.32 230.369C607.566 247.91 601.844 268.357 595.748 289.931C586.555 322.666 577.082 356.433 563.2 382.978C547.348 413.181 528.12 428.939 504.389 431.378Z" fill="#2B87FF"/>
<path d="M498.667 399.674L497.447 399.111C497.822 398.267 537.03 310.473 569.953 284.96L570.703 285.991C557.196 296.403 540.5 319.383 522.304 352.4C508.609 377.35 498.76 399.487 498.667 399.674Z" fill="#2B87FF"/>
<path d="M541.907 319.196L540.594 318.914C540.594 318.821 542.47 308.878 544.064 284.866L545.377 284.96C543.783 309.159 542.001 319.102 541.907 319.196Z" fill="#2B87FF"/>
<path d="M519.957 356.621L519.207 355.495C519.395 355.402 537.31 343.208 560.759 337.768L561.041 338.987C537.873 344.427 520.145 356.433 519.957 356.621Z" fill="#2B87FF"/>
<path d="M207.987 515.514C150.114 456.047 147.769 423.499 144.298 374.161C143.079 356.527 141.672 336.642 137.545 312.442L137.357 311.223L138.483 311.692C201.796 340.675 225.527 390.294 234.25 426.782C243.724 466.364 238.096 499.475 238.002 499.756L236.689 499.569C236.783 499.287 242.317 466.364 232.937 427.063C224.308 391.045 201.046 342.176 139.046 313.38C142.985 337.017 144.392 356.621 145.612 373.974C149.082 422.936 151.333 455.296 208.925 514.483L207.987 515.514Z" fill="#136AE8"/>
<path d="M218.774 502.852C218.587 502.007 195.7 413.65 166.904 364.688L168.03 364.031C196.826 413.181 219.806 501.632 219.994 502.476L218.774 502.852Z" fill="#136AE8"/>
<path d="M186.977 405.583C186.977 405.396 186.414 387.293 195.888 369.94L197.013 370.597C187.727 387.668 188.29 405.396 188.29 405.583H186.977Z" fill="#136AE8"/>
<path d="M200.203 441.602C187.259 428.752 170.375 424.812 170.188 424.718L170.469 423.499C170.656 423.499 187.915 427.626 201.047 440.664L200.203 441.602Z" fill="#136AE8"/>
<path d="M168.122 538.12C118.409 533.523 98.5243 478.37 80.8903 429.783C74.981 413.369 69.3532 397.798 62.8811 384.479L62.3184 383.26L63.6315 383.541C97.2111 390.576 120.379 405.208 133.886 416.276C148.518 428.283 155.366 438.788 155.366 438.882L154.24 439.538C153.959 439.163 127.414 398.642 64.5695 385.042C70.8539 398.173 76.2942 413.369 82.1097 429.314C99.556 477.62 119.254 532.304 168.216 536.806L168.122 538.12Z" fill="#136AE8"/>
<path d="M173.094 514.201C172.718 513.545 135.199 446.854 104.34 427.251L104.996 426.125C136.137 445.823 173.844 512.888 174.219 513.545L173.094 514.201Z" fill="#136AE8"/>
<path d="M131.635 452.67C131.635 452.576 129.759 444.978 127.977 426.688L129.29 426.594C131.072 444.791 132.948 452.295 132.948 452.388L131.635 452.67Z" fill="#136AE8"/>
<path d="M152.645 481.278C152.457 481.184 135.761 471.805 113.906 467.49L114.188 466.271C136.23 470.585 153.114 480.059 153.301 480.153L152.645 481.278Z" fill="#136AE8"/>
<path d="M630.451 543.841L630.17 542.622C684.948 529.209 695.265 470.491 705.208 413.556C708.678 393.577 712.336 372.942 717.871 355.12C663.374 365.532 632.515 403.145 616.194 433.066C598.372 465.614 593.495 496.192 593.495 496.567L592.182 496.38C592.275 496.098 597.059 465.333 614.974 432.503C631.577 402.207 662.999 363.937 718.621 353.713L719.653 353.526L719.371 354.558C713.65 372.567 709.991 393.577 706.427 413.838C696.391 471.054 685.979 530.241 630.451 543.841Z" fill="#136AE8"/>
<path d="M625.76 511.575L624.541 511.2C624.729 510.449 644.895 438.694 677.724 410.367L678.569 411.305C646.021 439.538 625.948 510.918 625.76 511.575Z" fill="#136AE8"/>
<path d="M648.928 451.451L647.709 451.169C647.709 450.982 650.71 436.443 649.679 414.963L650.992 414.87C652.024 436.537 649.022 451.263 648.928 451.451Z" fill="#136AE8"/>
<path d="M631.577 482.685L630.826 481.653C631.014 481.56 649.023 467.584 673.879 458.767L674.348 459.986C649.68 468.803 631.764 482.498 631.577 482.685Z" fill="#136AE8"/>
<path d="M504.11 280.363C501.765 280.363 499.889 278.487 499.889 276.143C499.889 273.798 501.765 271.922 504.11 271.922C506.455 271.922 508.33 273.798 508.33 276.143C508.33 278.487 506.455 280.363 504.11 280.363ZM504.11 273.235C502.515 273.235 501.202 274.548 501.202 276.143C501.202 277.737 502.515 279.05 504.11 279.05C505.704 279.05 507.017 277.737 507.017 276.143C507.017 274.548 505.704 273.235 504.11 273.235Z" fill="#DADADA"/>
<path d="M156.869 345.084C154.524 345.084 152.648 343.208 152.648 340.863C152.648 338.518 154.524 336.642 156.869 336.642C159.214 336.642 161.09 338.518 161.09 340.863C161.09 343.208 159.214 345.084 156.869 345.084ZM156.869 338.049C155.275 338.049 153.962 339.362 153.962 340.957C153.962 342.551 155.275 343.864 156.869 343.864C158.464 343.864 159.777 342.551 159.777 340.957C159.777 339.362 158.464 338.049 156.869 338.049Z" fill="#DADADA"/>
<path d="M545.381 438.412C543.036 438.412 541.16 436.537 541.16 434.192C541.16 431.847 543.036 429.971 545.381 429.971C547.726 429.971 549.602 431.847 549.602 434.192C549.602 436.537 547.726 438.412 545.381 438.412ZM545.381 431.378C543.786 431.378 542.473 432.691 542.473 434.285C542.473 435.88 543.786 437.193 545.381 437.193C546.976 437.193 548.289 435.88 548.289 434.285C548.289 432.597 546.976 431.378 545.381 431.378Z" fill="#DADADA"/>
<path d="M687.858 393.765C685.513 393.765 683.637 391.889 683.637 389.544C683.637 387.199 685.513 385.323 687.858 385.323C690.203 385.323 692.079 387.199 692.079 389.544C692.079 391.889 690.203 393.765 687.858 393.765ZM687.858 386.636C686.263 386.636 684.95 387.949 684.95 389.544C684.95 391.138 686.263 392.452 687.858 392.452C689.452 392.452 690.765 391.138 690.765 389.544C690.765 387.949 689.452 386.636 687.858 386.636Z" fill="#DADADA"/>
<path d="M531.498 381.852C533.103 381.852 534.405 380.551 534.405 378.945C534.405 377.339 533.103 376.037 531.498 376.037C529.892 376.037 528.59 377.339 528.59 378.945C528.59 380.551 529.892 381.852 531.498 381.852Z" fill="#DADADA"/>
<path d="M664.97 488.594C666.576 488.594 667.878 487.292 667.878 485.687C667.878 484.081 666.576 482.779 664.97 482.779C663.364 482.779 662.062 484.081 662.062 485.687C662.062 487.292 663.364 488.594 664.97 488.594Z" fill="#DADADA"/>
<path d="M454.515 296.115C454.517 294.509 453.217 293.206 451.611 293.203C450.005 293.201 448.702 294.501 448.699 296.107C448.697 297.713 449.997 299.016 451.603 299.019C453.209 299.021 454.513 297.721 454.515 296.115Z" fill="#DADADA"/>
<path d="M131.544 498.068C133.15 498.068 134.452 496.766 134.452 495.16C134.452 493.554 133.15 492.252 131.544 492.252C129.939 492.252 128.637 493.554 128.637 495.16C128.637 496.766 129.939 498.068 131.544 498.068Z" fill="#DADADA"/>
<path d="M214.086 297.81C213.711 297.81 213.336 297.716 212.961 297.622L204.988 295.184C203.956 294.902 203.206 294.246 202.643 293.308C202.174 292.37 202.08 291.338 202.362 290.306L205.082 281.208C201.705 279.426 198.61 277.174 195.796 274.454L188.011 279.707C186.228 280.926 183.79 280.457 182.57 278.675L177.88 271.734C177.318 270.89 177.036 269.858 177.318 268.826C177.505 267.795 178.068 266.951 179.006 266.294L186.697 261.041C185.103 257.196 184.071 253.068 183.602 248.941L174.41 247.91C173.378 247.816 172.44 247.253 171.784 246.503C171.127 245.658 170.846 244.627 170.939 243.595L171.877 235.341C172.159 233.183 174.035 231.683 176.192 231.87L185.197 232.902C186.416 229.15 188.198 225.492 190.449 222.209L184.165 215.737C183.415 214.987 183.039 213.955 183.039 212.923C183.039 211.891 183.508 210.953 184.259 210.203L190.262 204.387C191.856 202.887 194.295 202.981 195.796 204.481L201.986 210.86C205.457 208.608 209.303 206.92 213.336 205.794L212.773 196.977C212.679 194.82 214.274 192.944 216.431 192.85L224.779 192.288C226.937 192.1 228.813 193.788 228.906 195.946L229.469 204.763C233.596 205.325 237.63 206.451 241.382 208.233L246.728 201.105C248.041 199.416 250.48 199.041 252.168 200.26L258.922 205.232C259.766 205.888 260.329 206.732 260.422 207.764C260.61 208.796 260.329 209.828 259.672 210.672L254.326 217.894C256.952 220.896 259.203 224.179 260.891 227.837L269.708 225.68C271.772 225.117 273.929 226.43 274.398 228.493L276.462 236.56C276.743 237.592 276.556 238.624 275.993 239.468C275.43 240.406 274.586 240.969 273.554 241.25L264.643 243.501C264.831 247.722 264.362 251.943 263.236 255.976L271.584 260.103C272.522 260.572 273.179 261.416 273.554 262.354C273.836 263.386 273.835 264.418 273.367 265.356L269.615 272.766C268.677 274.642 266.332 275.486 264.362 274.548L255.92 270.327C253.575 273.329 250.761 275.955 247.572 278.206L251.418 286.836C251.887 287.774 251.887 288.805 251.512 289.837C251.136 290.775 250.386 291.619 249.448 291.994L241.851 295.371C239.881 296.215 237.536 295.371 236.692 293.401L232.752 284.678C230.689 285.147 228.625 285.429 226.561 285.522C224.498 285.616 222.341 285.616 220.277 285.429L217.557 294.527C217.369 296.778 215.775 297.81 214.086 297.81ZM195.983 272.954L196.359 273.329C199.266 276.236 202.549 278.581 206.114 280.457L206.583 280.739L203.581 290.869C203.393 291.525 203.487 292.276 203.769 292.839C204.144 293.495 204.613 293.87 205.363 294.058L213.336 296.497C214.743 296.872 216.15 296.122 216.619 294.715L219.62 284.584L220.183 284.678C222.341 284.866 224.592 284.96 226.749 284.772C228.906 284.584 231.158 284.303 233.221 283.834L233.784 283.74L238.099 293.401C238.661 294.715 240.256 295.277 241.569 294.715L249.167 291.338C249.823 291.057 250.292 290.494 250.574 289.837C250.855 289.181 250.761 288.524 250.48 287.867L246.165 278.3L246.634 278.019C250.011 275.674 252.919 272.86 255.451 269.671L255.733 269.295L265.112 273.985C266.425 274.642 268.02 274.079 268.583 272.86L272.335 265.45C272.616 264.793 272.71 264.137 272.522 263.48C272.335 262.823 271.866 262.261 271.209 261.979L261.923 257.289L262.111 256.727C263.33 252.506 263.893 248.097 263.612 243.689V243.126L273.554 240.687C274.211 240.5 274.773 240.124 275.149 239.468C275.524 238.905 275.618 238.155 275.43 237.498L273.367 229.431C272.991 228.024 271.584 227.18 270.177 227.555L260.329 229.994L260.141 229.525C258.359 225.68 256.108 222.209 253.2 219.114L252.825 218.739L258.828 210.672C259.203 210.109 259.391 209.453 259.297 208.702C259.203 208.046 258.828 207.389 258.265 207.014L251.512 202.043C250.386 201.198 248.698 201.48 247.854 202.605L241.944 210.672L241.569 210.109C237.63 208.233 233.409 206.92 229.094 206.451L228.531 206.357L227.875 196.415C227.781 195.008 226.561 193.882 225.061 193.976L216.713 194.539C215.306 194.633 214.18 195.852 214.274 197.353L214.931 207.295L214.368 207.389C210.147 208.515 206.114 210.203 202.455 212.642L201.986 212.923L195.045 205.701C194.014 204.669 192.419 204.669 191.387 205.607L185.384 211.422C184.915 211.891 184.634 212.548 184.54 213.298C184.54 213.955 184.822 214.611 185.291 215.174L192.232 222.397L191.95 222.866C189.511 226.336 187.635 230.088 186.416 234.121L186.228 234.59L176.098 233.465C174.691 233.277 173.378 234.309 173.191 235.716L172.253 243.97C172.159 244.627 172.346 245.377 172.815 245.846C173.284 246.409 173.847 246.784 174.598 246.784L184.822 247.91V248.472C185.197 252.881 186.228 257.196 188.011 261.229L188.198 261.698L179.569 267.513C179.006 267.888 178.631 268.451 178.443 269.202C178.349 269.858 178.443 270.609 178.818 271.171L183.508 278.112C184.353 279.332 185.947 279.613 187.166 278.769L195.983 272.954ZM224.217 269.202C212.023 269.202 201.705 259.728 200.861 247.347C200.017 234.497 209.865 223.335 222.716 222.49C229 222.115 235.003 224.085 239.693 228.212C244.383 232.339 247.197 238.061 247.572 244.251C247.947 250.442 245.884 256.539 241.757 261.229C237.63 265.919 231.908 268.733 225.624 269.108C225.248 269.108 224.779 269.202 224.217 269.202ZM224.31 223.71C223.841 223.71 223.372 223.71 222.81 223.804C210.616 224.554 201.33 235.153 202.174 247.253C202.924 259.447 213.524 268.639 225.717 267.888C231.627 267.513 237.067 264.887 240.913 260.385C244.852 255.976 246.728 250.255 246.353 244.345C245.978 238.436 243.351 233.09 238.849 229.15C234.816 225.586 229.657 223.71 224.31 223.71Z" fill="#136AE8"/>
<path d="M421.283 544.122H229.655C222.995 544.122 217.648 538.776 217.648 532.116V251.943C217.648 245.283 222.995 239.937 229.655 239.937H421.283C427.943 239.937 433.289 245.283 433.289 251.943V532.116C433.289 538.682 427.943 544.122 421.283 544.122Z" fill="#5997F2"/>
<path d="M363.41 253.35H287.434V266.106H363.41V253.35Z" fill="#D3DFFF"/>
<path d="M411.81 285.522H239.129V323.792H411.81V285.522Z" fill="#DADADA"/>
<path d="M404.307 290.775H246.727V318.633H404.307V290.775Z" fill="white"/>
<path d="M366.785 356.996H355.06C351.496 356.996 348.682 354.182 348.682 350.618V347.992C348.682 344.427 351.496 341.613 355.06 341.613H366.785C370.349 341.613 373.163 344.427 373.163 347.992V350.712C373.163 354.182 370.255 356.996 366.785 356.996Z" fill="#1F3C88"/>
<path d="M405.429 356.996H393.704C390.14 356.996 387.326 354.182 387.326 350.618V347.992C387.326 344.427 390.14 341.613 393.704 341.613H405.429C408.993 341.613 411.807 344.427 411.807 347.992V350.712C411.807 354.182 408.9 356.996 405.429 356.996Z" fill="#1F3C88"/>
<path d="M408.715 395.922H385.171C383.483 395.922 382.17 394.609 382.17 392.921V378.851C382.17 377.163 383.483 375.849 385.171 375.849H408.715C410.403 375.849 411.716 377.163 411.716 378.851V392.921C411.81 394.515 410.403 395.922 408.715 395.922Z" fill="#1F3C88"/>
<path d="M361.441 395.922H337.898C336.21 395.922 334.896 394.609 334.896 392.921V378.851C334.896 377.163 336.21 375.849 337.898 375.849H361.441C363.13 375.849 364.443 377.163 364.443 378.851V392.921C364.537 394.515 363.13 395.922 361.441 395.922Z" fill="#1F3C88"/>
<path d="M314.166 395.922H290.623C288.934 395.922 287.621 394.609 287.621 392.921V378.851C287.621 377.163 288.934 375.849 290.623 375.849H314.166C315.854 375.849 317.167 377.163 317.167 378.851V392.921C317.261 394.515 315.854 395.922 314.166 395.922Z" fill="#1F3C88"/>
<path d="M266.892 395.922H243.349C241.661 395.922 240.348 394.609 240.348 392.921V378.851C240.348 377.163 241.661 375.849 243.349 375.849H266.892C268.581 375.849 269.894 377.163 269.894 378.851V392.921C269.894 394.515 268.581 395.922 266.892 395.922Z" fill="#1F3C88"/>
<path d="M408.715 432.409H385.171C383.483 432.409 382.17 431.096 382.17 429.408V415.338C382.17 413.65 383.483 412.337 385.171 412.337H408.715C410.403 412.337 411.716 413.65 411.716 415.338V429.408C411.81 431.096 410.403 432.409 408.715 432.409Z" fill="#1F3C88"/>
<path d="M361.441 432.409H337.898C336.21 432.409 334.896 431.096 334.896 429.408V415.338C334.896 413.65 336.21 412.337 337.898 412.337H361.441C363.13 412.337 364.443 413.65 364.443 415.338V429.408C364.537 431.096 363.13 432.409 361.441 432.409Z" fill="#1F3C88"/>
<path d="M314.166 432.409H290.623C288.934 432.409 287.621 431.096 287.621 429.408V415.338C287.621 413.65 288.934 412.337 290.623 412.337H314.166C315.854 412.337 317.167 413.65 317.167 415.338V429.408C317.261 431.096 315.854 432.409 314.166 432.409Z" fill="#1F3C88"/>
<path d="M266.892 432.409H243.349C241.661 432.409 240.348 431.096 240.348 429.408V415.338C240.348 413.65 241.661 412.337 243.349 412.337H266.892C268.581 412.337 269.894 413.65 269.894 415.338V429.408C269.894 431.096 268.581 432.409 266.892 432.409Z" fill="#1F3C88"/>
<path d="M408.715 468.897H385.171C383.483 468.897 382.17 467.584 382.17 465.895V451.826C382.17 450.137 383.483 448.824 385.171 448.824H408.715C410.403 448.824 411.716 450.137 411.716 451.826V465.895C411.81 467.584 410.403 468.897 408.715 468.897Z" fill="#1F3C88"/>
<path d="M361.441 468.897H337.898C336.21 468.897 334.896 467.584 334.896 465.895V451.826C334.896 450.137 336.21 448.824 337.898 448.824H361.441C363.13 448.824 364.443 450.137 364.443 451.826V465.895C364.537 467.584 363.13 468.897 361.441 468.897Z" fill="#1F3C88"/>
<path d="M314.166 468.897H290.623C288.934 468.897 287.621 467.584 287.621 465.895V451.826C287.621 450.137 288.934 448.824 290.623 448.824H314.166C315.854 448.824 317.167 450.137 317.167 451.826V465.895C317.261 467.584 315.854 468.897 314.166 468.897Z" fill="#1F3C88"/>
<path d="M266.892 468.897H243.349C241.661 468.897 240.348 467.584 240.348 465.895V451.826C240.348 450.137 241.661 448.824 243.349 448.824H266.892C268.581 448.824 269.894 450.137 269.894 451.826V465.895C269.894 467.584 268.581 468.897 266.892 468.897Z" fill="#D3DFFF"/>
<path d="M408.715 506.697H385.171C383.483 506.697 382.17 505.384 382.17 503.696V489.626C382.17 487.938 383.483 486.625 385.171 486.625H408.715C410.403 486.625 411.716 487.938 411.716 489.626V503.696C411.81 505.384 410.403 506.697 408.715 506.697Z" fill="#FBC343"/>
<path d="M361.441 506.697H337.898C336.21 506.697 334.896 505.384 334.896 503.696V489.626C334.896 487.938 336.21 486.625 337.898 486.625H361.441C363.13 486.625 364.443 487.938 364.443 489.626V503.696C364.537 505.384 363.13 506.697 361.441 506.697Z" fill="#1F3C88"/>
<path d="M314.166 506.697H290.623C288.934 506.697 287.621 505.384 287.621 503.696V489.626C287.621 487.938 288.934 486.625 290.623 486.625H314.166C315.854 486.625 317.167 487.938 317.167 489.626V503.696C317.261 505.384 315.854 506.697 314.166 506.697Z" fill="#1F3C88"/>
<path d="M266.892 506.697H243.349C241.661 506.697 240.348 505.384 240.348 503.696V489.626C240.348 487.938 241.661 486.625 243.349 486.625H266.892C268.581 486.625 269.894 487.938 269.894 489.626V503.696C269.894 505.384 268.581 506.697 266.892 506.697Z" fill="#1F3C88"/>
<path d="M607.661 458.391H489.945V544.685H607.661V458.391Z" fill="url(#paint0_linear_1161_7463)"/>
<path d="M607.66 477.995H576.332V479.308H607.66V477.995Z" fill="#5997F2"/>
<path d="M607.663 525.175H553.072V526.489H607.663V525.175Z" fill="#5997F2"/>
<path d="M548.663 489.72C548.663 499.662 547.162 509.605 544.16 519.36C539.564 534.086 525.87 544.123 510.487 544.123H490.039V458.485H543.598C546.88 468.522 548.663 479.027 548.663 489.72Z" fill="url(#paint1_linear_1161_7463)"/>
<path d="M440.981 529.678V538.87C440.981 542.059 438.355 544.685 435.166 544.685H338.179C334.99 544.685 332.363 542.059 332.363 538.87V529.678C332.363 526.489 334.99 523.862 338.179 523.862H435.166C438.355 523.862 440.981 526.489 440.981 529.678Z" fill="url(#paint2_linear_1161_7463)"/>
<path d="M428.975 508.761V517.953C428.975 521.142 426.349 523.768 423.16 523.768H326.173C322.984 523.768 320.357 521.142 320.357 517.953V508.761C320.357 505.572 322.984 502.945 326.173 502.945H423.16C426.349 502.945 428.975 505.572 428.975 508.761Z" fill="url(#paint3_linear_1161_7463)"/>
<path d="M440.98 529.678V538.87C440.98 542.059 438.354 544.685 435.165 544.685H365.567C360.783 538.776 357.782 531.085 356.093 523.768C354.03 515.327 353.561 507.354 353.373 502.851H423.065C426.254 502.851 428.88 505.478 428.88 508.667V517.859C428.88 521.048 426.254 523.675 423.065 523.675H435.071C438.354 523.862 440.98 526.488 440.98 529.678Z" fill="url(#paint4_linear_1161_7463)"/>
<path d="M492.008 358.309L484.129 382.322L483.566 384.104L479.908 395.266V395.36L468.184 395.078L423.254 394.046L419.972 384.667L419.409 383.072L410.686 358.216C437.699 367.595 459.929 347.241 492.008 358.309Z" fill="#D1E8F7"/>
<path d="M483.567 384.104L479.909 395.266L468.185 395.078L423.256 394.046L419.973 384.667C435.449 384.385 461.994 384.01 483.567 384.104Z" fill="#136AE8"/>
<path d="M533.749 519.923C531.404 527.333 526.902 533.523 520.992 537.838C515.083 542.153 507.767 544.685 500.075 544.685H398.305C383.579 544.685 370.635 534.837 366.789 520.673C364.538 512.419 363.318 504.165 363.131 495.817C363.131 494.973 363.131 494.222 363.131 493.378C363.131 492.44 363.131 491.502 363.131 490.564C363.975 460.549 378.607 432.597 402.151 413.931L426.538 394.609L482.254 395.922L512.926 425.281C517.24 429.408 521.086 434.004 524.181 439.163C527.84 445.26 530.841 451.732 533.092 458.392C539.752 478.089 540.127 499.662 533.749 519.923Z" fill="#D1E8F7"/>
<path d="M443.139 517.859V507.073C435.541 506.697 428.131 504.728 423.816 502.195L427.193 488.97C431.977 491.596 438.636 493.941 446.046 493.941C452.519 493.941 456.927 491.408 456.927 486.906C456.927 482.591 453.269 479.871 444.921 477.057C432.821 472.93 424.473 467.302 424.473 456.328C424.473 446.385 431.508 438.506 443.608 436.161V425.375H454.676V435.224C462.273 435.599 467.339 437.193 471.09 438.975L467.808 451.826C464.9 450.606 459.647 447.98 451.487 447.98C444.077 447.98 441.732 451.169 441.732 454.358C441.732 458.11 445.671 460.455 455.332 464.113C468.839 468.897 474.28 475.088 474.28 485.311C474.28 495.442 467.151 503.977 454.113 506.322V517.859H443.139Z" fill="white"/>
<path d="M491.445 405.114H412.655C409.372 405.114 406.746 402.488 406.746 399.205V396.673C406.746 393.39 409.372 390.763 412.655 390.763H491.445C494.728 390.763 497.355 393.39 497.355 396.673V399.205C497.355 402.488 494.728 405.114 491.445 405.114Z" fill="#D1E8F7"/>
<path d="M533.749 519.923C531.404 527.333 526.902 533.524 520.992 537.838C515.083 542.153 507.767 544.685 500.075 544.685H398.305C383.579 544.685 370.635 534.837 366.789 520.673C364.538 512.419 363.318 504.165 363.131 495.817C380.014 511.856 399.806 532.867 446.236 533.524C503.827 534.368 528.684 507.354 533.092 458.392C539.752 478.089 540.127 499.663 533.749 519.923Z" fill="#B8D7E8"/>
<path d="M138.392 526.864L128.168 523.018L104.156 544.123H132.483L138.392 526.864Z" fill="#136AE8"/>
<path d="M138.392 526.864H161.185L158.652 543.185L132.482 544.123L138.392 526.864Z" fill="#F9B384"/>
<path d="M229.847 435.411L229.003 441.133L228.44 444.603L224.875 469.366L223.468 478.839L222.249 487.281L219.06 509.23L216.809 524.425C215.12 535.868 205.272 544.404 193.735 544.404H143.365L143.459 543.747L145.054 526.958L145.241 524.613L180.322 517.859L185.011 483.623C182.666 473.68 183.229 464.113 184.261 457.36C185.105 451.638 186.325 447.98 186.325 447.98L201.989 443.478L229.847 435.411Z" fill="#1F2D49"/>
<path d="M219.059 509.136L216.808 524.331C215.12 535.775 205.271 544.31 193.734 544.31H191.201C214.275 540.183 209.773 510.731 219.059 509.136Z" fill="#102048"/>
<path d="M125.415 535.802L120.463 543.768L121.578 544.462L126.531 536.495L125.415 535.802Z" fill="white"/>
<path d="M224.873 469.272L222.247 487.187C215.024 485.124 205.457 474.712 205.457 474.712L224.873 469.272Z" fill="#102048"/>
<path d="M278.244 514.858C278.244 514.858 266.05 521.142 244.102 517.109L262.298 505.009L278.244 514.858Z" fill="#102048"/>
<path d="M271.491 523.581L251.887 523.956L251.793 519.735L251.512 508.198L268.864 509.417L269.708 513.92L271.491 523.581Z" fill="#F9B384"/>
<path d="M269.708 513.92L251.793 519.735L251.512 508.198L268.864 509.417L269.708 513.92Z" fill="#E28B6D"/>
<path d="M293.72 544.216L272.147 526.864L271.49 523.581L251.887 523.956L252.45 544.216H293.72Z" fill="#136AE8"/>
<path d="M279.02 531.743L271.303 536.562L271.998 537.676L279.716 532.857L279.02 531.743Z" fill="white"/>
<path d="M186.416 447.886L256.483 436.724C259.766 436.161 263.143 436.63 266.144 438.037C272.147 440.758 276.087 446.573 276.368 453.233L278.244 514.951C278.244 514.951 258.265 510.731 244.102 517.203L242.788 474.994C234.253 478.933 219.433 479.684 204.331 478.183L186.416 447.886Z" fill="#1F2D49"/>
<path d="M268.396 512.982H267.083C267.083 502.289 267.364 493.472 267.552 485.593C268.115 466.552 268.396 456.047 263.518 451.638C259.579 448.074 251.794 448.168 240.35 449.481C228.157 450.888 223.279 437.944 223.279 437.756L224.499 437.287C224.686 437.756 229.095 449.481 240.257 448.167C252.263 446.761 260.142 446.667 264.456 450.606C269.709 455.484 269.428 465.52 268.865 485.593C268.584 493.472 268.396 502.289 268.396 512.982Z" fill="#3A6BEA"/>
<path d="M244.102 509.324L243.633 508.104C243.82 508.01 260.141 502.007 278.15 506.51L277.869 507.729C260.235 503.321 244.289 509.324 244.102 509.324Z" fill="#3A6BEA"/>
<path d="M150.492 544.498C148.523 540.464 151.618 523.862 151.712 523.112L152.931 523.393C152.087 528.083 150.117 540.933 151.618 543.935L150.492 544.498Z" fill="#3A6BEA"/>
<path d="M222.811 442.727C222.811 442.727 217.839 453.233 206.677 460.361C202.926 462.8 199.174 463.832 195.797 463.832C190.732 463.832 186.605 461.393 184.26 457.266C185.104 451.544 186.323 447.886 186.323 447.886L201.988 443.384L217.839 442.915L222.811 442.727Z" fill="#102048"/>
<path d="M210.24 379.32V394.234H224.873V381.29L210.24 379.32Z" fill="#D4DCF4"/>
<path d="M224.873 372.098H210.24V379.32L224.873 381.29V372.098Z" fill="#F9B384"/>
<path d="M214.555 374.067C214.836 374.067 218.119 379.132 224.872 381.29L224.779 373.505L214.555 374.067Z" fill="#102048"/>
<path d="M226.56 354.276C226.56 354.276 234.626 375.943 224.215 377.35C213.803 378.757 212.209 374.067 212.209 374.067L209.02 362.624L216.242 352.963L226.56 354.276Z" fill="#F9B384"/>
<path d="M231.533 364.685C231.556 363.442 230.567 362.416 229.324 362.393C228.081 362.37 227.055 363.359 227.032 364.602C227.009 365.845 227.998 366.871 229.241 366.894C230.484 366.917 231.51 365.928 231.533 364.685Z" fill="#F9B384"/>
<path d="M215.586 364.594C215.586 364.594 216.149 352.963 226.56 354.276C226.56 354.276 219.526 345.271 210.333 348.742C205.644 350.524 202.548 355.026 202.079 359.998C201.517 366.47 205.268 373.786 210.521 375.099C210.521 375.099 212.209 371.16 215.117 366.095L215.586 364.594Z" fill="#102048"/>
<path d="M216.772 368.659C218.366 367.91 218.961 365.821 218.102 363.992C217.242 362.164 215.254 361.289 213.66 362.038C212.066 362.788 211.47 364.877 212.33 366.705C213.189 368.534 215.178 369.409 216.772 368.659Z" fill="#F9B384"/>
<path opacity="0.4" d="M225.911 366.034C225.934 364.429 224.651 363.108 223.045 363.085C221.439 363.062 220.119 364.346 220.096 365.951C220.073 367.557 221.356 368.877 222.962 368.9C224.568 368.923 225.888 367.64 225.911 366.034Z" fill="#EB5D60"/>
<path d="M215.867 366.564C215.679 366.564 215.585 366.376 215.585 366.282C215.585 366.188 215.585 364.406 213.522 364.125C213.334 364.125 213.24 363.937 213.24 363.75C213.24 363.562 213.428 363.468 213.615 363.468C216.148 363.843 216.242 366.188 216.242 366.282C216.242 366.47 216.054 366.564 215.867 366.564Z" fill="#102048"/>
<path d="M264.738 358.028C264.738 358.028 275.994 358.872 282.091 366.095L268.115 369.565L264.738 358.028Z" fill="#BA5C36"/>
<path d="M284.622 351.837C284.715 352.869 281.808 358.028 279.744 361.686C278.525 363.75 277.587 365.344 277.587 365.344L270.083 367.502L264.736 359.435L264.455 359.06C264.455 359.06 264.549 358.685 264.643 358.122C264.643 358.122 264.643 358.122 264.643 358.028C265.581 354.182 268.77 341.144 270.552 340.769C272.146 340.394 271.209 347.523 271.209 347.523C271.209 347.523 275.242 335.892 277.587 336.361C279.463 336.736 275.805 347.898 275.805 347.898C275.805 347.898 277.118 346.491 278.431 346.96C279.838 347.429 280.025 348.742 280.025 348.742C280.025 348.742 280.963 348.085 281.901 348.648C282.839 349.211 282.746 350.993 282.746 350.993C282.746 350.993 284.528 350.243 284.622 351.837Z" fill="#F9B384"/>
<path d="M206.864 388.981L201.799 408.96L193.92 439.913C188.574 442.258 182.852 443.196 178.35 442.446C173.097 441.602 169.439 438.506 169.72 433.16C170.283 418.527 206.864 388.981 206.864 388.981Z" fill="#D4DCF4"/>
<path d="M205.832 394.609L201.705 408.866L193.826 439.82C188.48 442.165 182.758 443.103 178.256 442.352C189.793 409.429 205.832 394.609 205.832 394.609Z" fill="#D4DCF4"/>
<path d="M237.724 439.726C227.125 440.476 193.639 468.146 185.572 450.325C185.572 450.325 186.698 383.635 221.122 384.854C227.218 385.042 232.565 389.169 234.441 394.984C235.285 397.611 236.129 401.081 236.692 405.49C237.349 409.992 237.818 415.432 238.005 422.092C238.099 427.251 238.099 433.066 237.724 439.726Z" fill="#D4DCF4"/>
<path d="M238.006 422.092C232.659 418.621 227.125 408.304 227.125 408.304L236.692 405.49C237.349 409.898 237.818 415.338 238.006 422.092Z" fill="#D4DCF4"/>
<path d="M279.746 361.686C278.527 363.75 277.589 365.344 277.589 365.344L270.085 367.501L264.738 359.435V358.028V357.934L279.746 361.686Z" fill="#E28B6D"/>
<path d="M221.121 384.854C221.121 384.854 237.629 385.98 247.666 387.949L264.737 358.028C269.99 362.155 275.711 364.875 282.09 366.095L267.176 401.269C263.893 407.928 257.139 412.243 249.729 412.524L224.123 413.369L221.121 384.854Z" fill="#D4DCF4"/>
<path d="M247.666 388.418C247.572 388.418 247.572 388.418 247.666 388.418C247.29 388.325 216.056 382.603 210.709 387.293C210.522 387.48 210.24 387.48 210.053 387.293C209.865 387.105 209.865 386.824 210.053 386.636C215.681 381.665 246.446 387.293 247.666 387.48C247.947 387.574 248.135 387.762 248.041 388.043C248.041 388.325 247.853 388.418 247.666 388.418Z" fill="#D4DCF4"/>
<path d="M589.654 516.64L591.717 544.123H555.98L574.083 531.648L573.708 514.483L589.654 516.64Z" fill="#1C85E8"/>
<path d="M642.368 504.915L652.029 528.365L627.548 549L631.018 525.832L626.234 510.355L642.368 504.915Z" fill="#1C85E8"/>
<path d="M599.033 372.285C598.752 373.223 598.377 374.349 598.095 375.756C597.626 378.101 597.251 381.196 596.876 384.76C595.75 396.485 595.281 413.838 595.094 432.316C594.812 473.868 596.407 520.955 596.407 520.955L589.841 520.861L573.708 520.579L567.986 520.486C559.357 454.64 561.796 399.018 563.109 379.602C563.109 378.945 563.203 378.288 563.203 377.726C563.484 374.161 563.672 372.285 563.672 372.285H599.033Z" fill="#136AE8"/>
<path d="M648.465 511.012L645.182 511.856L628.017 516.171L617.512 518.797C617.512 518.797 605.13 472.743 595.188 432.316C590.404 412.806 586.183 394.703 584.307 383.635C583.651 379.789 583.275 376.788 583.182 374.912L598.189 375.756L617.136 376.881C617.136 376.881 617.605 379.601 618.543 384.479C622.108 403.895 632.613 457.735 648.465 511.012Z" fill="#136AE8"/>
<path d="M618.45 384.385C610.852 385.042 603.536 385.042 596.876 384.667C592.374 384.479 588.153 384.01 584.214 383.541C574.646 382.322 567.236 380.633 563.203 379.508C561.046 378.945 559.826 378.57 559.826 378.57L563.39 377.726L585.058 372.285H599.034C598.752 373.223 598.377 374.349 598.096 375.756L617.043 376.881C617.137 376.788 617.606 379.508 618.45 384.385Z" fill="#102048"/>
<path d="M595.844 437.287C594.813 432.879 589.841 412.243 589.279 408.679L579.336 404.927L579.805 403.708L590.498 407.741V408.21C590.592 409.148 594.531 425.938 597.157 436.912L595.844 437.287Z" fill="#3A6BEA"/>
<path d="M570.613 456.14C565.923 456.14 562.922 455.015 562.828 454.921L563.297 453.702C563.391 453.702 568.644 455.765 576.054 454.358L576.335 455.578C574.178 455.953 572.208 456.14 570.613 456.14Z" fill="#3A6BEA"/>
<path d="M607.851 455.202C604.849 455.202 602.317 454.733 602.129 454.733L602.41 453.42C602.504 453.42 611.227 455.015 615.261 452.201L616.011 453.233C613.854 454.827 610.664 455.202 607.851 455.202Z" fill="#3A6BEA"/>
<path d="M574.519 531.121L573.721 532.164L578.784 536.043L579.582 535L574.519 531.121Z" fill="white"/>
<path d="M631.273 525.216L630.779 526.432L637.645 529.221L638.139 528.004L631.273 525.216Z" fill="white"/>
<path d="M580.178 301.843C580.178 301.843 558.042 304.657 552.508 329.514L559.167 359.154L556.166 378.945C556.166 378.945 586.275 381.946 617.134 376.788L607.755 326.418L580.178 301.843Z" fill="#5997F2"/>
<path d="M593.873 364.969C593.873 364.969 587.213 360.092 595.937 338.706L601.752 359.81L593.873 364.969Z" fill="#102048"/>
<path d="M567.985 338.049L566.391 335.048L591.153 321.916C591.81 321.541 592.748 321.822 593.029 322.479L593.311 323.042C593.686 323.698 593.404 324.636 592.748 324.917L567.985 338.049Z" fill="#102048"/>
<path d="M599.502 358.028L598.846 357.653L590.31 353.057L575.959 345.272C575.678 343.583 575.865 342.082 576.897 341.051L576.147 340.769C575.021 340.3 574.177 339.268 573.896 337.955V337.768C573.52 336.548 573.708 335.329 573.802 334.672L574.177 334.203C575.021 333.078 575.396 332.515 576.428 331.671L574.552 331.765C574.552 331.765 570.05 332.984 572.113 330.076C573.52 328.107 576.803 326.324 578.679 325.48C579.43 325.105 580.368 325.293 581.024 325.855C587.215 332.327 598.095 340.019 598.095 340.019L598.189 341.613L599.221 356.058L599.502 358.028Z" fill="#F9B384"/>
<path d="M582.618 333.359L578.679 331.483C578.303 331.296 577.834 331.202 577.365 331.296L573.238 332.046L573.145 331.389L577.272 330.639C577.834 330.545 578.397 330.639 578.96 330.92L582.9 332.796L582.618 333.359Z" fill="#E28B6D"/>
<path d="M581.869 337.017L577.179 335.235C576.992 335.141 576.71 335.141 576.523 335.141H573.896V334.485H576.523C576.804 334.485 577.086 334.579 577.367 334.672L582.057 336.454L581.869 337.017Z" fill="#E28B6D"/>
<path d="M581.211 340.675L576.99 339.081C576.615 338.987 576.333 338.893 575.958 338.987L574.176 339.175L574.082 338.518L575.864 338.331C576.333 338.237 576.802 338.33 577.177 338.518L581.398 340.113L581.211 340.675Z" fill="#E28B6D"/>
<path d="M599.407 356.34L598.844 357.653L590.309 353.057L595.936 338.706L598.281 341.895L599.407 356.34Z" fill="#E28B6D"/>
<path d="M593.875 364.969C593.875 364.969 606.631 377.069 617.043 376.788L614.041 362.53L593.875 364.969Z" fill="#136AE8"/>
<path d="M580.178 301.843C580.178 301.843 581.772 301.656 584.399 301.749C610.193 302.594 629.984 324.824 628.671 350.618C628.108 361.311 625.388 371.816 616.477 372.098L593.966 364.969C596.123 356.996 597.718 348.742 596.03 338.706L606.535 343.677L580.178 301.843Z" fill="#5997F2"/>
<path d="M587.495 364.031L555.979 364.782L555.135 362.061L551.946 352.4L542.754 324.167L574.27 323.417L587.495 364.031Z" fill="#D3DFFF"/>
<path opacity="0.3" d="M558.699 349.023C558.699 349.023 558.605 357.747 555.134 362.155L551.945 352.4L558.699 349.023Z" fill="#1F3C88"/>
<path d="M543.411 348.273C544.443 345.084 546.225 342.082 548.195 339.456C548.852 338.612 550.165 336.548 551.572 336.83C554.292 337.486 551.572 342.176 551.572 342.176C551.572 342.176 554.104 338.331 555.136 340.206C556.074 342.176 554.667 344.334 554.667 344.334C554.667 344.334 558.7 341.613 557.2 347.054C557.2 347.054 560.483 346.585 558.513 350.243C557.012 352.869 556.074 355.777 554.292 358.122C552.416 360.561 549.039 361.874 546.132 360.467C542.755 358.872 542.286 354.557 542.755 351.275C542.849 350.337 543.036 349.305 543.411 348.273Z" fill="#F9B384"/>
<path d="M549.135 347.429H549.041C548.853 347.335 548.759 347.148 548.853 346.96L551.949 340.019C552.042 339.831 552.23 339.738 552.418 339.831C552.605 339.925 552.699 340.113 552.605 340.3L549.51 347.241C549.416 347.335 549.322 347.429 549.135 347.429Z" fill="#E28B6D"/>
<path d="M552.32 350.055H552.227C552.039 349.961 552.039 349.774 552.039 349.586L554.947 343.396C555.041 343.208 555.228 343.208 555.416 343.208C555.603 343.302 555.603 343.489 555.603 343.677L552.696 349.868C552.508 349.961 552.414 350.055 552.32 350.055Z" fill="#E28B6D"/>
<path d="M554.667 352.119C554.573 352.119 554.573 352.119 554.48 352.119C554.292 352.025 554.292 351.837 554.386 351.65L556.918 346.866C557.012 346.678 557.2 346.679 557.387 346.772C557.575 346.866 557.575 347.054 557.481 347.241L554.949 352.025C554.949 352.025 554.855 352.119 554.667 352.119Z" fill="#E28B6D"/>
<path d="M565.171 326.231H553.821L551.945 322.385H563.201L565.171 326.231Z" fill="#102048"/>
<path d="M579.898 314.412C576.521 314.412 574.364 312.724 574.364 312.724C574.176 312.536 574.083 312.255 574.27 312.067C574.458 311.88 574.739 311.786 574.927 311.973C575.114 312.067 579.523 315.35 585.338 311.88C585.526 311.786 585.901 311.786 585.995 312.067C586.089 312.255 586.089 312.63 585.807 312.724C583.556 314.037 581.586 314.412 579.898 314.412Z" fill="#136AE8"/>
<path d="M593.875 365.438H593.781C593.5 365.344 593.406 365.063 593.5 364.875C598.096 349.211 595.564 338.893 595.564 338.799L595.376 338.049L615.355 341.426C615.636 341.426 615.824 341.707 615.73 341.989C615.73 342.27 615.449 342.458 615.167 342.364L596.689 339.268C597.158 341.895 598.471 351.556 594.532 365.157C594.344 365.344 594.157 365.438 593.875 365.438Z" fill="#136AE8"/>
<path d="M608.506 341.051C608.225 341.051 608.037 340.769 608.037 340.582C608.037 340.488 608.6 330.076 601.378 319.383C601.19 319.196 601.284 318.821 601.471 318.727C601.659 318.539 602.034 318.633 602.128 318.821C609.538 329.795 608.975 340.488 608.975 340.582C608.975 340.863 608.788 341.051 608.506 341.051Z" fill="#136AE8"/>
<path d="M588.995 290.025V302.5C588.995 306.533 585.9 309.722 582.054 309.722C578.209 309.722 575.113 306.439 575.113 302.5V290.025H588.995Z" fill="#F9B384"/>
<path d="M582.43 291.619C582.43 291.619 581.679 299.311 575.02 301.562V290.681L582.43 291.619Z" fill="#102048"/>
<path d="M569.767 275.767C569.767 275.767 567.61 293.214 574.363 295.277C581.117 297.341 587.401 291.338 587.401 291.338L586.088 276.987L576.052 271.078L569.767 275.767Z" fill="#F9B384"/>
<path d="M608.412 309.722L594.999 310.566C593.31 308.69 592.372 306.064 591.716 303.063C591.153 306.158 591.622 308.69 593.123 310.66L589.465 310.942C586.276 306.158 583.555 295.465 586.745 286.367L587.12 284.209C587.12 284.209 584.869 277.268 581.492 276.987C581.492 276.987 570.049 284.678 564.983 276.143C561.232 269.764 564.421 261.323 573.519 267.513C573.519 267.513 595.374 257.289 595.374 278.3C595.374 282.052 596.781 285.804 599.595 288.336C599.782 288.524 600.064 288.805 600.345 288.993C605.316 292.839 610.569 300.624 608.412 309.722Z" fill="#102048"/>
<path d="M590.538 285.362C591.189 283.34 590.318 281.251 588.592 280.695C586.867 280.139 584.94 281.327 584.288 283.349C583.637 285.37 584.508 287.46 586.234 288.016C587.96 288.572 589.887 287.384 590.538 285.362Z" fill="#F9B384"/>
<path d="M587.026 285.522C586.838 285.522 586.744 285.335 586.744 285.241C586.744 283.834 587.87 282.615 589.183 282.521C589.37 282.521 589.464 282.615 589.464 282.802C589.464 282.99 589.37 283.177 589.183 283.177C588.339 283.177 587.401 284.022 587.401 285.241C587.307 285.335 587.213 285.522 587.026 285.522Z" fill="#102048"/>
<path d="M572.206 282.427C572.206 282.896 571.831 283.271 571.362 283.271C570.893 283.271 570.518 282.896 570.518 282.427C570.518 281.958 570.893 281.583 571.362 281.583C571.831 281.677 572.206 282.052 572.206 282.427Z" fill="#102048"/>
<path d="M576.989 282.052C576.989 282.521 576.614 282.896 576.145 282.896C575.676 282.896 575.301 282.521 575.301 282.052C575.301 281.583 575.676 281.208 576.145 281.208C576.614 281.208 576.989 281.583 576.989 282.052Z" fill="#102048"/>
<path d="M573.331 287.867C573.237 287.867 573.143 287.867 573.143 287.773C572.487 287.117 572.205 286.554 572.393 285.991C572.487 285.428 573.05 285.053 573.331 284.96L573.237 283.365C573.237 283.177 573.331 283.084 573.519 282.99C573.706 282.99 573.8 283.084 573.894 283.271L573.988 285.335L573.8 285.428C573.612 285.522 573.143 285.71 573.05 286.085C572.956 286.46 573.331 286.929 573.706 287.304C573.8 287.398 573.8 287.586 573.706 287.773C573.519 287.867 573.425 287.867 573.331 287.867Z" fill="#102048"/>
<path d="M573.987 290.212C573.705 290.212 573.518 290.212 573.518 290.212C573.33 290.212 573.236 290.025 573.236 289.837C573.236 289.65 573.424 289.556 573.612 289.556C573.612 289.556 575.3 289.837 576.707 288.524C576.801 288.43 577.082 288.43 577.176 288.524C577.27 288.618 577.27 288.899 577.176 288.993C575.956 290.025 574.643 290.212 573.987 290.212Z" fill="#102048"/>
<path opacity="0.4" d="M580.179 287.867C581.37 287.867 582.336 286.901 582.336 285.71C582.336 284.518 581.37 283.552 580.179 283.552C578.987 283.552 578.021 284.518 578.021 285.71C578.021 286.901 578.987 287.867 580.179 287.867Z" fill="#EB5D60"/>
<path d="M733.537 543.466H46V544.779H733.537V543.466Z" fill="#102048"/>
<defs>
<linearGradient id="paint0_linear_1161_7463" x1="489.967" y1="501.572" x2="607.641" y2="501.572" gradientUnits="userSpaceOnUse">
<stop stop-color="white"/>
<stop offset="1" stop-color="#94B9FF"/>
</linearGradient>
<linearGradient id="paint1_linear_1161_7463" x1="489.967" y1="501.248" x2="548.63" y2="501.248" gradientUnits="userSpaceOnUse">
<stop stop-color="white"/>
<stop offset="1" stop-color="#94B9FF"/>
</linearGradient>
<linearGradient id="paint2_linear_1161_7463" x1="332.298" y1="534.282" x2="441.004" y2="534.282" gradientUnits="userSpaceOnUse">
<stop stop-color="white"/>
<stop offset="1" stop-color="#94B9FF"/>
</linearGradient>
<linearGradient id="paint3_linear_1161_7463" x1="320.277" y1="513.375" x2="428.983" y2="513.375" gradientUnits="userSpaceOnUse">
<stop stop-color="white"/>
<stop offset="1" stop-color="#94B9FF"/>
</linearGradient>
<linearGradient id="paint4_linear_1161_7463" x1="353.402" y1="523.825" x2="441.003" y2="523.825" gradientUnits="userSpaceOnUse">
<stop stop-color="white"/>
<stop offset="1" stop-color="#94B9FF"/>
</linearGradient>
</defs>
</svg>
