<svg width="734" height="549" viewBox="0 0 734 549" fill="none" xmlns="http://www.w3.org/2000/svg">
<g clip-path="url(#clip0_1161_7173)">
<path d="M74.3066 481.805H705.003L601.97 181.562C596.655 166.084 580.897 156.853 564.859 159.65L181.257 227.624C169.508 229.676 159.717 237.974 155.801 249.35L74.3066 481.805Z" fill="#E3EEFD"/>
<path d="M380.143 187.623L385.738 261.565C386.018 264.828 383.5 267.719 380.237 267.999L291.749 275.085L286.527 204.5L380.143 187.623Z" fill="#A4C4FF"/>
<path d="M696.05 427.537C696.05 427.537 681.691 394.716 631.619 391.079C631.619 391.079 644.394 416.814 666.026 424.181C666.026 424.181 603.18 406.092 569.52 409.075C569.52 409.075 611.572 453.273 658.287 452.806C658.287 452.806 598.145 433.132 547.234 439.752C547.234 439.752 590.592 482.644 641.503 480.779C692.414 478.914 641.503 480.779 641.503 480.779L715.538 481.805L696.05 427.537Z" fill="#A4C4FF"/>
<path d="M194.591 481.805L127.736 329.259L117.386 358.817L135.009 397.14L104.518 380.077C104.518 380.077 111.978 414.484 140.323 420.358L89.8789 440.219C89.8789 440.219 109.46 464.648 140.323 465.021C140.323 465.021 115.894 475.185 112.257 480.593H159.159L168.11 468.751L173.984 481.619H194.591V481.805Z" fill="#A4C4FF"/>
<path d="M202.233 481.805H121.018C121.018 481.805 140.506 467.912 167.266 462.131C167.266 462.131 92.3922 460.452 78.3125 425.486C78.3125 425.486 116.915 410.94 157.756 418.679C157.756 418.679 116.542 406.838 104.514 380.077C104.514 380.077 135.564 367.862 170.064 393.97L202.233 481.805Z" fill="url(#paint0_linear_1161_7173)"/>
<path d="M151.42 380.077C151.42 380.077 182.656 464.555 182.283 466.7C181.91 468.844 152.073 484.323 152.073 484.323L216.224 485.628L166.619 380.077H151.42Z" fill="#1F2D49"/>
<path d="M183.399 416.162C170.625 403.761 104.702 381.289 104.143 379.984C110.203 380.543 184.705 410.288 183.399 416.162Z" fill="white"/>
<path d="M186.29 449.636C170.718 436.489 91.1819 427.164 77.9414 425.486C88.5711 424.087 183.213 439.193 186.29 449.636Z" fill="white"/>
<path d="M617.913 450.382H406.997L329.978 260.259C327.274 253.452 320.654 248.977 313.287 248.977C21.6228 254.105 89.2241 199.371 186.663 474.532C188.528 479.008 190.486 481.805 194.589 481.805H617.913C629.475 481.618 625.092 465.487 625.932 458.401C625.932 453.925 622.295 450.382 617.913 450.382Z" fill="#1F2D49"/>
<path d="M382.473 386.883L376.879 406.371L389.094 437.421L397.206 421.383L382.473 386.883Z" fill="#1A1A35"/>
<path d="M197.57 451.221C202.419 464.648 206.055 484.136 224.238 483.763L628.633 485.255L627.887 444.321L197.57 451.221Z" fill="#1A1A35"/>
<path d="M417.25 484.416C417.81 476.117 413.8 459.427 426.947 459.147H632.735V486.467L417.25 484.416Z" fill="#1F2D49"/>
<path d="M397.204 449.916L321.398 261.471C320.279 258.767 317.668 256.902 314.684 256.902H126.519C122.603 256.902 119.899 260.912 121.391 264.548L197.571 451.128L397.204 449.916Z" fill="#E3EEFD"/>
<path d="M333.239 268.185L157.942 283.104L230.392 455.977L187.966 455.604L109.922 248.044L319.439 247.765L333.239 268.185Z" fill="#5CA4E6"/>
<path d="M319.533 256.902L130.903 263.802L197.571 451.221L109.736 251.401L319.533 256.902Z" fill="#5CA4E6"/>
<path d="M246.056 471.921H214.726C211.556 471.921 212.488 467.539 212.395 465.581C212.395 464.275 213.421 463.25 214.726 463.25H246.056C249.226 463.25 248.294 467.632 248.387 469.59C248.387 470.896 247.361 471.921 246.056 471.921Z" fill="#E3EEFD"/>
<path d="M286.525 471.921H255.195C252.025 471.921 252.957 467.539 252.864 465.581C252.864 464.275 253.89 463.25 255.195 463.25H286.525C289.695 463.25 288.762 467.632 288.856 469.59C288.949 470.896 287.83 471.921 286.525 471.921Z" fill="#E3EEFD"/>
<path d="M307.878 467.818C307.785 473.786 298.833 473.786 298.74 467.818C298.833 461.851 307.785 461.851 307.878 467.818Z" fill="#E3EEFD"/>
<path d="M435.908 441.058L435.068 429.869H445.418L445.605 438.82C445.605 438.82 440.849 444.135 435.908 441.058Z" fill="#FFB6A6"/>
<path d="M433.576 435.277L446.257 432.48L447.096 429.496L434.788 429.123L433.576 435.277Z" fill="#FF8370"/>
<path d="M435.909 441.058C435.909 441.058 442.436 443.948 446.259 436.582L456.05 444.508C458.474 445.627 467.052 447.771 466.773 450.475C466.68 450.475 437.028 450.475 437.028 450.475C435.63 450.289 433.858 448.331 434.324 446.932C434.324 446.746 435.909 441.058 435.909 441.058Z" fill="#38385C"/>
<path d="M375.857 441.058L378.655 429.869H389.005L385.555 438.82C385.555 438.82 380.799 444.135 375.857 441.058Z" fill="#FFB6A6"/>
<path d="M376.883 435.557L389.657 432.853L390.496 429.776L378.188 429.403L376.883 435.557Z" fill="#FF8370"/>
<path d="M375.858 441.058C375.858 441.058 382.385 443.948 386.208 436.582L396.465 444.881C398.889 446 407.001 447.771 406.722 450.475C406.628 450.475 377.164 450.103 377.164 450.103C376.138 450.103 374.926 449.357 374.366 448.424C373.62 447.305 375.765 442.084 375.858 441.058Z" fill="#38385C"/>
<path d="M439.26 220.724L444.295 236.109C445.227 238.907 443.362 241.797 440.472 242.17L432.546 243.289L429.935 256.25H417.348L426.672 220.818H439.26V220.724Z" fill="#FFB6A6"/>
<path d="M444.483 239.839C444.483 239.839 438.235 241.424 431.242 239.187C431.242 239.187 432.734 241.891 432.361 244.035C431.895 246.18 432.361 244.035 432.361 244.035C432.361 244.035 443.55 243.662 444.483 239.839Z" fill="#FF8370"/>
<path d="M442.336 223.522C442.336 223.522 440.751 229.769 428.63 229.303C416.508 228.837 428.63 229.303 428.63 229.303L438.607 219.326L442.336 223.522Z" fill="#FF8370"/>
<path d="M438.7 220.724C438.7 220.724 433.105 228.557 428.63 229.209L427.79 226.412C427.79 226.412 424.34 229.303 427.231 232.38C427.231 232.38 426.112 236.762 422.103 238.161C421.636 235.363 415.669 215.596 422.755 211.586L422.289 214.757C423.594 211.959 429.842 210.468 436.182 210.468L433.665 212.239C438.513 210.934 446.812 213.545 446.159 220.724L442.989 217.461C442.989 217.461 445.134 220.911 443.362 225.386C443.082 225.48 439.259 222.869 438.7 220.724Z" fill="#38385C"/>
<path d="M424.901 243.196C436.37 246.646 455.578 265.574 451.102 319.096H399.445L414.737 249.07C415.856 244.594 420.518 241.89 424.901 243.196Z" fill="#5997F2"/>
<path d="M449.519 319.096L448.213 431.92H433.481L424.996 349.4L391.148 431.92H376.789L401.685 319.096H449.519Z" fill="#38385C"/>
<path d="M418.189 244.688L384.715 267.999L399.634 287.953L424.996 271.635L418.189 244.688Z" fill="#5997F2"/>
<path d="M372.504 333.735L380.15 326.649L413.344 362.081L415.582 372.244L405.698 369.261L372.504 333.735Z" fill="#3875FF"/>
<path d="M368.867 338.677L385.371 323.292L383.693 321.52L377.725 327.115L366.536 315.18C365.977 314.527 365.044 314.34 364.298 314.62C365.044 312.009 361.501 309.865 359.543 311.916C357.491 313.688 359.17 317.231 361.781 316.858C361.314 317.604 361.314 318.63 361.967 319.376L373.156 331.311L367.189 336.905L368.867 338.677Z" fill="#38385C"/>
<path d="M397.213 284.596L387.795 272.101C383.506 275.458 377.725 279.281 376.326 284.876L366.443 315.273L363.272 318.257C362.62 318.909 362.526 319.842 362.993 320.588C367.561 328.42 368.68 329.446 374.741 323.851L373.156 319.748L390.313 288.978L397.213 284.596Z" fill="#FFB6A6"/>
<path d="M385.93 271.542C385.93 271.542 386.769 285.901 393.016 289.071L399.45 284.969L389.193 269.677L385.93 271.542Z" fill="#5997F2"/>
<path d="M407.374 283.011L418.563 275.831C418.563 275.831 414.18 294.666 403.178 302.592L407.374 283.011Z" fill="#5997F2"/>
<path d="M424.996 349.4L432.549 330.658L427.98 378.771L424.996 349.4Z" fill="#1A1A35"/>
<path d="M480.851 240.958L443.553 264.082C422.947 277.136 450.08 336.719 481.13 349.12C482.995 350.052 485.233 348.654 485.233 346.509V243.382C485.233 241.144 482.809 239.746 480.851 240.958Z" fill="#136AE8"/>
<path d="M477.588 258.301V285.342H453.158V302.032H477.588V329.166H485.234V258.301H477.588Z" fill="white"/>
<path d="M734.001 479.567H51.1816V481.991H734.001V479.567Z" fill="#38385C"/>
<path d="M681.6 209.162C679.922 308.932 531.479 308.932 529.707 209.162C531.479 109.392 679.922 109.392 681.6 209.162Z" fill="#5997F2"/>
<path d="M597.217 220.072C597.217 220.072 571.388 231.447 570.083 236.203C568.777 240.958 554.791 282.451 554.791 282.451C560.199 288.699 628.173 306.322 664.911 259.7C664.911 259.7 644.677 226.972 639.735 224.454C634.794 221.843 614.933 215.969 614.933 215.969L597.217 220.072Z" fill="#136AE8"/>
<path d="M588.734 164.872C588.734 164.872 607.476 154.802 632.465 181.562C645.706 195.735 606.078 230.049 606.078 230.049L588.734 164.872Z" fill="#136AE8"/>
<path d="M583.508 168.601C587.424 163.846 594.324 162.727 599.453 166.084C609.616 172.704 624.722 183.241 625.747 188.182C627.332 195.642 606.073 230.049 606.073 230.049C584.72 217.834 555.815 204.127 583.508 168.601Z" fill="#1F2D49"/>
<path d="M614.748 202.728C614.188 206.178 612.976 209.348 611.298 211.959L615.214 231.727L598.15 234.804L594.887 219.698C587.707 217.834 582.113 210.094 581.273 200.49C583.791 200.863 589.945 201.516 589.945 201.516L596.286 197.507L603.279 200.49L615.121 194.896C615.121 195.269 615.214 195.642 615.214 196.015L619.223 194.709C619.223 194.523 621.368 201.609 614.748 202.728Z" fill="#FFB6A6"/>
<path d="M594.889 219.698C594.889 219.698 602.814 220.724 607.663 214.57C607.663 214.57 609.714 223.988 601.043 227.904L595.448 225.666L594.889 219.698Z" fill="#FF8370"/>
<path d="M597.965 212.798C597.965 212.798 602.534 214.104 604.678 209.162L597.965 212.798Z" fill="white"/>
<path d="M615.217 197.04L618.48 195.735C618.48 195.735 618.667 200.024 615.59 201.423C615.59 201.423 617.175 197.786 617.361 197.32C617.455 196.947 615.217 197.04 615.217 197.04Z" fill="#FF8370"/>
<path d="M589.945 194.523C590.039 197.88 584.724 197.88 584.724 194.523C584.631 191.166 589.945 191.166 589.945 194.523Z" fill="#3875FF"/>
<path d="M605.606 192.098C605.699 195.455 600.384 195.455 600.384 192.098C600.291 188.742 605.606 188.742 605.606 192.098Z" fill="#3875FF"/>
<path d="M597.959 296.718C597.027 351.451 515.626 351.451 514.693 296.718C515.533 241.984 597.027 241.984 597.959 296.718Z" fill="#5997F2"/>
<path d="M575.955 295.039C581.177 290.19 581.457 281.985 576.608 276.763C565.792 265.108 547.423 280.213 556.561 292.988L532.504 315.459L533.809 319.375L542.761 318.35L542.388 313.874L546.677 313.594L546.49 308.559L559.824 296.158C564.766 299.608 571.48 299.235 575.955 295.039ZM569.801 283.104C567.097 280.12 571.573 275.924 574.37 278.908C577.074 281.892 572.598 286.088 569.801 283.104Z" fill="white"/>
<path d="M553.207 186.597C552.648 221.75 500.245 221.75 499.686 186.597C500.245 151.445 552.648 151.445 553.207 186.597Z" fill="#5997F2"/>
<path d="M540.244 189.488H543.507V183.614H539.964C539.591 182.028 538.845 180.536 537.913 179.231L540.617 176.527L536.514 172.424L533.717 175.222C532.411 174.476 530.92 173.916 529.521 173.543V169.441H523.647V173.543C522.155 173.823 520.756 174.476 519.451 175.222L516.653 172.424L512.551 176.527L515.255 179.231C514.322 180.536 513.67 182.028 513.203 183.614H509.66V189.488H512.924C513.203 191.259 513.856 192.938 514.695 194.43L512.551 196.574L516.653 200.677L518.612 198.719C520.103 199.745 521.875 200.584 523.647 200.957V203.661H529.521V200.957C531.293 200.584 533.064 199.838 534.556 198.719L536.514 200.677L540.617 196.574L538.472 194.43C539.405 192.938 539.964 191.259 540.244 189.488ZM533.437 194.336C523.833 203.381 510.406 189.861 519.357 180.257C528.961 171.305 542.482 184.732 533.437 194.336Z" fill="white"/>
<path d="M526.442 183.054C521.314 183.054 521.314 190.793 526.442 190.886C531.57 190.793 531.57 183.054 526.442 183.054Z" fill="white"/>
<path d="M709.01 213.638C708.544 243.569 663.974 243.569 663.508 213.638C663.974 183.707 708.544 183.707 709.01 213.638Z" fill="#5997F2"/>
<path d="M698.662 206.645H687.1C687.007 205.992 687.473 204.22 686.261 204.22H676.098C674.699 204.127 675.445 207.204 675.258 207.95C675.258 210.374 675.258 219.046 675.258 221.564C675.258 222.31 675.818 222.869 676.564 222.869H698.662C699.408 222.869 699.968 222.31 699.968 221.564V207.95C699.968 207.297 699.408 206.645 698.662 206.645Z" fill="white"/>
<path d="M693.908 206.645H687.102V205.059H693.349C694.095 205.059 693.908 206.178 693.908 206.645Z" fill="#3975FF"/>
<path d="M373.894 260.632L304.894 267.439C301.724 267.719 298.926 265.481 298.647 262.311L291.84 193.311C291.56 190.141 293.798 187.343 296.968 187.063L365.968 180.257C369.139 179.977 371.936 182.215 372.216 185.385L379.022 254.385C379.395 257.555 377.064 260.353 373.894 260.632Z" fill="#E3EEFD"/>
<path d="M333.706 240.678C337.529 233.871 347.786 239.653 344.056 246.459C340.14 253.08 329.976 247.578 333.706 240.678ZM319.533 205.059L335.291 200.677L342.191 232.566L330.443 235.83L319.533 205.059Z" fill="#A4C4FF"/>
<path d="M260.978 387.443L228.249 388.096L226.664 384.086L259.392 383.433L260.978 387.443Z" fill="#A4C4FF"/>
<path d="M263.683 394.156L231.048 394.809L229.369 390.8L262.097 390.147L263.683 394.156Z" fill="#A4C4FF"/>
<path d="M266.386 400.87L233.751 401.523L232.166 397.513L264.801 396.861L266.386 400.87Z" fill="#A4C4FF"/>
<path d="M257.154 407.77L236.454 408.236L234.869 404.227L255.569 403.854L257.154 407.77Z" fill="#A4C4FF"/>
<path d="M285.219 386.883L270.3 387.256L268.715 383.247L283.634 382.967L285.219 386.883Z" fill="#A4C4FF"/>
<path d="M294.639 400.31L275.804 400.683L274.219 396.674L292.961 396.301L294.639 400.31Z" fill="#A4C4FF"/>
<path d="M304.615 400.124L296.782 400.217L295.197 396.301L303.03 396.115L304.615 400.124Z" fill="#A4C4FF"/>
<path d="M314.123 399.937L306.29 400.031L304.705 396.114L312.537 395.928L314.123 399.937Z" fill="#A4C4FF"/>
<path d="M328.301 399.565L316.273 399.844L314.688 395.928L326.716 395.648L328.301 399.565Z" fill="#A4C4FF"/>
<path d="M304.057 386.51L289.138 386.883L287.553 382.874L302.378 382.594L304.057 386.51Z" fill="#A4C4FF"/>
<path d="M322.889 386.137L307.97 386.51L306.385 382.501L321.21 382.221L322.889 386.137Z" fill="#A4C4FF"/>
<path d="M287.552 407.211L278.507 407.397L276.922 403.481L285.966 403.294L287.552 407.211Z" fill="#A4C4FF"/>
<path d="M298.459 406.931L289.321 407.117L287.736 403.201L296.781 403.015L298.459 406.931Z" fill="#A4C4FF"/>
<path d="M309.278 406.744L300.234 406.931L298.648 403.015L307.693 402.828L309.278 406.744Z" fill="#A4C4FF"/>
<path d="M320.095 406.558L311.05 406.744L309.465 402.828L318.509 402.642L320.095 406.558Z" fill="#A4C4FF"/>
<path d="M331.005 406.371L321.96 406.465L320.375 402.548L329.42 402.362L331.005 406.371Z" fill="#A4C4FF"/>
<path d="M306.759 393.224L273.005 393.97L271.42 389.96L305.174 389.308L306.759 393.224Z" fill="#A4C4FF"/>
<path d="M325.594 392.851L310.675 393.224L309.09 389.215L324.009 388.935L325.594 392.851Z" fill="#A4C4FF"/>
<path d="M346.854 385.671L330.63 386.044L329.045 382.128L345.269 381.755L346.854 385.671Z" fill="#A4C4FF"/>
<path d="M355.057 405.812L338.833 406.185L337.248 402.268L353.472 401.895L355.057 405.812Z" fill="#A4C4FF"/>
<path d="M345.64 399.285L336.036 399.471L334.451 395.555L343.962 395.369L345.64 399.285Z" fill="#A4C4FF"/>
<path d="M342.844 392.571L333.333 392.758L331.748 388.842L341.259 388.655L342.844 392.571Z" fill="#A4C4FF"/>
<path d="M349.279 392.385L344.71 392.478L343.125 388.562L347.601 388.469L349.279 392.385Z" fill="#A4C4FF"/>
<path d="M352.262 399.098L347.413 399.192L345.828 395.275L350.677 395.182L352.262 399.098Z" fill="#A4C4FF"/>
<path d="M287.549 312.475L246.802 313.315L244.191 306.881L282.328 306.135C285.685 305.855 286.524 310.144 287.549 312.475Z" fill="#1F2D49"/>
<path d="M312.536 312.009L251.555 313.221C249.97 309.958 249.038 303.524 244.096 303.804L197.195 304.736C195.237 304.736 194.118 306.135 194.864 307.813L197.941 315.366L198.22 316.019L221.531 373.457C222.37 375.415 224.981 377 227.312 377L337.992 374.762C340.416 374.669 341.628 373.084 340.882 371.032L318.318 315.459C317.572 313.594 314.961 312.009 312.536 312.009Z" fill="#5997F2"/>
<path d="M322.981 321.427L211.369 365.438L217.523 380.636L347.504 378.025L322.981 321.427Z" fill="#1C85E8"/>
<path d="M275.71 335.32C273.565 327.488 254.17 323.105 256.688 335.227C257.9 338.863 261.723 341.847 266.012 342.966L273.285 360.869C273.565 361.615 274.497 362.174 275.43 362.174C276.362 361.894 280.745 362.827 279.999 360.775L272.726 342.873C275.709 341.567 277.108 338.677 275.71 335.32Z" fill="#1F2D49"/>
<path d="M507.42 423.715H417.627C417.067 423.715 416.508 423.248 416.508 422.596V404.413C416.508 403.854 416.974 403.294 417.627 403.294H507.42C507.979 403.294 508.539 403.761 508.539 404.413V422.596C508.539 423.248 508.073 423.715 507.42 423.715Z" fill="#A4C4FF"/>
<path d="M438.516 413.551C438.329 424.181 422.571 424.181 422.385 413.551C422.571 402.921 438.329 402.921 438.516 413.551Z" fill="#E3EEFD"/>
<path d="M427.793 413.831C427.42 413.458 426.674 412.059 425.928 412.712C425.555 412.992 424.903 413.551 425.369 414.017L427.607 416.535C428.259 417.188 429.005 416.069 429.471 415.696L434.88 410.94C435.439 410.474 434.786 409.915 434.507 409.542C434.32 409.262 433.854 409.262 433.574 409.448L428.632 413.831C428.446 414.11 428.073 414.11 427.793 413.831Z" fill="#A4C4FF"/>
<path d="M474.32 408.143H442.617V411.873H474.32V408.143Z" fill="#E3EEFD"/>
<path d="M461.825 416.069H442.617V419.798H461.825V416.069Z" fill="#E3EEFD"/>
<path d="M479.354 416.069H464.715V419.798H479.354V416.069Z" fill="#E3EEFD"/>
<path d="M505.462 416.069H481.312V419.798H505.462V416.069Z" fill="#E3EEFD"/>
<path d="M495.859 408.143H477.023V411.873H495.859V408.143Z" fill="#E3EEFD"/>
<path d="M528.678 395.182H438.885C438.325 395.182 437.766 394.716 437.766 394.063V375.881C437.766 375.321 438.232 374.762 438.885 374.762H528.678C529.237 374.762 529.797 375.228 529.797 375.881V394.063C529.703 394.623 529.237 395.182 528.678 395.182Z" fill="#A4C4FF"/>
<path d="M459.674 384.925C459.488 395.555 443.729 395.555 443.543 384.925C443.823 374.389 459.581 374.389 459.674 384.925Z" fill="#E3EEFD"/>
<path d="M449.045 385.299C448.672 384.926 447.926 383.527 447.18 384.18C446.807 384.459 446.155 385.019 446.621 385.485L448.859 388.003C449.511 388.655 450.257 387.536 450.723 387.163L456.132 382.408C456.691 381.942 456.038 381.382 455.759 381.009C455.572 380.73 455.106 380.73 454.826 380.916L449.884 385.299C449.698 385.578 449.232 385.578 449.045 385.299Z" fill="#A4C4FF"/>
<path d="M495.486 379.611H463.783V383.34H495.486V379.611Z" fill="#E3EEFD"/>
<path d="M482.991 387.536H463.783V391.266H482.991V387.536Z" fill="#E3EEFD"/>
<path d="M493.154 387.536H485.135V391.266H493.154V387.536Z" fill="#E3EEFD"/>
<path d="M503.689 387.536H495.67V391.266H503.689V387.536Z" fill="#E3EEFD"/>
<path d="M516.37 387.536H506.113V391.266H516.37V387.536Z" fill="#E3EEFD"/>
<path d="M523.641 379.611H497.533V383.34H523.641V379.611Z" fill="#E3EEFD"/>
</g>
<defs>
<linearGradient id="paint0_linear_1161_7173" x1="78.3088" y1="429.512" x2="202.24" y2="429.512" gradientUnits="userSpaceOnUse">
<stop stop-color="white"/>
<stop offset="1" stop-color="#94B9FF"/>
</linearGradient>
<clipPath id="clip0_1161_7173">
<rect width="734" height="549" fill="white"/>
</clipPath>
</defs>
</svg>
